<svg width="1280" height="108" viewBox="0 0 1280 108" fill="none" xmlns="http://www.w3.org/2000/svg">
<path fill-rule="evenodd" clip-rule="evenodd" d="M-10 44.8003L43.8281 41.2029C98.6719 38.1195 206.328 31.4386 315 24.7578C423.672 18.0769 531.328 11.91 640 8.3126C748.672 5.22913 856.328 5.22913 965 8.3126C1073.67 11.91 1181.33 18.0769 1236.17 21.6743L1290 24.7578V163H1236.17C1181.33 163 1073.67 163 965 163C856.328 163 748.672 163 640 163C531.328 163 423.672 163 315 163C206.328 163 98.6719 163 43.8281 163H-10V44.8003Z" fill="#25242D" stroke="#E21F25" stroke-width="12"/>
</svg>
