<svg width="29" height="20" viewBox="0 0 39 30" fill="none" xmlns="http://www.w3.org/2000/svg">
    <path d="M25.025 0C24.6384 0.687097 24.2939 1.39669 23.9933 2.12492C21.0398 1.6614 18.0312 1.6614 15.0777 2.12492C14.7771 1.39669 14.4326 0.687097 14.046 0C11.2639 0.471734 8.55926 1.31656 6.00644 2.51127C1.44148 9.04885 -0.628763 16.9857 0.166557 24.9002C3.14147 27.1195 6.48036 28.8121 10.036 29.9034C10.8456 28.8421 11.5682 27.7181 12.1967 26.5422C11.0367 26.1177 9.92169 25.5807 8.86798 24.9388C9.15698 24.748 9.43036 24.5349 9.68557 24.3014C12.7582 25.7701 16.1249 26.5328 19.5355 26.5328C22.9461 26.5328 26.3128 25.7701 29.3854 24.3014C29.658 24.5332 29.9305 24.7457 30.203 24.9388C29.1436 25.5756 28.0297 26.1186 26.8743 26.5615C27.4768 27.7641 28.18 28.9143 28.9766 30C32.5278 28.9125 35.8609 27.2194 38.8266 24.9968C39.641 17.0809 37.5691 9.13751 32.9867 2.60786C30.4626 1.38842 27.7847 0.511276 25.025 0V0ZM13.0727 20.3799C12.0986 20.3105 11.1894 19.8693 10.5361 19.1489C9.88276 18.4286 9.53606 17.485 9.56877 16.5164C9.53112 15.5465 9.87611 14.6003 10.5304 13.8788C11.1847 13.1574 12.0968 12.7176 13.0727 12.6529C14.0486 12.7176 14.9607 13.1574 15.615 13.8788C16.2693 14.6003 16.6143 15.5465 16.5766 16.5164C16.6143 17.4863 16.2693 18.4325 15.615 19.154C14.9607 19.8755 14.0486 20.3153 13.0727 20.3799V20.3799ZM25.9983 20.3799C25.0242 20.3105 24.115 19.8693 23.4617 19.1489C22.8084 18.4286 22.4617 17.485 22.4944 16.5164C22.4567 15.5465 22.8017 14.6003 23.456 13.8788C24.1103 13.1574 25.0224 12.7176 25.9983 12.6529C26.976 12.7128 27.891 13.1511 28.5463 13.8737C29.2017 14.5962 29.5449 15.5452 29.5022 16.5164C29.5449 17.4876 29.2017 18.4366 28.5463 19.1591C27.891 19.8817 26.976 20.3201 25.9983 20.3799V20.3799Z" fill="white" />
</svg>