<svg width="20" height="20" viewBox="0 0 34 30" fill="none" xmlns="http://www.w3.org/2000/svg">
    <path d="M33.6461 5.89074L28.947 10.5938C28.0134 21.5157 18.833 30 7.86311 30C5.6069 30 3.73969 29.6406 2.32373 28.9375C1.18784 28.3594 0.72104 27.75 0.596559 27.5625C0.493567 27.4054 0.427201 27.227 0.402406 27.0406C0.377612 26.8542 0.395027 26.6646 0.453356 26.4858C0.511685 26.3071 0.609423 26.1439 0.739288 26.0084C0.869154 25.8729 1.0278 25.7685 1.2034 25.7031C1.23452 25.6875 4.9067 24.2813 7.28739 21.5782C5.81096 20.5225 4.51326 19.2353 3.44405 17.7657C1.31232 14.8594 -0.943887 9.8126 0.409838 2.28139C0.452394 2.05749 0.554375 1.84929 0.705009 1.67878C0.855644 1.50826 1.04934 1.38176 1.26564 1.31264C1.48263 1.24129 1.71499 1.23125 1.93728 1.28361C2.15957 1.33597 2.36324 1.44872 2.52601 1.60951C2.57269 1.67201 7.75419 6.79699 14.0871 8.45323V7.50011C14.0932 6.50904 14.2937 5.52888 14.677 4.6156C15.0604 3.70233 15.6191 2.87382 16.3213 2.17738C17.0236 1.48094 17.8555 0.930208 18.7697 0.556638C19.6839 0.183068 20.6624 -0.00602835 21.6493 0.000146488C22.9447 0.0186983 24.2132 0.373867 25.3312 1.03105C26.4492 1.68823 27.3787 2.62501 28.029 3.75013H32.7592C33.005 3.74936 33.2454 3.82165 33.4504 3.9579C33.6553 4.09414 33.8154 4.28825 33.9107 4.51575C34.0003 4.74664 34.0231 4.9983 33.9763 5.24163C33.9295 5.48496 33.815 5.71001 33.6461 5.89074Z" fill="white" />
</svg>