<svg width="79" height="79" viewBox="0 0 79 79" fill="none" xmlns="http://www.w3.org/2000/svg">
<path d="M69.981 59.6673L54.879 44.5653C51.7548 41.4411 46.6895 41.4411 43.5653 44.5653C40.4411 47.6895 40.4411 52.7548 43.5653 55.879L58.6673 70.981C61.7915 74.1052 66.8568 74.1052 69.981 70.981C73.1052 67.8568 73.1052 62.7915 69.981 59.6673Z" fill="url(#paint0_linear)"/>
<g filter="url(#filter0_d)">
<circle cx="44" cy="45" r="21" stroke="url(#paint1_linear)" stroke-width="8"/>
</g>
<path d="M13.6569 25.9706C10.5327 22.8464 10.5327 17.7811 13.6569 14.6569V14.6569C16.781 11.5327 21.8464 11.5327 24.9706 14.6569L59.5428 49.2291L48.2291 60.5429L13.6569 25.9706Z" fill="url(#paint2_linear)"/>
<g filter="url(#filter1_dd)">
<rect x="56.992" y="10" width="16" height="64.8553" rx="8" transform="rotate(46 56.992 10)" fill="url(#paint3_linear)"/>
</g>
<defs>
<filter id="filter0_d" x="10" y="11" width="68" height="68" filterUnits="userSpaceOnUse" color-interpolation-filters="sRGB">
<feFlood flood-opacity="0" result="BackgroundImageFix"/>
<feColorMatrix in="SourceAlpha" type="matrix" values="0 0 0 0 0 0 0 0 0 0 0 0 0 0 0 0 0 0 127 0" result="hardAlpha"/>
<feOffset/>
<feGaussianBlur stdDeviation="4.5"/>
<feColorMatrix type="matrix" values="0 0 0 0 1 0 0 0 0 0.854902 0 0 0 0 0.12549 0 0 0 0.5 0"/>
<feBlend mode="normal" in2="BackgroundImageFix" result="effect1_dropShadow"/>
<feBlend mode="normal" in="SourceGraphic" in2="effect1_dropShadow" result="shape"/>
</filter>
<filter id="filter1_dd" x="0.33905" y="0" width="77.7675" height="76.5617" filterUnits="userSpaceOnUse" color-interpolation-filters="sRGB">
<feFlood flood-opacity="0" result="BackgroundImageFix"/>
<feColorMatrix in="SourceAlpha" type="matrix" values="0 0 0 0 0 0 0 0 0 0 0 0 0 0 0 0 0 0 127 0" result="hardAlpha"/>
<feOffset/>
<feGaussianBlur stdDeviation="5"/>
<feComposite in2="hardAlpha" operator="out"/>
<feColorMatrix type="matrix" values="0 0 0 0 0 0 0 0 0 0 0 0 0 0 0 0 0 0 0.3 0"/>
<feBlend mode="normal" in2="BackgroundImageFix" result="effect1_dropShadow"/>
<feColorMatrix in="SourceAlpha" type="matrix" values="0 0 0 0 0 0 0 0 0 0 0 0 0 0 0 0 0 0 127 0" result="hardAlpha"/>
<feOffset/>
<feGaussianBlur stdDeviation="2"/>
<feComposite in2="hardAlpha" operator="out"/>
<feColorMatrix type="matrix" values="0 0 0 0 0 0 0 0 0 0 0 0 0 0 0 0 0 0 0.25 0"/>
<feBlend mode="normal" in2="effect1_dropShadow" result="effect2_dropShadow"/>
<feBlend mode="normal" in="SourceGraphic" in2="effect2_dropShadow" result="shape"/>
</filter>
<linearGradient id="paint0_linear" x1="25" y1="26" x2="99.5" y2="90" gradientUnits="userSpaceOnUse">
<stop stop-color="#054C9D"/>
<stop offset="1" stop-color="#0071DD"/>
</linearGradient>
<linearGradient id="paint1_linear" x1="19" y1="20" x2="69" y2="70" gradientUnits="userSpaceOnUse">
<stop stop-color="#FF9900"/>
<stop offset="1" stop-color="#FFDA20"/>
</linearGradient>
<linearGradient id="paint2_linear" x1="13.6569" y1="14.6569" x2="95.4999" y2="94" gradientUnits="userSpaceOnUse">
<stop stop-color="#00296B"/>
<stop offset="0.26742" stop-color="#003F88"/>
<stop offset="0.505208" stop-color="#015DB4"/>
<stop offset="1" stop-color="#0071DD"/>
</linearGradient>
<linearGradient id="paint3_linear" x1="6.37564" y1="44.8081" x2="107.781" y2="41.0172" gradientUnits="userSpaceOnUse">
<stop stop-color="#1A4893"/>
<stop offset="1" stop-color="#00509D"/>
</linearGradient>
</defs>
</svg>
