<svg width="20" height="20" viewBox="0 0 22 23" fill="none" xmlns="http://www.w3.org/2000/svg">
<path d="M21 20V12.174C21.0001 11.6295 20.889 11.0908 20.6735 10.5907C20.458 10.0907 20.1428 9.63992 19.747 9.266L12.374 2.298C12.0027 1.94693 11.511 1.75132 11 1.75132C10.489 1.75132 9.99734 1.94693 9.626 2.298L2.253 9.266C1.85722 9.63992 1.54195 10.0907 1.3265 10.5907C1.11104 11.0908 0.999942 11.6295 1 12.174V20C1 20.5304 1.21071 21.0391 1.58579 21.4142C1.96086 21.7893 2.46957 22 3 22H19C19.5304 22 20.0391 21.7893 20.4142 21.4142C20.7893 21.0391 21 20.5304 21 20Z" stroke="black" stroke-width="2" stroke-linecap="round" stroke-linejoin="round"/>
</svg>
