<svg width="500" height="440" viewBox="0 0 330 269" fill="none" xmlns="http://www.w3.org/2000/svg">
<g filter="url(#filter0_d)">
<rect x="66" y="49" width="198" height="167" rx="5" fill="#35373A"/>
</g>
<path d="M87.4023 73H86.3125V65.7754L84.127 66.5781V65.5938L87.2324 64.4277H87.4023V73ZM89.4297 89H83.8398V88.2207L86.793 84.9395C87.2305 84.4434 87.5312 84.041 87.6953 83.7324C87.8633 83.4199 87.9473 83.0977 87.9473 82.7656C87.9473 82.3203 87.8125 81.9551 87.543 81.6699C87.2734 81.3848 86.9141 81.2422 86.4648 81.2422C85.9258 81.2422 85.5059 81.3965 85.2051 81.7051C84.9082 82.0098 84.7598 82.4355 84.7598 82.9824H83.6758C83.6758 82.1973 83.9277 81.5625 84.4316 81.0781C84.9395 80.5938 85.6172 80.3516 86.4648 80.3516C87.2578 80.3516 87.8848 80.5605 88.3457 80.9785C88.8066 81.3926 89.0371 81.9453 89.0371 82.6367C89.0371 83.4766 88.502 84.4766 87.4316 85.6367L85.1465 88.1152H89.4297V89ZM85.416 100.207H86.2305C86.7422 100.199 87.1445 100.064 87.4375 99.8027C87.7305 99.541 87.877 99.1875 87.877 98.7422C87.877 97.7422 87.3789 97.2422 86.3828 97.2422C85.9141 97.2422 85.5391 97.377 85.2578 97.6465C84.9805 97.9121 84.8418 98.2656 84.8418 98.707H83.7578C83.7578 98.0312 84.0039 97.4707 84.4961 97.0254C84.9922 96.5762 85.6211 96.3516 86.3828 96.3516C87.1875 96.3516 87.8184 96.5645 88.2754 96.9902C88.7324 97.416 88.9609 98.0078 88.9609 98.7656C88.9609 99.1367 88.8398 99.4961 88.5977 99.8438C88.3594 100.191 88.0332 100.451 87.6191 100.623C88.0879 100.771 88.4492 101.018 88.7031 101.361C88.9609 101.705 89.0898 102.125 89.0898 102.621C89.0898 103.387 88.8398 103.994 88.3398 104.443C87.8398 104.893 87.1895 105.117 86.3887 105.117C85.5879 105.117 84.9355 104.9 84.4316 104.467C83.9316 104.033 83.6816 103.461 83.6816 102.75H84.7715C84.7715 103.199 84.918 103.559 85.2109 103.828C85.5039 104.098 85.8965 104.232 86.3887 104.232C86.9121 104.232 87.3125 104.096 87.5898 103.822C87.8672 103.549 88.0059 103.156 88.0059 102.645C88.0059 102.148 87.8535 101.768 87.5488 101.502C87.2441 101.236 86.8047 101.1 86.2305 101.092H85.416V100.207ZM88.416 118.135H89.5996V119.02H88.416V121H87.3262V119.02H83.4414V118.381L87.2617 112.469H88.416V118.135ZM84.6719 118.135H87.3262V113.951L87.1973 114.186L84.6719 118.135ZM84.3379 132.723L84.7715 128.469H89.1426V129.471H85.6914L85.4336 131.797C85.8516 131.551 86.3262 131.428 86.8574 131.428C87.6348 131.428 88.252 131.686 88.709 132.201C89.166 132.713 89.3945 133.406 89.3945 134.281C89.3945 135.16 89.1562 135.854 88.6797 136.361C88.207 136.865 87.5449 137.117 86.6934 137.117C85.9395 137.117 85.3242 136.908 84.8477 136.49C84.3711 136.072 84.0996 135.494 84.0332 134.756H85.0586C85.125 135.244 85.2988 135.613 85.5801 135.863C85.8613 136.109 86.2324 136.232 86.6934 136.232C87.1973 136.232 87.5918 136.061 87.877 135.717C88.166 135.373 88.3105 134.898 88.3105 134.293C88.3105 133.723 88.1543 133.266 87.8418 132.922C87.5332 132.574 87.1211 132.4 86.6055 132.4C86.1328 132.4 85.7617 132.504 85.4922 132.711L85.2051 132.945L84.3379 132.723ZM88.0938 144.463V145.383H87.8945C87.0508 145.398 86.3789 145.648 85.8789 146.133C85.3789 146.617 85.0898 147.299 85.0117 148.178C85.4609 147.662 86.0742 147.404 86.8516 147.404C87.5938 147.404 88.1855 147.666 88.627 148.189C89.0723 148.713 89.2949 149.389 89.2949 150.217C89.2949 151.096 89.0547 151.799 88.5742 152.326C88.0977 152.854 87.457 153.117 86.6523 153.117C85.8359 153.117 85.1738 152.805 84.666 152.18C84.1582 151.551 83.9043 150.742 83.9043 149.754V149.338C83.9043 147.768 84.2383 146.568 84.9062 145.74C85.5781 144.908 86.5762 144.482 87.9004 144.463H88.0938ZM86.6699 148.307C86.2988 148.307 85.957 148.418 85.6445 148.641C85.332 148.863 85.1152 149.143 84.9941 149.479V149.877C84.9941 150.58 85.1523 151.146 85.4688 151.576C85.7852 152.006 86.1797 152.221 86.6523 152.221C87.1406 152.221 87.5234 152.041 87.8008 151.682C88.082 151.322 88.2227 150.852 88.2227 150.27C88.2227 149.684 88.0801 149.211 87.7949 148.852C87.5137 148.488 87.1387 148.307 86.6699 148.307ZM89.3477 161.078L85.8145 169H84.6777L88.1992 161.359H83.582V160.469H89.3477V161.078ZM89.0137 178.695C89.0137 179.121 88.9004 179.5 88.6738 179.832C88.4512 180.164 88.1484 180.424 87.7656 180.611C88.2109 180.803 88.5625 181.082 88.8203 181.449C89.082 181.816 89.2129 182.232 89.2129 182.697C89.2129 183.436 88.9629 184.023 88.4629 184.461C87.9668 184.898 87.3125 185.117 86.5 185.117C85.6797 185.117 85.0215 184.898 84.5254 184.461C84.0332 184.02 83.7871 183.432 83.7871 182.697C83.7871 182.236 83.9121 181.82 84.1621 181.449C84.416 181.078 84.7656 180.797 85.2109 180.605C84.832 180.418 84.5332 180.158 84.3145 179.826C84.0957 179.494 83.9863 179.117 83.9863 178.695C83.9863 177.977 84.2168 177.406 84.6777 176.984C85.1387 176.562 85.7461 176.352 86.5 176.352C87.25 176.352 87.8555 176.562 88.3164 176.984C88.7812 177.406 89.0137 177.977 89.0137 178.695ZM88.1289 182.674C88.1289 182.197 87.9766 181.809 87.6719 181.508C87.3711 181.207 86.9766 181.057 86.4883 181.057C86 181.057 85.6074 181.205 85.3105 181.502C85.0176 181.799 84.8711 182.189 84.8711 182.674C84.8711 183.158 85.0137 183.539 85.2988 183.816C85.5879 184.094 85.9883 184.232 86.5 184.232C87.0078 184.232 87.4062 184.094 87.6953 183.816C87.9844 183.535 88.1289 183.154 88.1289 182.674ZM86.5 177.242C86.0742 177.242 85.7285 177.375 85.4629 177.641C85.2012 177.902 85.0703 178.26 85.0703 178.713C85.0703 179.146 85.1992 179.498 85.457 179.768C85.7188 180.033 86.0664 180.166 86.5 180.166C86.9336 180.166 87.2793 180.033 87.5371 179.768C87.7988 179.498 87.9297 179.146 87.9297 178.713C87.9297 178.279 87.7949 177.926 87.5254 177.652C87.2559 177.379 86.9141 177.242 86.5 177.242ZM87.9941 197.25C87.7676 197.52 87.4961 197.736 87.1797 197.9C86.8672 198.064 86.5234 198.146 86.1484 198.146C85.6562 198.146 85.2266 198.025 84.8594 197.783C84.4961 197.541 84.2148 197.201 84.0156 196.764C83.8164 196.322 83.7168 195.836 83.7168 195.305C83.7168 194.734 83.8242 194.221 84.0391 193.764C84.2578 193.307 84.5664 192.957 84.9648 192.715C85.3633 192.473 85.8281 192.352 86.3594 192.352C87.2031 192.352 87.8672 192.668 88.3516 193.301C88.8398 193.93 89.084 194.789 89.084 195.879V196.195C89.084 197.855 88.7559 199.068 88.0996 199.834C87.4434 200.596 86.4531 200.986 85.1289 201.006H84.918V200.092H85.1465C86.041 200.076 86.7285 199.844 87.209 199.395C87.6895 198.941 87.9512 198.227 87.9941 197.25ZM86.3242 197.25C86.6875 197.25 87.0215 197.139 87.3262 196.916C87.6348 196.693 87.8594 196.418 88 196.09V195.656C88 194.945 87.8457 194.367 87.5371 193.922C87.2285 193.477 86.8379 193.254 86.3652 193.254C85.8887 193.254 85.5059 193.438 85.2168 193.805C84.9277 194.168 84.7832 194.648 84.7832 195.246C84.7832 195.828 84.9219 196.309 85.1992 196.688C85.4805 197.062 85.8555 197.25 86.3242 197.25Z" fill="#707070"/>
<line x1="105.5" y1="61" x2="105.5" y2="206" stroke="#707070" stroke-opacity="0.5"/>
<rect x="161" y="65" width="63" height="7" rx="3.5" fill="url(#paint0_linear)"/>
<rect x="121" y="130" width="40" height="7" rx="3.5" fill="url(#paint1_linear)"/>
<rect x="187" y="162" width="40" height="7" rx="3.5" fill="url(#paint2_linear)"/>
<rect x="119" y="194" width="63" height="7" rx="3.5" fill="url(#paint3_linear)"/>
<rect x="119" y="65" width="33" height="7" rx="3.5" fill="#505050"/>
<rect x="119" y="146" width="54" height="7" rx="3.5" fill="#505050"/>
<rect x="119" y="82" width="63" height="7" rx="3.5" fill="#505050"/>
<rect x="187" y="82" width="63" height="7" rx="3.5" fill="#505050"/>
<rect x="119" y="114" width="63" height="7" rx="3.5" fill="#505050"/>
<rect x="169" y="130" width="55" height="7" rx="3.5" fill="#505050"/>
<rect x="119" y="162" width="63" height="7" rx="3.5" fill="#505050"/>
<g filter="url(#filter1_d)">
<rect x="149" y="189" width="141" height="40" rx="9" fill="white"/>
</g>
<path d="M202.183 199H202.923V205.36H206.843V206H202.183V199ZM209.994 206.05C209.487 206.05 209.03 205.937 208.624 205.71C208.217 205.477 207.897 205.157 207.664 204.75C207.43 204.343 207.314 203.883 207.314 203.37C207.314 202.857 207.43 202.397 207.664 201.99C207.897 201.583 208.217 201.267 208.624 201.04C209.03 200.813 209.487 200.7 209.994 200.7C210.5 200.7 210.957 200.813 211.364 201.04C211.77 201.267 212.087 201.583 212.314 201.99C212.547 202.397 212.664 202.857 212.664 203.37C212.664 203.883 212.547 204.343 212.314 204.75C212.087 205.157 211.77 205.477 211.364 205.71C210.957 205.937 210.5 206.05 209.994 206.05ZM209.994 205.42C210.367 205.42 210.7 205.337 210.994 205.17C211.294 204.997 211.527 204.753 211.694 204.44C211.86 204.127 211.944 203.77 211.944 203.37C211.944 202.97 211.86 202.613 211.694 202.3C211.527 201.987 211.294 201.747 210.994 201.58C210.7 201.407 210.367 201.32 209.994 201.32C209.62 201.32 209.284 201.407 208.984 201.58C208.69 201.747 208.457 201.987 208.284 202.3C208.117 202.613 208.034 202.97 208.034 203.37C208.034 203.77 208.117 204.127 208.284 204.44C208.457 204.753 208.69 204.997 208.984 205.17C209.284 205.337 209.62 205.42 209.994 205.42ZM214.793 201.77C214.96 201.417 215.206 201.15 215.533 200.97C215.866 200.79 216.276 200.7 216.763 200.7V201.39L216.593 201.38C216.04 201.38 215.606 201.55 215.293 201.89C214.98 202.23 214.823 202.707 214.823 203.32V206H214.113V200.74H214.793V201.77ZM222.58 203.59H218.18C218.22 204.137 218.43 204.58 218.81 204.92C219.19 205.253 219.67 205.42 220.25 205.42C220.576 205.42 220.876 205.363 221.15 205.25C221.423 205.13 221.66 204.957 221.86 204.73L222.26 205.19C222.026 205.47 221.733 205.683 221.38 205.83C221.033 205.977 220.65 206.05 220.23 206.05C219.69 206.05 219.21 205.937 218.79 205.71C218.376 205.477 218.053 205.157 217.82 204.75C217.586 204.343 217.47 203.883 217.47 203.37C217.47 202.857 217.58 202.397 217.8 201.99C218.026 201.583 218.333 201.267 218.72 201.04C219.113 200.813 219.553 200.7 220.04 200.7C220.526 200.7 220.963 200.813 221.35 201.04C221.736 201.267 222.04 201.583 222.26 201.99C222.48 202.39 222.59 202.85 222.59 203.37L222.58 203.59ZM220.04 201.31C219.533 201.31 219.106 201.473 218.76 201.8C218.42 202.12 218.226 202.54 218.18 203.06H221.91C221.863 202.54 221.666 202.12 221.32 201.8C220.98 201.473 220.553 201.31 220.04 201.31ZM230.595 200.7C231.255 200.7 231.772 200.89 232.145 201.27C232.525 201.65 232.715 202.21 232.715 202.95V206H232.005V203.02C232.005 202.473 231.872 202.057 231.605 201.77C231.345 201.483 230.975 201.34 230.495 201.34C229.948 201.34 229.518 201.51 229.205 201.85C228.892 202.183 228.735 202.647 228.735 203.24V206H228.025V203.02C228.025 202.473 227.892 202.057 227.625 201.77C227.365 201.483 226.992 201.34 226.505 201.34C225.965 201.34 225.535 201.51 225.215 201.85C224.902 202.183 224.745 202.647 224.745 203.24V206H224.035V200.74H224.715V201.7C224.902 201.38 225.162 201.133 225.495 200.96C225.828 200.787 226.212 200.7 226.645 200.7C227.085 200.7 227.465 200.793 227.785 200.98C228.112 201.167 228.355 201.443 228.515 201.81C228.708 201.463 228.985 201.193 229.345 201C229.712 200.8 230.128 200.7 230.595 200.7ZM237.258 200.74H237.968V206H237.258V200.74ZM237.618 199.59C237.471 199.59 237.348 199.54 237.248 199.44C237.148 199.34 237.098 199.22 237.098 199.08C237.098 198.947 237.148 198.83 237.248 198.73C237.348 198.63 237.471 198.58 237.618 198.58C237.764 198.58 237.888 198.63 237.988 198.73C238.088 198.823 238.138 198.937 238.138 199.07C238.138 199.217 238.088 199.34 237.988 199.44C237.888 199.54 237.764 199.59 237.618 199.59ZM242.653 200.7C243.146 200.7 243.593 200.813 243.993 201.04C244.393 201.26 244.706 201.573 244.933 201.98C245.16 202.387 245.273 202.85 245.273 203.37C245.273 203.897 245.16 204.363 244.933 204.77C244.706 205.177 244.393 205.493 243.993 205.72C243.6 205.94 243.153 206.05 242.653 206.05C242.226 206.05 241.84 205.963 241.493 205.79C241.153 205.61 240.873 205.35 240.653 205.01V207.94H239.943V200.74H240.623V201.78C240.836 201.433 241.116 201.167 241.463 200.98C241.816 200.793 242.213 200.7 242.653 200.7ZM242.603 205.42C242.97 205.42 243.303 205.337 243.603 205.17C243.903 204.997 244.136 204.753 244.303 204.44C244.476 204.127 244.563 203.77 244.563 203.37C244.563 202.97 244.476 202.617 244.303 202.31C244.136 201.997 243.903 201.753 243.603 201.58C243.303 201.407 242.97 201.32 242.603 201.32C242.23 201.32 241.893 201.407 241.593 201.58C241.3 201.753 241.066 201.997 240.893 202.31C240.726 202.617 240.643 202.97 240.643 203.37C240.643 203.77 240.726 204.127 240.893 204.44C241.066 204.753 241.3 204.997 241.593 205.17C241.893 205.337 242.23 205.42 242.603 205.42ZM248.13 206.05C247.704 206.05 247.294 205.99 246.9 205.87C246.514 205.743 246.21 205.587 245.99 205.4L246.31 204.84C246.53 205.013 246.807 205.157 247.14 205.27C247.474 205.377 247.82 205.43 248.18 205.43C248.66 205.43 249.014 205.357 249.24 205.21C249.474 205.057 249.59 204.843 249.59 204.57C249.59 204.377 249.527 204.227 249.4 204.12C249.274 204.007 249.114 203.923 248.92 203.87C248.727 203.81 248.47 203.753 248.15 203.7C247.724 203.62 247.38 203.54 247.12 203.46C246.86 203.373 246.637 203.23 246.45 203.03C246.27 202.83 246.18 202.553 246.18 202.2C246.18 201.76 246.364 201.4 246.73 201.12C247.097 200.84 247.607 200.7 248.26 200.7C248.6 200.7 248.94 200.747 249.28 200.84C249.62 200.927 249.9 201.043 250.12 201.19L249.81 201.76C249.377 201.46 248.86 201.31 248.26 201.31C247.807 201.31 247.464 201.39 247.23 201.55C247.004 201.71 246.89 201.92 246.89 202.18C246.89 202.38 246.954 202.54 247.08 202.66C247.214 202.78 247.377 202.87 247.57 202.93C247.764 202.983 248.03 203.04 248.37 203.1C248.79 203.18 249.127 203.26 249.38 203.34C249.634 203.42 249.85 203.557 250.03 203.75C250.21 203.943 250.3 204.21 250.3 204.55C250.3 205.01 250.107 205.377 249.72 205.65C249.34 205.917 248.81 206.05 248.13 206.05ZM256.353 200.74V206H255.673V205.04C255.486 205.36 255.23 205.61 254.903 205.79C254.576 205.963 254.203 206.05 253.783 206.05C253.096 206.05 252.553 205.86 252.153 205.48C251.76 205.093 251.563 204.53 251.563 203.79V200.74H252.273V203.72C252.273 204.273 252.41 204.693 252.683 204.98C252.956 205.267 253.346 205.41 253.853 205.41C254.406 205.41 254.843 205.243 255.163 204.91C255.483 204.57 255.643 204.1 255.643 203.5V200.74H256.353ZM264.902 200.7C265.562 200.7 266.078 200.89 266.452 201.27C266.832 201.65 267.022 202.21 267.022 202.95V206H266.312V203.02C266.312 202.473 266.178 202.057 265.912 201.77C265.652 201.483 265.282 201.34 264.802 201.34C264.255 201.34 263.825 201.51 263.512 201.85C263.198 202.183 263.042 202.647 263.042 203.24V206H262.332V203.02C262.332 202.473 262.198 202.057 261.932 201.77C261.672 201.483 261.298 201.34 260.812 201.34C260.272 201.34 259.842 201.51 259.522 201.85C259.208 202.183 259.052 202.647 259.052 203.24V206H258.342V200.74H259.022V201.7C259.208 201.38 259.468 201.133 259.802 200.96C260.135 200.787 260.518 200.7 260.952 200.7C261.392 200.7 261.772 200.793 262.092 200.98C262.418 201.167 262.662 201.443 262.822 201.81C263.015 201.463 263.292 201.193 263.652 201C264.018 200.8 264.435 200.7 264.902 200.7Z" fill="#AFAFAF"/>
<path d="M206.713 215.5H203.463L202.843 217H201.183L204.303 210H205.903L209.033 217H207.333L206.713 215.5ZM206.203 214.27L205.093 211.59L203.983 214.27H206.203ZM214.706 211.62L212.436 217H210.826L208.566 211.62H210.176L211.666 215.28L213.206 211.62H214.706ZM220.467 214.33C220.467 214.35 220.457 214.49 220.437 214.75H216.367C216.44 215.083 216.613 215.347 216.887 215.54C217.16 215.733 217.5 215.83 217.907 215.83C218.187 215.83 218.433 215.79 218.647 215.71C218.867 215.623 219.07 215.49 219.257 215.31L220.087 216.21C219.58 216.79 218.84 217.08 217.867 217.08C217.26 217.08 216.723 216.963 216.257 216.73C215.79 216.49 215.43 216.16 215.177 215.74C214.923 215.32 214.797 214.843 214.797 214.31C214.797 213.783 214.92 213.31 215.167 212.89C215.42 212.463 215.763 212.133 216.197 211.9C216.637 211.66 217.127 211.54 217.667 211.54C218.193 211.54 218.67 211.653 219.097 211.88C219.523 212.107 219.857 212.433 220.097 212.86C220.343 213.28 220.467 213.77 220.467 214.33ZM217.677 212.72C217.323 212.72 217.027 212.82 216.787 213.02C216.547 213.22 216.4 213.493 216.347 213.84H218.997C218.943 213.5 218.797 213.23 218.557 213.03C218.317 212.823 218.023 212.72 217.677 212.72ZM224.105 217.08C223.532 217.08 223.015 216.963 222.555 216.73C222.102 216.49 221.745 216.16 221.485 215.74C221.232 215.32 221.105 214.843 221.105 214.31C221.105 213.777 221.232 213.3 221.485 212.88C221.745 212.46 222.102 212.133 222.555 211.9C223.015 211.66 223.532 211.54 224.105 211.54C224.672 211.54 225.165 211.66 225.585 211.9C226.012 212.133 226.322 212.47 226.515 212.91L225.305 213.56C225.025 213.067 224.622 212.82 224.095 212.82C223.688 212.82 223.352 212.953 223.085 213.22C222.818 213.487 222.685 213.85 222.685 214.31C222.685 214.77 222.818 215.133 223.085 215.4C223.352 215.667 223.688 215.8 224.095 215.8C224.628 215.8 225.032 215.553 225.305 215.06L226.515 215.72C226.322 216.147 226.012 216.48 225.585 216.72C225.165 216.96 224.672 217.08 224.105 217.08ZM232.055 217.08C231.609 217.08 231.172 217.027 230.745 216.92C230.319 216.807 229.979 216.667 229.725 216.5L230.245 215.38C230.485 215.533 230.775 215.66 231.115 215.76C231.455 215.853 231.789 215.9 232.115 215.9C232.775 215.9 233.105 215.737 233.105 215.41C233.105 215.257 233.015 215.147 232.835 215.08C232.655 215.013 232.379 214.957 232.005 214.91C231.565 214.843 231.202 214.767 230.915 214.68C230.629 214.593 230.379 214.44 230.165 214.22C229.959 214 229.855 213.687 229.855 213.28C229.855 212.94 229.952 212.64 230.145 212.38C230.345 212.113 230.632 211.907 231.005 211.76C231.385 211.613 231.832 211.54 232.345 211.54C232.725 211.54 233.102 211.583 233.475 211.67C233.855 211.75 234.169 211.863 234.415 212.01L233.895 213.12C233.422 212.853 232.905 212.72 232.345 212.72C232.012 212.72 231.762 212.767 231.595 212.86C231.429 212.953 231.345 213.073 231.345 213.22C231.345 213.387 231.435 213.503 231.615 213.57C231.795 213.637 232.082 213.7 232.475 213.76C232.915 213.833 233.275 213.913 233.555 214C233.835 214.08 234.079 214.23 234.285 214.45C234.492 214.67 234.595 214.977 234.595 215.37C234.595 215.703 234.495 216 234.295 216.26C234.095 216.52 233.802 216.723 233.415 216.87C233.035 217.01 232.582 217.08 232.055 217.08ZM240.978 211.62V217H239.498V216.36C239.291 216.593 239.045 216.773 238.758 216.9C238.471 217.02 238.161 217.08 237.828 217.08C237.121 217.08 236.561 216.877 236.148 216.47C235.735 216.063 235.528 215.46 235.528 214.66V211.62H237.088V214.43C237.088 215.297 237.451 215.73 238.178 215.73C238.551 215.73 238.851 215.61 239.078 215.37C239.305 215.123 239.418 214.76 239.418 214.28V211.62H240.978ZM245.023 217.08C244.45 217.08 243.933 216.963 243.473 216.73C243.02 216.49 242.663 216.16 242.403 215.74C242.15 215.32 242.023 214.843 242.023 214.31C242.023 213.777 242.15 213.3 242.403 212.88C242.663 212.46 243.02 212.133 243.473 211.9C243.933 211.66 244.45 211.54 245.023 211.54C245.59 211.54 246.083 211.66 246.503 211.9C246.93 212.133 247.24 212.47 247.433 212.91L246.223 213.56C245.943 213.067 245.54 212.82 245.013 212.82C244.606 212.82 244.27 212.953 244.003 213.22C243.736 213.487 243.603 213.85 243.603 214.31C243.603 214.77 243.736 215.133 244.003 215.4C244.27 215.667 244.606 215.8 245.013 215.8C245.546 215.8 245.95 215.553 246.223 215.06L247.433 215.72C247.24 216.147 246.93 216.48 246.503 216.72C246.083 216.96 245.59 217.08 245.023 217.08ZM250.863 217.08C250.29 217.08 249.773 216.963 249.313 216.73C248.86 216.49 248.503 216.16 248.243 215.74C247.99 215.32 247.863 214.843 247.863 214.31C247.863 213.777 247.99 213.3 248.243 212.88C248.503 212.46 248.86 212.133 249.313 211.9C249.773 211.66 250.29 211.54 250.863 211.54C251.43 211.54 251.923 211.66 252.343 211.9C252.77 212.133 253.08 212.47 253.273 212.91L252.063 213.56C251.783 213.067 251.38 212.82 250.853 212.82C250.446 212.82 250.11 212.953 249.843 213.22C249.576 213.487 249.443 213.85 249.443 214.31C249.443 214.77 249.576 215.133 249.843 215.4C250.11 215.667 250.446 215.8 250.853 215.8C251.386 215.8 251.79 215.553 252.063 215.06L253.273 215.72C253.08 216.147 252.77 216.48 252.343 216.72C251.923 216.96 251.43 217.08 250.863 217.08ZM259.373 214.33C259.373 214.35 259.363 214.49 259.343 214.75H255.273C255.346 215.083 255.519 215.347 255.793 215.54C256.066 215.733 256.406 215.83 256.813 215.83C257.093 215.83 257.339 215.79 257.553 215.71C257.773 215.623 257.976 215.49 258.163 215.31L258.993 216.21C258.486 216.79 257.746 217.08 256.773 217.08C256.166 217.08 255.629 216.963 255.163 216.73C254.696 216.49 254.336 216.16 254.083 215.74C253.829 215.32 253.703 214.843 253.703 214.31C253.703 213.783 253.826 213.31 254.073 212.89C254.326 212.463 254.669 212.133 255.103 211.9C255.543 211.66 256.033 211.54 256.573 211.54C257.099 211.54 257.576 211.653 258.003 211.88C258.429 212.107 258.763 212.433 259.003 212.86C259.249 213.28 259.373 213.77 259.373 214.33ZM256.583 212.72C256.229 212.72 255.933 212.82 255.693 213.02C255.453 213.22 255.306 213.493 255.253 213.84H257.903C257.849 213.5 257.703 213.23 257.463 213.03C257.223 212.823 256.929 212.72 256.583 212.72ZM254.423 209.49H256.103L257.453 210.93H256.233L254.423 209.49ZM262.221 217.08C261.775 217.08 261.338 217.027 260.911 216.92C260.485 216.807 260.145 216.667 259.891 216.5L260.411 215.38C260.651 215.533 260.941 215.66 261.281 215.76C261.621 215.853 261.955 215.9 262.281 215.9C262.941 215.9 263.271 215.737 263.271 215.41C263.271 215.257 263.181 215.147 263.001 215.08C262.821 215.013 262.545 214.957 262.171 214.91C261.731 214.843 261.368 214.767 261.081 214.68C260.795 214.593 260.545 214.44 260.331 214.22C260.125 214 260.021 213.687 260.021 213.28C260.021 212.94 260.118 212.64 260.311 212.38C260.511 212.113 260.798 211.907 261.171 211.76C261.551 211.613 261.998 211.54 262.511 211.54C262.891 211.54 263.268 211.583 263.641 211.67C264.021 211.75 264.335 211.863 264.581 212.01L264.061 213.12C263.588 212.853 263.071 212.72 262.511 212.72C262.178 212.72 261.928 212.767 261.761 212.86C261.595 212.953 261.511 213.073 261.511 213.22C261.511 213.387 261.601 213.503 261.781 213.57C261.961 213.637 262.248 213.7 262.641 213.76C263.081 213.833 263.441 213.913 263.721 214C264.001 214.08 264.245 214.23 264.451 214.45C264.658 214.67 264.761 214.977 264.761 215.37C264.761 215.703 264.661 216 264.461 216.26C264.261 216.52 263.968 216.723 263.581 216.87C263.201 217.01 262.748 217.08 262.221 217.08ZM268.356 210H270.216L269.906 214.57H268.666L268.356 210ZM269.286 217.08C269.013 217.08 268.783 216.993 268.596 216.82C268.416 216.64 268.326 216.423 268.326 216.17C268.326 215.917 268.416 215.707 268.596 215.54C268.776 215.367 269.006 215.28 269.286 215.28C269.566 215.28 269.796 215.367 269.976 215.54C270.156 215.707 270.246 215.917 270.246 216.17C270.246 216.423 270.153 216.64 269.966 216.82C269.786 216.993 269.559 217.08 269.286 217.08Z" fill="#55C671"/>
<path d="M163 210.109L168.816 216L170.266 214.521L164.455 208.635L163 210.109V210.109ZM185.539 202.001L174.637 213.053L170.28 208.628L168.809 210.097L174.637 216L187 203.48L185.54 202.001H185.539ZM181.181 203.479L179.731 202L173.178 208.635L174.638 210.104L181.18 203.479H181.181Z" fill="#55C671"/>
<g filter="url(#filter2_d)">
<path fill-rule="evenodd" clip-rule="evenodd" d="M59.5551 136.773C64.8915 136.104 70.8711 134.941 75.2383 138.095C79.6099 141.252 80.4347 147.321 81.5033 152.624C82.4608 157.375 81.8865 162.034 81.0233 166.803C80.0132 172.384 80.72 179.425 76.0705 182.64C71.4129 185.861 65.1508 182.457 59.5551 181.648C54.8898 180.973 50.3182 180.557 46.1654 178.316C41.454 175.773 36.8935 172.746 34.3229 168.032C31.3984 162.67 28.4108 156.004 30.9711 150.457C33.5287 144.916 40.9902 144.326 46.4772 141.699C50.7856 139.637 54.8196 137.366 59.5551 136.773Z" fill="url(#paint4_linear)"/>
</g>
<g filter="url(#filter3_d)">
<path fill-rule="evenodd" clip-rule="evenodd" d="M258.909 26.0095C263.242 25.7882 266.597 29.4885 270.057 32.1211C273.444 34.6977 276.848 37.2494 278.721 41.0832C280.814 45.366 283.349 50.6021 281.156 54.8337C278.944 59.1011 272.924 59.0261 268.488 60.8265C265.306 62.1182 262.216 62.9413 258.909 63.8635C254.017 65.2278 249.216 69.4108 244.501 67.5154C239.782 65.6183 238.183 59.7127 236.545 54.8724C234.885 49.9688 232.606 44.3042 235.115 39.7809C237.602 35.296 244.13 35.7804 248.555 33.2196C252.284 31.061 254.612 26.229 258.909 26.0095Z" fill="url(#paint5_linear)"/>
</g>
<defs>
<filter id="filter0_d" x="41" y="28" width="248" height="217" filterUnits="userSpaceOnUse" color-interpolation-filters="sRGB">
<feFlood flood-opacity="0" result="BackgroundImageFix"/>
<feColorMatrix in="SourceAlpha" type="matrix" values="0 0 0 0 0 0 0 0 0 0 0 0 0 0 0 0 0 0 127 0" result="hardAlpha"/>
<feOffset dy="4"/>
<feGaussianBlur stdDeviation="12.5"/>
<feComposite in2="hardAlpha" operator="out"/>
<feColorMatrix type="matrix" values="0 0 0 0 0 0 0 0 0 0 0 0 0 0 0 0 0 0 0.25 0"/>
<feBlend mode="normal" in2="BackgroundImageFix" result="effect1_dropShadow"/>
<feBlend mode="normal" in="SourceGraphic" in2="effect1_dropShadow" result="shape"/>
</filter>
<filter id="filter1_d" x="109" y="149" width="221" height="120" filterUnits="userSpaceOnUse" color-interpolation-filters="sRGB">
<feFlood flood-opacity="0" result="BackgroundImageFix"/>
<feColorMatrix in="SourceAlpha" type="matrix" values="0 0 0 0 0 0 0 0 0 0 0 0 0 0 0 0 0 0 127 0" result="hardAlpha"/>
<feOffset/>
<feGaussianBlur stdDeviation="20"/>
<feComposite in2="hardAlpha" operator="out"/>
<feColorMatrix type="matrix" values="0 0 0 0 0 0 0 0 0 0 0 0 0 0 0 0 0 0 0.2 0"/>
<feBlend mode="normal" in2="BackgroundImageFix" result="effect1_dropShadow"/>
<feBlend mode="normal" in="SourceGraphic" in2="effect1_dropShadow" result="shape"/>
</filter>
<filter id="filter2_d" x="0" y="110" width="112" height="108" filterUnits="userSpaceOnUse" color-interpolation-filters="sRGB">
<feFlood flood-opacity="0" result="BackgroundImageFix"/>
<feColorMatrix in="SourceAlpha" type="matrix" values="0 0 0 0 0 0 0 0 0 0 0 0 0 0 0 0 0 0 127 0" result="hardAlpha"/>
<feOffset dy="4"/>
<feGaussianBlur stdDeviation="15"/>
<feComposite in2="hardAlpha" operator="out"/>
<feColorMatrix type="matrix" values="0 0 0 0 0 0 0 0 0 0 0 0 0 0 0 0 0 0 0.2 0"/>
<feBlend mode="normal" in2="BackgroundImageFix" result="effect1_dropShadow"/>
<feBlend mode="normal" in="SourceGraphic" in2="effect1_dropShadow" result="shape"/>
</filter>
<filter id="filter3_d" x="204" y="0" width="108" height="102" filterUnits="userSpaceOnUse" color-interpolation-filters="sRGB">
<feFlood flood-opacity="0" result="BackgroundImageFix"/>
<feColorMatrix in="SourceAlpha" type="matrix" values="0 0 0 0 0 0 0 0 0 0 0 0 0 0 0 0 0 0 127 0" result="hardAlpha"/>
<feOffset dy="4"/>
<feGaussianBlur stdDeviation="15"/>
<feComposite in2="hardAlpha" operator="out"/>
<feColorMatrix type="matrix" values="0 0 0 0 0 0 0 0 0 0 0 0 0 0 0 0 0 0 0.2 0"/>
<feBlend mode="normal" in2="BackgroundImageFix" result="effect1_dropShadow"/>
<feBlend mode="normal" in="SourceGraphic" in2="effect1_dropShadow" result="shape"/>
</filter>
<linearGradient id="paint0_linear" x1="161" y1="68" x2="227" y2="68" gradientUnits="userSpaceOnUse">
<stop stop-color="#2BA64A"/>
<stop offset="1" stop-color="#55C671"/>
</linearGradient>
<linearGradient id="paint1_linear" x1="121" y1="133" x2="162.905" y2="133" gradientUnits="userSpaceOnUse">
<stop stop-color="#2BA64A"/>
<stop offset="1" stop-color="#55C671"/>
</linearGradient>
<linearGradient id="paint2_linear" x1="187" y1="165" x2="228.905" y2="165" gradientUnits="userSpaceOnUse">
<stop stop-color="#2BA64A"/>
<stop offset="1" stop-color="#55C671"/>
</linearGradient>
<linearGradient id="paint3_linear" x1="182" y1="198" x2="119" y2="198" gradientUnits="userSpaceOnUse">
<stop stop-color="#E4E4E4"/>
<stop offset="1" stop-color="#B5B5B5"/>
</linearGradient>
<linearGradient id="paint4_linear" x1="30" y1="136" x2="82" y2="184" gradientUnits="userSpaceOnUse">
<stop stop-color="#55C671"/>
<stop offset="1" stop-color="#2BA64A"/>
</linearGradient>
<linearGradient id="paint5_linear" x1="234" y1="26" x2="282" y2="68" gradientUnits="userSpaceOnUse">
<stop stop-color="white"/>
<stop offset="1" stop-color="#D7D7D7"/>
</linearGradient>
</defs>
</svg>
