<svg xmlns="http://www.w3.org/2000/svg" xmlns:xlink="http://www.w3.org/1999/xlink" style="background:transparent;" width="100vw" height="100%" preserveAspectRatio="xMidYMid" viewBox="0 0 3000 2000">
<g transform=""><path id="path0" d="M 1754.57222089658 1434.345448207949
c 0 36.84904381964995 -9.016255402680306 10.584299820537753 -19.60055522321806 10.584299820537753
S 1715.371110450144 1471.194492027599 1715.371110450144 1434.345448207949
s 9.016255402680306 -10.584299820537753 19.60055522321806 -10.584299820537753
S 1754.57222089658 1397.496404388299 1754.57222089658 1434.345448207949
z" fill="none" stroke="none"></path>
<circle cx="0" cy="0" r="7.69984267842593" fill="#e0ff77">
  <animateMotion begin="-14.536758272217105s" dur="20s" repeatCount="indefinite">
    <mpath xlink:href="#path0"></mpath>
  </animateMotion>
</circle><path id="path1" d="M 1243.3183226713763 284.1067323473445
c 0 23.443550663344887 -5.736187928265237 6.733785828833105 -12.469973757098343 6.733785828833105
S 1218.3783751571796 307.5502830106894 1218.3783751571796 284.1067323473445
s 5.736187928265237 -6.733785828833105 12.469973757098343 -6.733785828833105
S 1243.3183226713763 260.66318168399965 1243.3183226713763 284.1067323473445
z" fill="none" stroke="none"></path>
<circle cx="0" cy="0" r="8.818640706277675" fill="#51cacc">
  <animateMotion begin="-6.019629297408611s" dur="20s" repeatCount="indefinite">
    <mpath xlink:href="#path1"></mpath>
  </animateMotion>
</circle><path id="path2" d="M 373.8448549344918 94.30174512530022
c 0 28.674345105140368 -7.0160631640237066 8.236248062114786 -15.252311226138493 8.236248062114786
S 343.34023248221484 122.97609023044058 343.34023248221484 94.30174512530022
s 7.0160631640237066 -8.236248062114786 15.252311226138493 -8.236248062114786
S 373.8448549344918 65.62740002015985 373.8448549344918 94.30174512530022
z" fill="none" stroke="none"></path>
<circle cx="0" cy="0" r="7.706037485043389" fill="#9df871">
  <animateMotion begin="-14.861748085517835s" dur="20s" repeatCount="indefinite">
    <mpath xlink:href="#path2"></mpath>
  </animateMotion>
</circle><path id="path3" d="M 1096.1529884436877 611.9223322592212
c 0 22.010931412821517 -5.385653430796753 6.322288810065754 -11.707942240862508 6.322288810065754
S 1072.737103961963 633.9332636720427 1072.737103961963 611.9223322592212
s 5.385653430796753 -6.322288810065754 11.707942240862508 -6.322288810065754
S 1096.1529884436877 589.9114008463997 1096.1529884436877 611.9223322592212
z" fill="none" stroke="none"></path>
<circle cx="0" cy="0" r="9.865471931192358" fill="#9df871">
  <animateMotion begin="-13.949024374005663s" dur="20s" repeatCount="indefinite">
    <mpath xlink:href="#path3"></mpath>
  </animateMotion>
</circle><path id="path4" d="M 2489.7504315915285 1715.010393926998
c 0 19.663334348759253 -4.811241383207051 5.647979015069148 -10.459220398276198 5.647979015069148
S 2468.8319907949763 1734.6737282757572 2468.8319907949763 1715.010393926998
s 4.811241383207051 -5.647979015069148 10.459220398276198 -5.647979015069148
S 2489.7504315915285 1695.3470595782387 2489.7504315915285 1715.010393926998
z" fill="none" stroke="none"></path>
<circle cx="0" cy="0" r="6.264388350632554" fill="#de9dd6">
  <animateMotion begin="-10.18811390635208s" dur="20s" repeatCount="indefinite">
    <mpath xlink:href="#path4"></mpath>
  </animateMotion>
</circle><path id="path5" d="M 2831.707159307707 1242.3520807637187
c 0 33.81535182408201 -8.273969063339214 9.712920204789514 -17.986889268128728 9.712920204789514
S 2795.7333807714494 1276.1674325878007 2795.7333807714494 1242.3520807637187
s 8.273969063339214 -9.712920204789514 17.986889268128728 -9.712920204789514
S 2831.707159307707 1208.5367289396368 2831.707159307707 1242.3520807637187
z" fill="none" stroke="none"></path>
<circle cx="0" cy="0" r="10.449201364251962" fill="#ff708e">
  <animateMotion begin="-8.798327756809435s" dur="20s" repeatCount="indefinite">
    <mpath xlink:href="#path5"></mpath>
  </animateMotion>
</circle><path id="path6" d="M 2766.8090132810325 201.5764307002377
c 0 33.347907699189555 -8.159594437035741 9.578654339128915 -17.738248776164657 9.578654339128915
S 2731.332515728703 234.92433839942726 2731.332515728703 201.5764307002377
s 8.159594437035741 -9.578654339128915 17.738248776164657 -9.578654339128915
S 2766.8090132810325 168.22852300104813 2766.8090132810325 201.5764307002377
z" fill="none" stroke="none"></path>
<circle cx="0" cy="0" r="5.29447590103978" fill="#e0ff77">
  <animateMotion begin="-11.95837692497622s" dur="20s" repeatCount="indefinite">
    <mpath xlink:href="#path6"></mpath>
  </animateMotion>
</circle><path id="path7" d="M 1427.2656261743412 1376.010262905505
c 0 36.68356575127034 -8.975766088076785 10.536768886003184 -19.51253497407997 10.536768886003184
S 1388.2405562261813 1412.6938286567754 1388.2405562261813 1376.010262905505
s 8.975766088076785 -10.536768886003184 19.51253497407997 -10.536768886003184
S 1427.2656261743412 1339.3266971542346 1427.2656261743412 1376.010262905505
z" fill="none" stroke="none"></path>
<circle cx="0" cy="0" r="9.453008818470147" fill="#e0ff77">
  <animateMotion begin="-2.349610542773215s" dur="20s" repeatCount="indefinite">
    <mpath xlink:href="#path7"></mpath>
  </animateMotion>
</circle><path id="path8" d="M 1911.0593097033989 1617.254473326017
c 0 35.08489292126121 -8.584601459457527 10.077575626319708 -18.662177085777238 10.077575626319708
S 1873.7349555318442 1652.3393662472781 1873.7349555318442 1617.254473326017
s 8.584601459457527 -10.077575626319708 18.662177085777238 -10.077575626319708
S 1911.0593097033989 1582.1695804047558 1911.0593097033989 1617.254473326017
z" fill="none" stroke="none"></path>
<circle cx="0" cy="0" r="9.026511569030975" fill="#9df871">
  <animateMotion begin="-18.806811412619155s" dur="20s" repeatCount="indefinite">
    <mpath xlink:href="#path8"></mpath>
  </animateMotion>
</circle><path id="path9" d="M 2214.881739787962 941.2690246640526
c 0 24.149426938164137 -5.908902335933778 6.936537524791827 -12.845439860725605 6.936537524791827
S 2189.190860066511 965.4184516022167 2189.190860066511 941.2690246640526
s 5.908902335933778 -6.936537524791827 12.845439860725605 -6.936537524791827
S 2214.881739787962 917.1195977258885 2214.881739787962 941.2690246640526
z" fill="none" stroke="none"></path>
<circle cx="0" cy="0" r="9.41904247626554" fill="#ff708e">
  <animateMotion begin="-10.274686512176983s" dur="20s" repeatCount="indefinite">
    <mpath xlink:href="#path9"></mpath>
  </animateMotion>
</circle><path id="path10" d="M 1265.618638505025 1188.1631269157156
c 0 23.754510785362896 -5.812273915567516 6.8231041617531725 -12.63537807732069 6.8231041617531725
S 1240.3478823503838 1211.9176377010785 1240.3478823503838 1188.1631269157156
s 5.812273915567516 -6.8231041617531725 12.63537807732069 -6.8231041617531725
S 1265.618638505025 1164.4086161303526 1265.618638505025 1188.1631269157156
z" fill="none" stroke="none"></path>
<circle cx="0" cy="0" r="9.16146228483641" fill="#e0ff77">
  <animateMotion begin="-15.631702771684619s" dur="20s" repeatCount="indefinite">
    <mpath xlink:href="#path10"></mpath>
  </animateMotion>
</circle><path id="path11" d="M 1628.6526983442693 885.5286286795341
c 0 30.93889605552186 -7.570155417840454 8.886704186160534 -16.45685960400099 8.886704186160534
S 1595.7389791362673 916.4675247350559 1595.7389791362673 885.5286286795341
s 7.570155417840454 -8.886704186160534 16.45685960400099 -8.886704186160534
S 1628.6526983442693 854.5897326240123 1628.6526983442693 885.5286286795341
z" fill="none" stroke="none"></path>
<circle cx="0" cy="0" r="8.88134003800906" fill="#e0ff77">
  <animateMotion begin="-5.287774848418369s" dur="20s" repeatCount="indefinite">
    <mpath xlink:href="#path11"></mpath>
  </animateMotion>
</circle><path id="path12" d="M 1167.558644019594 869.3194665278958
c 0 24.271657313378768 -5.938809768167145 6.971646249587518 -12.910456017754663 6.971646249587518
S 1141.7377319840846 893.5911238412746 1141.7377319840846 869.3194665278958
s 5.938809768167145 -6.971646249587518 12.910456017754663 -6.971646249587518
S 1167.558644019594 845.047809214517 1167.558644019594 869.3194665278958
z" fill="none" stroke="none"></path>
<circle cx="0" cy="0" r="7.549944468079473" fill="#e0ff77">
  <animateMotion begin="-16.40003542282074s" dur="20s" repeatCount="indefinite">
    <mpath xlink:href="#path12"></mpath>
  </animateMotion>
</circle><path id="path13" d="M 520.6988076583797 1978.5957945305045
c 0 20.220453755585673 -4.947557833813516 5.808002674476736 -10.755560508290252 5.808002674476736
S 499.1876866417992 1998.81624828609 499.1876866417992 1978.5957945305045
s 4.947557833813516 -5.808002674476736 10.755560508290252 -5.808002674476736
S 520.6988076583797 1958.3753407749189 520.6988076583797 1978.5957945305045
z" fill="none" stroke="none"></path>
<circle cx="0" cy="0" r="5.313285071193801" fill="#e0ff77">
  <animateMotion begin="-4.25781537498202s" dur="20s" repeatCount="indefinite">
    <mpath xlink:href="#path13"></mpath>
  </animateMotion>
</circle><path id="path14" d="M 982.3323829956684 135.64041265888136
c 0 26.02048894907191 -6.366715381155893 7.47397023005257 -13.840685611208464 7.47397023005257
S 954.6510117732515 161.66090160795326 954.6510117732515 135.64041265888136
s 6.366715381155893 -7.47397023005257 13.840685611208464 -7.47397023005257
S 982.3323829956684 109.61992370980946 982.3323829956684 135.64041265888136
z" fill="none" stroke="none"></path>
<circle cx="0" cy="0" r="7.846723600152196" fill="#9df871">
  <animateMotion begin="-2.1867628198726075s" dur="20s" repeatCount="indefinite">
    <mpath xlink:href="#path14"></mpath>
  </animateMotion>
</circle><path id="path15" d="M 256.5161693300577 1791.7786016291143
c 0 26.55738474242786 -6.498083500806816 7.628184979208003 -14.126268480014819 7.628184979208003
S 228.26363237002806 1818.335986371542 228.26363237002806 1791.7786016291143
s 6.498083500806816 -7.628184979208003 14.126268480014819 -7.628184979208003
S 256.5161693300577 1765.2212168866865 256.5161693300577 1791.7786016291143
z" fill="none" stroke="none"></path>
<circle cx="0" cy="0" r="5.554824723431624" fill="#ff708e">
  <animateMotion begin="-4.460173431970926s" dur="20s" repeatCount="indefinite">
    <mpath xlink:href="#path15"></mpath>
  </animateMotion>
</circle><path id="path16" d="M 535.0213819863063 1163.384570443332
c 0 22.110795699417732 -5.410088309431997 6.3509732328114765 -11.761061542243475 6.3509732328114765
S 511.49925890181936 1185.4953661427496 511.49925890181936 1163.384570443332
s 5.410088309431997 -6.3509732328114765 11.761061542243475 -6.3509732328114765
S 535.0213819863063 1141.2737747439144 535.0213819863063 1163.384570443332
z" fill="none" stroke="none"></path>
<circle cx="0" cy="0" r="7.661268191506706" fill="#ff708e">
  <animateMotion begin="-13.914177447530685s" dur="20s" repeatCount="indefinite">
    <mpath xlink:href="#path16"></mpath>
  </animateMotion>
</circle><path id="path17" d="M 952.0765419648593 409.79162998801763
c 0 20.953995015119673 -5.127041333486728 6.018700695832247 -11.145742029318974 6.018700695832247
S 929.7850579062214 430.7456250031373 929.7850579062214 409.79162998801763
s 5.127041333486728 -6.018700695832247 11.145742029318974 -6.018700695832247
S 952.0765419648593 388.83763497289794 952.0765419648593 409.79162998801763
z" fill="none" stroke="none"></path>
<circle cx="0" cy="0" r="5.255628240012861" fill="#51cacc">
  <animateMotion begin="-15.657838460700544s" dur="20s" repeatCount="indefinite">
    <mpath xlink:href="#path17"></mpath>
  </animateMotion>
</circle><path id="path18" d="M 1992.0106570181813 962.7146398164069
c 0 35.48958170447757 -8.683621055350894 10.193816021498877 -18.877437076849773 10.193816021498877
S 1954.255782864482 998.2042215208845 1954.255782864482 962.7146398164069
s 8.683621055350894 -10.193816021498877 18.877437076849773 -10.193816021498877
S 1992.0106570181813 927.2250581119293 1992.0106570181813 962.7146398164069
z" fill="none" stroke="none"></path>
<circle cx="0" cy="0" r="8.953793387468549" fill="#9df871">
  <animateMotion begin="-14.154716462686011s" dur="20s" repeatCount="indefinite">
    <mpath xlink:href="#path18"></mpath>
  </animateMotion>
</circle><path id="path19" d="M 2264.8572474843018 910.5344610978008
c 0 28.594201835975664 -6.996453640717449 8.21322818692918 -15.209681827646628 8.21322818692918
S 2234.437883829008 939.1286629337765 2234.437883829008 910.5344610978008
s 6.996453640717449 -8.21322818692918 15.209681827646628 -8.21322818692918
S 2264.8572474843018 881.9402592618251 2264.8572474843018 910.5344610978008
z" fill="none" stroke="none"></path>
<circle cx="0" cy="0" r="7.432538925710353" fill="#51cacc">
  <animateMotion begin="-0.4102022581207443s" dur="20s" repeatCount="indefinite">
    <mpath xlink:href="#path19"></mpath>
  </animateMotion>
</circle><path id="path20" d="M 2803.417384095075 1950.4437159614836
c 0 23.01640765107644 -5.631674212497426 6.611095814670893 -12.24277002716832 6.611095814670893
S 2778.9318440407383 1973.46012361256 2778.9318440407383 1950.4437159614836
s 5.631674212497426 -6.611095814670893 12.24277002716832 -6.611095814670893
S 2803.417384095075 1927.4273083104072 2803.417384095075 1950.4437159614836
z" fill="none" stroke="none"></path>
<circle cx="0" cy="0" r="8.869498276741014" fill="#ff708e">
  <animateMotion begin="-0.07009698580364487s" dur="20s" repeatCount="indefinite">
    <mpath xlink:href="#path20"></mpath>
  </animateMotion>
</circle><path id="path21" d="M 2557.1528073698983 1711.0659139750123
c 0 22.81179948827724 -5.581610513089112 6.552325384930698 -12.13393589801981 6.552325384930698
S 2532.8849355738585 1733.8777134632896 2532.8849355738585 1711.0659139750123
s 5.581610513089112 -6.552325384930698 12.13393589801981 -6.552325384930698
S 2557.1528073698983 1688.254114486735 2557.1528073698983 1711.0659139750123
z" fill="none" stroke="none"></path>
<circle cx="0" cy="0" r="10.389406255299924" fill="#e0ff77">
  <animateMotion begin="-17.416022748888576s" dur="20s" repeatCount="indefinite">
    <mpath xlink:href="#path21"></mpath>
  </animateMotion>
</circle><path id="path22" d="M 702.8905707459206 187.48042487369187
c 0 27.553648015579512 -6.741850046365199 7.914345706602625 -14.656195752967825 7.914345706602625
S 673.5781792399849 215.03407288927139 673.5781792399849 187.48042487369187
s 6.741850046365199 -7.914345706602625 14.656195752967825 -7.914345706602625
S 702.8905707459206 159.92677685811236 702.8905707459206 187.48042487369187
z" fill="none" stroke="none"></path>
<circle cx="0" cy="0" r="6.978128246880905" fill="#e0ff77">
  <animateMotion begin="-13.977881244027921s" dur="20s" repeatCount="indefinite">
    <mpath xlink:href="#path22"></mpath>
  </animateMotion>
</circle><path id="path23" d="M 2501.2982684445924 239.62721062989698
c 0 32.19881156842112 -7.878432617805167 9.248594812206067 -17.127027430011236 9.248594812206067
S 2467.0442135845697 271.8260221983181 2467.0442135845697 239.62721062989698
s 7.878432617805167 -9.248594812206067 17.127027430011236 -9.248594812206067
S 2501.2982684445924 207.42839906147586 2501.2982684445924 239.62721062989698
z" fill="none" stroke="none"></path>
<circle cx="0" cy="0" r="7.6281325267568665" fill="#9df871">
  <animateMotion begin="-18.605650255381516s" dur="20s" repeatCount="indefinite">
    <mpath xlink:href="#path23"></mpath>
  </animateMotion>
</circle><path id="path24" d="M 2969.363772755748 1577.9759368638474
c 0 28.868651230331857 -7.0636061521024756 8.292059395946385 -15.35566554804886 8.292059395946385
S 2938.6524416596503 1606.8445880941792 2938.6524416596503 1577.9759368638474
s 7.0636061521024756 -8.292059395946385 15.35566554804886 -8.292059395946385
S 2969.363772755748 1549.1072856335156 2969.363772755748 1577.9759368638474
z" fill="none" stroke="none"></path>
<circle cx="0" cy="0" r="8.669189284235634" fill="#ff708e">
  <animateMotion begin="-5.974023593625768s" dur="20s" repeatCount="indefinite">
    <mpath xlink:href="#path24"></mpath>
  </animateMotion>
</circle><path id="path25" d="M 1282.3606049420428 983.4865169909848
c 0 26.388359614995345 -6.456726288775456 7.579635208562492 -14.036361497337948 7.579635208562492
S 1254.2878819473667 1009.8748766059801 1254.2878819473667 983.4865169909848
s 6.456726288775456 -7.579635208562492 14.036361497337948 -7.579635208562492
S 1282.3606049420428 957.0981573759894 1282.3606049420428 983.4865169909848
z" fill="none" stroke="none"></path>
<circle cx="0" cy="0" r="5.617842427953899" fill="#51cacc">
  <animateMotion begin="-14.803259916276918s" dur="20s" repeatCount="indefinite">
    <mpath xlink:href="#path25"></mpath>
  </animateMotion>
</circle><path id="path26" d="M 346.868873417475 998.1474473530477
c 0 24.4575798923642 -5.984301463025282 7.025049543551419 -13.0093510065767 7.025049543551419
S 320.8501714043216 1022.6050272454119 320.8501714043216 998.1474473530477
s 5.984301463025282 -7.025049543551419 13.0093510065767 -7.025049543551419
S 346.868873417475 973.6898674606836 346.868873417475 998.1474473530477
z" fill="none" stroke="none"></path>
<circle cx="0" cy="0" r="10.283134269668052" fill="#9df871">
  <animateMotion begin="-14.894270520650409s" dur="20s" repeatCount="indefinite">
    <mpath xlink:href="#path26"></mpath>
  </animateMotion>
</circle><path id="path27" d="M 2524.975896832769 1872.4873911589882
c 0 27.895612105485608 -6.825522110916691 8.012569434554377 -14.838091545471068 8.012569434554377
S 2495.2997137418274 1900.3830032644737 2495.2997137418274 1872.4873911589882
s 6.825522110916691 -8.012569434554377 14.838091545471068 -8.012569434554377
S 2524.975896832769 1844.5917790535027 2524.975896832769 1872.4873911589882
z" fill="none" stroke="none"></path>
<circle cx="0" cy="0" r="8.806183631704558" fill="#e0ff77">
  <animateMotion begin="-13.479097531188964s" dur="20s" repeatCount="indefinite">
    <mpath xlink:href="#path27"></mpath>
  </animateMotion>
</circle><path id="path28" d="M 481.3266328818262 631.7721165118448
c 0 37.19685654711734 -9.101358516847858 10.684203476299661 -19.78556199314752 10.684203476299661
S 441.7555088955312 668.9689730589622 441.7555088955312 631.7721165118448
s 9.101358516847858 -10.684203476299661 19.78556199314752 -10.684203476299661
S 481.3266328818262 594.5752599647275 481.3266328818262 631.7721165118448
z" fill="none" stroke="none"></path>
<circle cx="0" cy="0" r="10.414993811000343" fill="#e0ff77">
  <animateMotion begin="-18.061701785659476s" dur="20s" repeatCount="indefinite">
    <mpath xlink:href="#path28"></mpath>
  </animateMotion>
</circle><path id="path29" d="M 1866.01086600349 1457.1871855169918
c 0 20.812571909446625 -5.092437807630557 5.97807916547935 -11.070516973109907 5.97807916547935
S 1843.86983205727 1477.9997574264385 1843.86983205727 1457.1871855169918
s 5.092437807630557 -5.97807916547935 11.070516973109907 -5.97807916547935
S 1866.01086600349 1436.3746136075451 1866.01086600349 1457.1871855169918
z" fill="none" stroke="none"></path>
<circle cx="0" cy="0" r="9.121051223616305" fill="#e0ff77">
  <animateMotion begin="-11.28922043325347s" dur="20s" repeatCount="indefinite">
    <mpath xlink:href="#path29"></mpath>
  </animateMotion>
</circle><path id="path30" d="M 1695.4267634735793 1596.4012860305652
c 0 23.93281529831147 -5.855901615544296 6.87431928781287 -12.730220903357166 6.87431928781287
S 1669.966321666865 1620.3341013288766 1669.966321666865 1596.4012860305652
s 5.855901615544296 -6.87431928781287 12.730220903357166 -6.87431928781287
S 1695.4267634735793 1572.4684707322538 1695.4267634735793 1596.4012860305652
z" fill="none" stroke="none"></path>
<circle cx="0" cy="0" r="9.889034456657292" fill="#e0ff77">
  <animateMotion begin="-7.75701341777995s" dur="20s" repeatCount="indefinite">
    <mpath xlink:href="#path30"></mpath>
  </animateMotion>
</circle><path id="path31" d="M 2161.376792479873 82.07280462560377
c 0 36.199800568324136 -8.857398011398457 10.39781505685906 -19.255213068257518 10.39781505685906
S 2122.866366343358 118.2726051939279 2122.866366343358 82.07280462560377
s 8.857398011398457 -10.39781505685906 19.255213068257518 -10.39781505685906
S 2161.376792479873 45.87300405727963 2161.376792479873 82.07280462560377
z" fill="none" stroke="none"></path>
<circle cx="0" cy="0" r="8.694083310321876" fill="#de9dd6">
  <animateMotion begin="-12.434535662743144s" dur="20s" repeatCount="indefinite">
    <mpath xlink:href="#path31"></mpath>
  </animateMotion>
</circle><path id="path32" d="M 250.72706260460666 731.2339065052383
c 0 23.05588448561258 -5.641333437969035 6.622434905441911 -12.263768343410945 6.622434905441911
S 226.19952591778474 754.2897909908509 226.19952591778474 731.2339065052383
s 5.641333437969035 -6.622434905441911 12.263768343410945 -6.622434905441911
S 250.72706260460666 708.1780220196258 250.72706260460666 731.2339065052383
z" fill="none" stroke="none"></path>
<circle cx="0" cy="0" r="6.888086191809897" fill="#ff708e">
  <animateMotion begin="-14.134865240650223s" dur="20s" repeatCount="indefinite">
    <mpath xlink:href="#path32"></mpath>
  </animateMotion>
</circle><path id="path33" d="M 2630.4859916079054 807.1527367707749
c 0 36.5353921724711 -8.939510850711013 10.494208389965104 -19.43371924067612 10.494208389965104
S 2591.6185531265533 843.688128943246 2591.6185531265533 807.1527367707749
s 8.939510850711013 -10.494208389965104 19.43371924067612 -10.494208389965104
S 2630.4859916079054 770.6173445983038 2630.4859916079054 807.1527367707749
z" fill="none" stroke="none"></path>
<circle cx="0" cy="0" r="8.52042162032336" fill="#e0ff77">
  <animateMotion begin="-15.883984091379649s" dur="20s" repeatCount="indefinite">
    <mpath xlink:href="#path33"></mpath>
  </animateMotion>
</circle><path id="path34" d="M 1136.4479061076318 300.31998833443566
c 0 19.66122542585169 -4.8107253701551995 5.647373260616975 -10.458098630772174 5.647373260616975
S 1115.5317088460874 319.98121376028735 1115.5317088460874 300.31998833443566
s 4.8107253701551995 -5.647373260616975 10.458098630772174 -5.647373260616975
S 1136.4479061076318 280.658762908584 1136.4479061076318 300.31998833443566
z" fill="none" stroke="none"></path>
<circle cx="0" cy="0" r="8.100181444310936" fill="#51cacc">
  <animateMotion begin="-8.868733435325005s" dur="20s" repeatCount="indefinite">
    <mpath xlink:href="#path34"></mpath>
  </animateMotion>
</circle><path id="path35" d="M 2644.983665238312 1217.4798744737016
c 0 21.02964377116931 -5.145551135498873 6.040429593846504 -11.185980729345378 6.040429593846504
S 2622.611703779621 1238.5095182448708 2622.611703779621 1217.4798744737016
s 5.145551135498873 -6.040429593846504 11.185980729345378 -6.040429593846504
S 2644.983665238312 1196.4502307025323 2644.983665238312 1217.4798744737016
z" fill="none" stroke="none"></path>
<circle cx="0" cy="0" r="10.195841749744762" fill="#9df871">
  <animateMotion begin="-13.811410470180892s" dur="20s" repeatCount="indefinite">
    <mpath xlink:href="#path35"></mpath>
  </animateMotion>
</circle><path id="path36" d="M 2352.1254440629423 1200.4054900430378
c 0 23.8423273374453 -5.833760944268531 6.848328065010885 -12.682089009279416 6.848328065010885
S 2326.7612660443833 1224.2478173804832 2326.7612660443833 1200.4054900430378
s 5.833760944268531 -6.848328065010885 12.682089009279416 -6.848328065010885
S 2352.1254440629423 1176.5631627055925 2352.1254440629423 1200.4054900430378
z" fill="none" stroke="none"></path>
<circle cx="0" cy="0" r="8.551239969052416" fill="#9df871">
  <animateMotion begin="-11.413069967758116s" dur="20s" repeatCount="indefinite">
    <mpath xlink:href="#path36"></mpath>
  </animateMotion>
</circle><path id="path37" d="M 1789.9105825263248 1241.251517053051
c 0 30.56239433949665 -7.4780326575364136 8.7785600762384 -16.256592733774813 8.7785600762384
S 1757.3973970587751 1271.8139113925477 1757.3973970587751 1241.251517053051
s 7.4780326575364136 -8.7785600762384 16.256592733774813 -8.7785600762384
S 1789.9105825263248 1210.6891227135543 1789.9105825263248 1241.251517053051
z" fill="none" stroke="none"></path>
<circle cx="0" cy="0" r="5.608311462459466" fill="#ff708e">
  <animateMotion begin="-6.293542790658799s" dur="20s" repeatCount="indefinite">
    <mpath xlink:href="#path37"></mpath>
  </animateMotion>
</circle><path id="path38" d="M 775.127551334753 1112.4853020186777
c 0 24.54075344997696 -6.0046524398879795 7.048939820738064 -13.053592260626043 7.048939820738064
S 749.0203668135009 1137.0260554686547 749.0203668135009 1112.4853020186777
s 6.0046524398879795 -7.048939820738064 13.053592260626043 -7.048939820738064
S 775.127551334753 1087.9445485687006 775.127551334753 1112.4853020186777
z" fill="none" stroke="none"></path>
<circle cx="0" cy="0" r="6.525956972485342" fill="#e0ff77">
  <animateMotion begin="-4.681470288455891s" dur="20s" repeatCount="indefinite">
    <mpath xlink:href="#path38"></mpath>
  </animateMotion>
</circle><path id="path39" d="M 2314.3485564871926 371.34612177204957
c 0 32.30438765213438 -7.904265063820114 9.278919857527962 -17.183184921348076 9.278919857527962
S 2279.9821866444963 403.65050942418395 2279.9821866444963 371.34612177204957
s 7.904265063820114 -9.278919857527962 17.183184921348076 -9.278919857527962
S 2314.3485564871926 339.0417341199152 2314.3485564871926 371.34612177204957
z" fill="none" stroke="none"></path>
<circle cx="0" cy="0" r="10.051451106914115" fill="#ff708e">
  <animateMotion begin="-17.371286788263408s" dur="20s" repeatCount="indefinite">
    <mpath xlink:href="#path39"></mpath>
  </animateMotion>
</circle><path id="path40" d="M 877.5837131206039 253.61822228525244
c 0 21.58698841808277 -5.2819226980415275 6.200517949874838 -11.482440647916366 6.200517949874838
S 854.6188318247711 275.2052107033352 854.6188318247711 253.61822228525244
s 5.2819226980415275 -6.200517949874838 11.482440647916366 -6.200517949874838
S 877.5837131206039 232.03123386716968 877.5837131206039 253.61822228525244
z" fill="none" stroke="none"></path>
<circle cx="0" cy="0" r="9.211410447902116" fill="#9df871">
  <animateMotion begin="-10.58465125299837s" dur="20s" repeatCount="indefinite">
    <mpath xlink:href="#path40"></mpath>
  </animateMotion>
</circle><path id="path41" d="M 1365.133456105596 539.9639453933421
c 0 35.66713880053176 -8.727065876725856 10.244816463982527 -18.971882340708383 10.244816463982527
S 1327.1896914241793 575.6310841938739 1327.1896914241793 539.9639453933421
s 8.727065876725856 -10.244816463982527 18.971882340708383 -10.244816463982527
S 1365.133456105596 504.29680659281036 1365.133456105596 539.9639453933421
z" fill="none" stroke="none"></path>
<circle cx="0" cy="0" r="9.507308957681582" fill="#51cacc">
  <animateMotion begin="-11.02041658608012s" dur="20s" repeatCount="indefinite">
    <mpath xlink:href="#path41"></mpath>
  </animateMotion>
</circle><path id="path42" d="M 2124.4579778097022 1156.3195986641063
c 0 24.126261766713817 -5.903234262068274 6.929883698949714 -12.833117961017988 6.929883698949714
S 2098.791741887666 1180.4458604308202 2098.791741887666 1156.3195986641063
s 5.903234262068274 -6.929883698949714 12.833117961017988 -6.929883698949714
S 2124.4579778097022 1132.1933368973923 2124.4579778097022 1156.3195986641063
z" fill="none" stroke="none"></path>
<circle cx="0" cy="0" r="5.290863931888916" fill="#de9dd6">
  <animateMotion begin="-15.964954285426945s" dur="20s" repeatCount="indefinite">
    <mpath xlink:href="#path42"></mpath>
  </animateMotion>
</circle><path id="path43" d="M 2395.6070498095846 1742.248471156343
c 0 28.257912543943146 -6.91417009053928 8.11663445411133 -15.030804544650609 8.11663445411133
S 2365.5454407202838 1770.506383700286 2365.5454407202838 1742.248471156343
s 6.91417009053928 -8.11663445411133 15.030804544650609 -8.11663445411133
S 2395.6070498095846 1713.9905586123998 2395.6070498095846 1742.248471156343
z" fill="none" stroke="none"></path>
<circle cx="0" cy="0" r="6.5075824414554875" fill="#ff708e">
  <animateMotion begin="-12.222638248817713s" dur="20s" repeatCount="indefinite">
    <mpath xlink:href="#path43"></mpath>
  </animateMotion>
</circle><path id="path44" d="M 2971.5118070901744 775.2264054347069
c 0 36.06847344769107 -8.825264779754196 10.360093437102753 -19.185358216856947 10.360093437102753
S 2933.1410906564606 811.2948788823979 2933.1410906564606 775.2264054347069
s 8.825264779754196 -10.360093437102753 19.185358216856947 -10.360093437102753
S 2971.5118070901744 739.1579319870158 2971.5118070901744 775.2264054347069
z" fill="none" stroke="none"></path>
<circle cx="0" cy="0" r="9.315945950368278" fill="#9df871">
  <animateMotion begin="-9.555939036664615s" dur="20s" repeatCount="indefinite">
    <mpath xlink:href="#path44"></mpath>
  </animateMotion>
</circle><path id="path45" d="M 613.6031681569393 1651.2108876423242
c 0 34.22253575990212 -8.3735991752952 9.829877292737843 -18.203476468033042 9.829877292737843
S 577.1962152208732 1685.4334234022263 577.1962152208732 1651.2108876423242
s 8.3735991752952 -9.829877292737843 18.203476468033042 -9.829877292737843
S 613.6031681569393 1616.9883518824222 613.6031681569393 1651.2108876423242
z" fill="none" stroke="none"></path>
<circle cx="0" cy="0" r="5.546131574189696" fill="#9df871">
  <animateMotion begin="-11.637585982708424s" dur="20s" repeatCount="indefinite">
    <mpath xlink:href="#path45"></mpath>
  </animateMotion>
</circle><path id="path46" d="M 1860.2834496637133 1603.1799389138048
c 0 33.896490267888915 -8.293822086823884 9.736225928010647 -18.03004801483453 9.736225928010647
S 1824.223353634044 1637.0764291816938 1824.223353634044 1603.1799389138048
s 8.293822086823884 -9.736225928010647 18.03004801483453 -9.736225928010647
S 1860.2834496637133 1569.2834486459158 1860.2834496637133 1603.1799389138048
z" fill="none" stroke="none"></path>
<circle cx="0" cy="0" r="6.461171515947037" fill="#ff708e">
  <animateMotion begin="-3.4431696536631318s" dur="20s" repeatCount="indefinite">
    <mpath xlink:href="#path46"></mpath>
  </animateMotion>
</circle><path id="path47" d="M 2838.773894882598 50.63758750826308
c 0 25.45488372067964 -6.2283226125067195 7.311509153812238 -13.539831766318958 7.311509153812238
S 2811.6942313499603 76.09247122894271 2811.6942313499603 50.63758750826308
s 6.2283226125067195 -7.311509153812238 13.539831766318958 -7.311509153812238
S 2838.773894882598 25.182703787583442 2838.773894882598 50.63758750826308
z" fill="none" stroke="none"></path>
<circle cx="0" cy="0" r="6.551583757866029" fill="#51cacc">
  <animateMotion begin="-14.625029647554031s" dur="20s" repeatCount="indefinite">
    <mpath xlink:href="#path47"></mpath>
  </animateMotion>
</circle><path id="path48" d="M 1954.5459920356152 306.5527393767032
c 0 28.3446674813156 -6.935397362449561 8.141553425484268 -15.076950787933828 8.141553425484268
S 1924.3920904597476 334.89740685801877 1924.3920904597476 306.5527393767032
s 6.935397362449561 -8.141553425484268 15.076950787933828 -8.141553425484268
S 1954.5459920356152 278.2080718953876 1954.5459920356152 306.5527393767032
z" fill="none" stroke="none"></path>
<circle cx="0" cy="0" r="7.316455571941829" fill="#de9dd6">
  <animateMotion begin="-5.308994244106227s" dur="20s" repeatCount="indefinite">
    <mpath xlink:href="#path48"></mpath>
  </animateMotion>
</circle><path id="path49" d="M 2053.3228428118077 1375.6371244493068
c 0 32.36084219474727 -7.918078409353054 9.295135524023152 -17.213213933376206 9.295135524023152
S 2018.8964149450555 1407.997966644054 2018.8964149450555 1375.6371244493068
s 7.918078409353054 -9.295135524023152 17.213213933376206 -9.295135524023152
S 2053.3228428118077 1343.2762822545596 2053.3228428118077 1375.6371244493068
z" fill="none" stroke="none"></path>
<circle cx="0" cy="0" r="6.257396330594653" fill="#51cacc">
  <animateMotion begin="-19.26805390767728s" dur="20s" repeatCount="indefinite">
    <mpath xlink:href="#path49"></mpath>
  </animateMotion>
</circle><path id="path50" d="M 2808.2062587643304 211.67931510882062
c 0 23.054247905854552 -5.640932998241007 6.6219648240220526 -12.26289782226306 6.6219648240220526
S 2783.6804631198047 234.73356301467516 2783.6804631198047 211.67931510882062
s 5.640932998241007 -6.6219648240220526 12.26289782226306 -6.6219648240220526
S 2808.2062587643304 188.62506720296608 2808.2062587643304 211.67931510882062
z" fill="none" stroke="none"></path>
<circle cx="0" cy="0" r="6.17713222618586" fill="#e0ff77">
  <animateMotion begin="-8.666115351321363s" dur="20s" repeatCount="indefinite">
    <mpath xlink:href="#path50"></mpath>
  </animateMotion>
</circle><path id="path51" d="M 2521.542326967334 1061.313723540953
c 0 26.792583808631548 -6.555632208494953 7.695742157798424 -14.251374366293376 7.695742157798424
S 2493.039578234747 1088.1063073495848 2493.039578234747 1061.313723540953
s 6.555632208494953 -7.695742157798424 14.251374366293376 -7.695742157798424
S 2521.542326967334 1034.5211397323214 2521.542326967334 1061.313723540953
z" fill="none" stroke="none"></path>
<circle cx="0" cy="0" r="6.7053812604150105" fill="#e0ff77">
  <animateMotion begin="-12.67719115868494s" dur="20s" repeatCount="indefinite">
    <mpath xlink:href="#path51"></mpath>
  </animateMotion>
</circle><path id="path52" d="M 2226.299685819128 80.85683701442902
c 0 28.217274419085037 -6.9042267195633595 8.104961801226553 -15.009188520789913 8.104961801226553
S 2196.2813087775485 109.07411143351405 2196.2813087775485 80.85683701442902
s 6.9042267195633595 -8.104961801226553 15.009188520789913 -8.104961801226553
S 2226.299685819128 52.63956259534398 2226.299685819128 80.85683701442902
z" fill="none" stroke="none"></path>
<circle cx="0" cy="0" r="9.666856278199855" fill="#51cacc">
  <animateMotion begin="-2.9324734649525785s" dur="20s" repeatCount="indefinite">
    <mpath xlink:href="#path52"></mpath>
  </animateMotion>
</circle><path id="path53" d="M 1783.6579346259969 438.5752833575367
c 0 33.03549542797083 -8.083153136631159 9.488918899523537 -17.572072036154694 9.488918899523537
S 1748.5137905536876 471.61077878550753 1748.5137905536876 438.5752833575367
s 8.083153136631159 -9.488918899523537 17.572072036154694 -9.488918899523537
S 1783.6579346259969 405.5397879295659 1783.6579346259969 438.5752833575367
z" fill="none" stroke="none"></path>
<circle cx="0" cy="0" r="10.28398648950308" fill="#51cacc">
  <animateMotion begin="-5.604767520504721s" dur="20s" repeatCount="indefinite">
    <mpath xlink:href="#path53"></mpath>
  </animateMotion>
</circle><path id="path54" d="M 2396.568443811999 64.42626208474431
c 0 32.91291231750403 -8.053159396836092 9.453708857155414 -17.506868253991506 9.453708857155414
S 2361.554707304016 97.33917440224835 2361.554707304016 64.42626208474431
s 8.053159396836092 -9.453708857155414 17.506868253991506 -9.453708857155414
S 2396.568443811999 31.51334976724028 2396.568443811999 64.42626208474431
z" fill="none" stroke="none"></path>
<circle cx="0" cy="0" r="10.289808176923577" fill="#9df871">
  <animateMotion begin="-16.441097478456193s" dur="20s" repeatCount="indefinite">
    <mpath xlink:href="#path54"></mpath>
  </animateMotion>
</circle><path id="path55" d="M 1831.116869782839 483.4353473234669
c 0 37.47879427226176 -9.170343279383195 10.765185588841144 -19.93552886822434 10.765185588841144
S 1791.2458120463905 520.9141415957287 1791.2458120463905 483.4353473234669
s 9.170343279383195 -10.765185588841144 19.93552886822434 -10.765185588841144
S 1831.116869782839 445.9565530512051 1831.116869782839 483.4353473234669
z" fill="none" stroke="none"></path>
<circle cx="0" cy="0" r="9.825303426372853" fill="#51cacc">
  <animateMotion begin="-19.40091855503548s" dur="20s" repeatCount="indefinite">
    <mpath xlink:href="#path55"></mpath>
  </animateMotion>
</circle><path id="path56" d="M 754.4037353723778 1837.3986958738171
c 0 27.39578729793117 -6.703224551621456 7.869002734512145 -14.5722272861336 7.869002734512145
S 725.2592808001106 1864.7944831717482 725.2592808001106 1837.3986958738171
s 6.703224551621456 -7.869002734512145 14.5722272861336 -7.869002734512145
S 754.4037353723778 1810.002908575886 754.4037353723778 1837.3986958738171
z" fill="none" stroke="none"></path>
<circle cx="0" cy="0" r="5.600088997166509" fill="#ff708e">
  <animateMotion begin="-6.64535785713049s" dur="20s" repeatCount="indefinite">
    <mpath xlink:href="#path56"></mpath>
  </animateMotion>
</circle><path id="path57" d="M 2860.2644265248146 1850.0293923061645
c 0 34.977846304331884 -8.558409202123759 10.046828193797456 -18.605237395921215 10.046828193797456
S 2823.0539517329726 1885.0072386104964 2823.0539517329726 1850.0293923061645
s 8.558409202123759 -10.046828193797456 18.605237395921215 -10.046828193797456
S 2860.2644265248146 1815.0515460018325 2860.2644265248146 1850.0293923061645
z" fill="none" stroke="none"></path>
<circle cx="0" cy="0" r="8.758844687239463" fill="#9df871">
  <animateMotion begin="-17.699319053957435s" dur="20s" repeatCount="indefinite">
    <mpath xlink:href="#path57"></mpath>
  </animateMotion>
</circle><path id="path58" d="M 2776.798778421238 866.7536749869423
c 0 34.59636251874853 -8.465067424800171 9.937253063895854 -18.402320488696024 9.937253063895854
S 2739.9941374438454 901.3500375056908 2739.9941374438454 866.7536749869423
s 8.465067424800171 -9.937253063895854 18.402320488696024 -9.937253063895854
S 2776.798778421238 832.1573124681938 2776.798778421238 866.7536749869423
z" fill="none" stroke="none"></path>
<circle cx="0" cy="0" r="7.625066562161475" fill="#ff708e">
  <animateMotion begin="-12.033752269896683s" dur="20s" repeatCount="indefinite">
    <mpath xlink:href="#path58"></mpath>
  </animateMotion>
</circle><path id="path59" d="M 1412.9455869030405 1706.6333821054072
c 0 21.894207634689952 -5.357093357424136 6.288761767410944 -11.64585512483508 6.288761767410944
S 1389.6538766533702 1728.5275897400973 1389.6538766533702 1706.6333821054072
s 5.357093357424136 -6.288761767410944 11.64585512483508 -6.288761767410944
S 1412.9455869030405 1684.7391744707172 1412.9455869030405 1706.6333821054072
z" fill="none" stroke="none"></path>
<circle cx="0" cy="0" r="8.033188884004899" fill="#ff708e">
  <animateMotion begin="-12.352049079622446s" dur="20s" repeatCount="indefinite">
    <mpath xlink:href="#path59"></mpath>
  </animateMotion>
</circle><path id="path60" d="M 596.2363359935277 525.4878771667292
c 0 37.264668581108054 -9.117950823037077 10.703681400956569 -19.821632223993646 10.703681400956569
S 556.5930715455404 562.7525457478372 556.5930715455404 525.4878771667292
s 9.117950823037077 -10.703681400956569 19.821632223993646 -10.703681400956569
S 596.2363359935277 488.22320858562114 596.2363359935277 525.4878771667292
z" fill="none" stroke="none"></path>
<circle cx="0" cy="0" r="9.301707254630653" fill="#51cacc">
  <animateMotion begin="-16.452267473252224s" dur="20s" repeatCount="indefinite">
    <mpath xlink:href="#path60"></mpath>
  </animateMotion>
</circle><path id="path61" d="M 288.0297480349893 1716.145977508344
c 0 26.65999387420637 -6.523189990497302 7.657657814931618 -14.18084780542892 7.657657814931618
S 259.6680524241315 1742.8059713825503 259.6680524241315 1716.145977508344
s 6.523189990497302 -7.657657814931618 14.18084780542892 -7.657657814931618
S 288.0297480349893 1689.4859836341377 288.0297480349893 1716.145977508344
z" fill="none" stroke="none"></path>
<circle cx="0" cy="0" r="6.918894022816619" fill="#e0ff77">
  <animateMotion begin="-10.75736902959859s" dur="20s" repeatCount="indefinite">
    <mpath xlink:href="#path61"></mpath>
  </animateMotion>
</circle><path id="path62" d="M 2680.0071317475786 485.46431661104367
c 0 31.1571183915756 -7.6235502447472205 8.949385069920652 -16.572935314667873 8.949385069920652
S 2646.8612611182425 516.6214350026193 2646.8612611182425 485.46431661104367
s 7.6235502447472205 -8.949385069920652 16.572935314667873 -8.949385069920652
S 2680.0071317475786 454.3071982194681 2680.0071317475786 485.46431661104367
z" fill="none" stroke="none"></path>
<circle cx="0" cy="0" r="9.648979017818762" fill="#ff708e">
  <animateMotion begin="-6.23465263463185s" dur="20s" repeatCount="indefinite">
    <mpath xlink:href="#path62"></mpath>
  </animateMotion>
</circle><path id="path63" d="M 2432.3179232069865 1026.276053491267
c 0 32.42005095387834 -7.932565658927678 9.312142295262928 -17.244707954190606 9.312142295262928
S 2397.828507298605 1058.6961044451455 2397.828507298605 1026.276053491267
s 7.932565658927678 -9.312142295262928 17.244707954190606 -9.312142295262928
S 2432.3179232069865 993.8560025373887 2432.3179232069865 1026.276053491267
z" fill="none" stroke="none"></path>
<circle cx="0" cy="0" r="6.51075915308107" fill="#e0ff77">
  <animateMotion begin="-19.268042413656776s" dur="20s" repeatCount="indefinite">
    <mpath xlink:href="#path63"></mpath>
  </animateMotion>
</circle><path id="path64" d="M 1612.062963445236 1799.3012400718167
c 0 21.068144281551618 -5.154971473145608 6.051488251083975 -11.206459724229582 6.051488251083975
S 1589.650043996777 1820.3693843533683 1589.650043996777 1799.3012400718167
s 5.154971473145608 -6.051488251083975 11.206459724229582 -6.051488251083975
S 1612.062963445236 1778.233095790265 1612.062963445236 1799.3012400718167
z" fill="none" stroke="none"></path>
<circle cx="0" cy="0" r="9.836819794048985" fill="#e0ff77">
  <animateMotion begin="-9.314203090138564s" dur="20s" repeatCount="indefinite">
    <mpath xlink:href="#path64"></mpath>
  </animateMotion>
</circle><path id="path65" d="M 908.155266925358 1891.3732616116786
c 0 20.231924851206415 -4.950364591252633 5.811297563644396 -10.76166215489703 5.811297563644396
S 886.6319426155638 1911.605186462885 886.6319426155638 1891.3732616116786
s 4.950364591252633 -5.811297563644396 10.76166215489703 -5.811297563644396
S 908.155266925358 1871.141336760472 908.155266925358 1891.3732616116786
z" fill="none" stroke="none"></path>
<circle cx="0" cy="0" r="8.665073549777949" fill="#9df871">
  <animateMotion begin="-13.596814637775942s" dur="20s" repeatCount="indefinite">
    <mpath xlink:href="#path65"></mpath>
  </animateMotion>
</circle><path id="path66" d="M 1772.5577000602284 1496.643174008813
c 0 22.903584556140437 -5.60406856160883 6.578689181019062 -12.182757742627892 6.578689181019062
S 1748.1921845749725 1519.5467585649535 1748.1921845749725 1496.643174008813
s 5.60406856160883 -6.578689181019062 12.182757742627892 -6.578689181019062
S 1772.5577000602284 1473.7395894526726 1772.5577000602284 1496.643174008813
z" fill="none" stroke="none"></path>
<circle cx="0" cy="0" r="5.988215270317296" fill="#de9dd6">
  <animateMotion begin="-17.724128997195248s" dur="20s" repeatCount="indefinite">
    <mpath xlink:href="#path66"></mpath>
  </animateMotion>
</circle><path id="path67" d="M 960.8028594205773 1487.7705466019509
c 0 34.35048910155684 -8.404906907827737 9.86662984831952 -18.271536756147256 9.86662984831952
S 924.2597859082828 1522.1210357035077 924.2597859082828 1487.7705466019509
s 8.404906907827737 -9.86662984831952 18.271536756147256 -9.86662984831952
S 960.8028594205773 1453.420057500394 960.8028594205773 1487.7705466019509
z" fill="none" stroke="none"></path>
<circle cx="0" cy="0" r="8.602652416541899" fill="#e0ff77">
  <animateMotion begin="-14.89708446188738s" dur="20s" repeatCount="indefinite">
    <mpath xlink:href="#path67"></mpath>
  </animateMotion>
</circle><path id="path68" d="M 1616.3849517424762 1018.3917728909089
c 0 32.78265270343722 -8.021287363606978 9.416293861625585 -17.437581225232563 9.416293861625585
S 1581.509789292011 1051.174425594346 1581.509789292011 1018.3917728909089
s 8.021287363606978 -9.416293861625585 17.437581225232563 -9.416293861625585
S 1616.3849517424762 985.6091201874717 1616.3849517424762 1018.3917728909089
z" fill="none" stroke="none"></path>
<circle cx="0" cy="0" r="10.120852160224569" fill="#e0ff77">
  <animateMotion begin="-11.568451300214242s" dur="20s" repeatCount="indefinite">
    <mpath xlink:href="#path68"></mpath>
  </animateMotion>
</circle><path id="path69" d="M 1154.4804468663856 1184.5089745518846
c 0 19.166234369525995 -4.689610537224445 5.505194978480871 -10.194805515705315 5.505194978480871
S 1134.0908358349748 1203.6752089214106 1134.0908358349748 1184.5089745518846
s 4.689610537224445 -5.505194978480871 10.194805515705315 -5.505194978480871
S 1154.4804468663856 1165.3427401823587 1154.4804468663856 1184.5089745518846
z" fill="none" stroke="none"></path>
<circle cx="0" cy="0" r="8.076640183415648" fill="#ff708e">
  <animateMotion begin="-5.853480280123298s" dur="20s" repeatCount="indefinite">
    <mpath xlink:href="#path69"></mpath>
  </animateMotion>
</circle></g>
</svg>