<svg height="512" viewBox="0 0 64 64" width="512" xmlns="http://www.w3.org/2000/svg"><g id="Filled_outline" data-name="Filled outline"><path d="m19 3v8h-8v46h38v-54z" fill="#f4f4e6"/><path d="m19 11h-8l8-8z" fill="#d8d7bc"/><path d="m11 57v-46l6-6h-10v56h40v-4z" fill="#b7b492"/><path d="m14 47h18v2h-18z" fill="#195c85"/><path d="m14 43h8v2h-8z" fill="#195c85"/><path d="m24 43h5v2h-5z" fill="#195c85"/><path d="m31 43h11v2h-11z" fill="#195c85"/><path d="m34 47h10v2h-10z" fill="#195c85"/><path d="m40 6h2v2h-2z" fill="#d8d7bc"/><path d="m44 6h2v2h-2z" fill="#d8d7bc"/><path d="m44.879 32.222h4.243v15.556h-4.243z" fill="#d3843d" transform="matrix(.707 -.707 .707 .707 -14.518 44.95)"/><path d="m51.879 44.879h4.243v4.243h-4.243z" fill="#ffd782" transform="matrix(.707 -.707 .707 .707 -17.418 51.95)"/><g fill="#195c85"><path d="m14 39h10v2h-10z"/><path d="m14 35h6v2h-6z"/><path d="m14 31h5v2h-5z"/><path d="m14 27h4v2h-4z"/><path d="m14 23h5v2h-5z"/><path d="m14 19h6v2h-6z"/><path d="m14 15h9v2h-9z"/></g><circle cx="34" cy="27" fill="#394d5c" r="13"/><circle cx="34" cy="27" fill="#50b4f8" r="9"/><path d="m14 47h18v2h-18z"/><path d="m14 43h8v2h-8z"/><path d="m24 43h5v2h-5z"/><path d="m31 43h11v2h-11z"/><path d="m34 47h10v2h-10z"/><path d="m40 6h2v2h-2z"/><path d="m44 6h2v2h-2z"/><path d="m34 17a10 10 0 1 0 10 10 10.011 10.011 0 0 0 -10-10zm0 18a8 8 0 1 1 8-8 8.009 8.009 0 0 1 -8 8z"/><path d="m34 21v2a4.124 4.124 0 0 1 4.02 3.2l1.96-.4a6.078 6.078 0 0 0 -5.98-4.8z"/><path d="m49 2h-30a.994.994 0 0 0 -.708.294l-1.706 1.706h-10.586v58h42v-4h1a1 1 0 0 0 1-1v-9.586l3.293 3.293a1 1 0 0 0 1.414 0l3-3a1 1 0 0 0 0-1.414l-7.707-7.707v-35.586a1 1 0 0 0 -1-1zm-31 3.414v4.586h-4.586zm28 54.586h-38v-54h6.586l-4.292 4.292a.994.994 0 0 0 -.294.708v46a1 1 0 0 0 1 1h35zm2-4h-36v-44h7a1 1 0 0 0 1-1v-7h28v32.586l-2.156-2.156a14.049 14.049 0 1 0 -4.414 4.414l6.57 6.57zm-14-17a12 12 0 1 1 12-12 12.013 12.013 0 0 1 -12 12zm21.586 8-1.586 1.586-1.586-1.586 1.586-1.586zm-3-3-1.586 1.586-7.936-7.936a14.139 14.139 0 0 0 1.586-1.586z"/><path d="m14 39h10v2h-10z"/><path d="m14 35h6v2h-6z"/><path d="m14 31h5v2h-5z"/><path d="m14 27h4v2h-4z"/><path d="m14 23h5v2h-5z"/><path d="m14 19h6v2h-6z"/><path d="m14 15h9v2h-9z"/><path d="m38 28h2v2h-2z"/></g></svg>