<?xml version="1.0" encoding="UTF-8"?>
<svg xmlns="http://www.w3.org/2000/svg" xmlns:xlink="http://www.w3.org/1999/xlink" width="512" height="512" viewBox="0 0 60 60" version="1.1"><!-- Generator: Sketch 51.3 (57544) - http://www.bohemiancoding.com/sketch --><title>033 - Insurance</title><desc>Created with Sketch.</desc><defs/><g id="Page-1" stroke="none" stroke-width="1" fill="none" fill-rule="evenodd"><g id="033---Insurance" fill-rule="nonzero"><path d="M45,7.84 L45,23.25 C45.0010449,26.4633349 43.4567954,29.4811333 40.85,31.36 L30.49,38.84 C30.1970806,39.0499915 29.8029194,39.0499915 29.51,38.84 L28.5,38.11 L19.15,31.36 C16.5432046,29.4811333 14.9989551,26.4633349 15,23.25 L15,7.84 C14.9975673,7.65316806 15.1081496,7.48334522 15.28,7.41 L28.5,1.61 L29.81,1.04 C29.9317307,0.989990991 30.0682693,0.989990991 30.19,1.04 L44.72,7.41 C44.8918504,7.48334522 45.0024327,7.65316806 45,7.84 Z" id="Shape" fill="#6A1B9A"/><path d="M42,7.84 L42,23.25 C42.0010449,26.4633349 40.4567954,29.4811333 37.85,31.36 L28.5,38.11 L19.15,31.36 C16.5432046,29.4811333 14.9989551,26.4633349 15,23.25 L15,7.84 C14.9975673,7.65316806 15.1081496,7.48334522 15.28,7.41 L28.5,1.61 L41.72,7.41 C41.8918504,7.48334522 42.0024327,7.65316806 42,7.84 Z" id="Shape" fill="#9D27B0"/><path d="M21.513,27.822 C19.9372789,26.6710219 19.0040283,24.8383153 19,22.887 L19,9.859 L30,5 L41,9.859 L41,22.887 C40.9969405,24.8385487 40.0634797,26.6716681 38.487,27.822 L30,34 L21.513,27.822 Z" id="Shape" fill="#E91E63"/><path d="M14.316,41.738 L9.748,37.169 C8.7681854,36.1891673 7.98418578,35.0314951 7.438,33.758 L5.2,28.539 C4.85513073,27.7350887 4.06476152,27.213681 3.19,27.213 C2.44646337,27.2140738 1.75430881,27.5925026 1.35209231,28.2178583 C0.949875811,28.843214 0.892597968,29.6299831 1.2,30.307 L5.119,38.929 C5.59961649,39.9858913 6.26620497,40.9478381 7.087,41.769 L14.316,49 L24,49 L24,46.139 C24.0326513,43.9976631 23.3373789,41.908673 22.028,40.214 C21.2961932,39.248342 20.2994007,38.5162954 19.159,38.107 C16.9390106,37.1700159 14.8927151,35.8657688 13.106,34.249 C11.6792055,33.057914 9.57863147,33.1551709 8.268,34.473" id="Shape" fill="#FFE0B2"/><path d="M45.682,41.738 L50.251,37.169 C51.2308146,36.1891673 52.0148142,35.0314951 52.561,33.758 L54.8,28.539 C55.1451559,27.7344212 55.9365118,27.2128815 56.812,27.213 C57.5551814,27.2147517 58.2467117,27.5934549 58.6484508,28.2186967 C59.0501899,28.8439386 59.107257,29.6303059 58.8,30.307 L54.881,38.929 C54.4003835,39.9858913 53.733795,40.9478381 52.913,41.769 L45.682,49 L36,49 L36,46.139 C35.9676344,43.997544 36.6632634,41.9085416 37.973,40.214 C38.7048068,39.248342 39.7015993,38.5162954 40.842,38.107 C43.0616805,37.1700017 45.1076446,35.8657503 46.894,34.249 C48.3212824,33.0582638 50.4218253,33.1554991 51.733,34.473" id="Shape" fill="#FFE0B2"/><path d="M59,29.4 C59.0009441,29.7143373 58.9326608,30.0250265 58.8,30.31 L54.88,38.93 C54.3996589,39.9875432 53.7322829,40.9496488 52.91,41.77 L45.68,49 L42.68,49 L49.91,41.77 C50.7322829,40.9496488 51.3996589,39.9875432 51.88,38.93 L55.8,30.31 C55.9326608,30.0250265 56.0009441,29.7143373 56,29.4 C55.9972659,28.7979102 55.7478853,28.2232506 55.31,27.81 C55.7130471,27.4226974 56.2510331,27.2075031 56.81,27.21 C58.0172285,27.215475 58.994525,28.1927715 59,29.4 Z" id="Shape" fill="#DFC49C"/><rect id="Rectangle-path" fill="#283593" x="34" y="49" width="13" height="10" rx="1"/><rect id="Rectangle-path" fill="#3F51B5" x="34" y="49" width="10" height="10" rx="1"/><rect id="Rectangle-path" fill="#3F51B5" x="12.999" y="49" width="13" height="10" rx="1"/><path d="M30,40 C29.6146018,39.9999459 29.2390693,39.8781516 28.927,39.652 L18.56,32.175 C15.7009077,30.1074701 14.0054212,26.7953225 14,23.267 L14,7.566 C14.0002048,7.16856483 14.2357446,6.80897404 14.6,6.65 L29.6,0.084 C29.8550505,-0.027313148 30.1449495,-0.027313148 30.4,0.084 L45.4,6.65 C45.7642554,6.80897404 45.9997952,7.16856483 46,7.566 L46,23.266 C45.9945788,26.7943225 44.2990923,30.1064701 41.44,32.174 L31.073,39.653 C30.7606229,39.8784272 30.3852231,39.9998286 30,40 Z M16,8.22 L16,23.267 C16.0045804,26.1529088 17.3914472,28.8619467 19.73,30.553 L30,37.96 L40.27,30.553 C42.6085528,28.8619467 43.9954196,26.1529088 44,23.267 L44,8.22 L30,2.092 L16,8.22 Z" id="Shape" fill="#000000"/><path d="M30,35.262 C29.7899918,35.2619903 29.5853166,35.1958645 29.415,35.073 L20.9,28.931 C19.0814764,27.6168612 18.003086,25.5106532 18,23.267 L18,10.182 C18.0002048,9.78456483 18.2357446,9.42497404 18.6,9.266 L29.6,4.45 C29.8550505,4.33868685 30.1449495,4.33868685 30.4,4.45 L41.4,9.266 C41.7642554,9.42497404 41.9997952,9.78456483 42,10.182 L42,23.267 C41.996914,25.5106532 40.9185236,27.6168612 39.1,28.931 L30.585,35.073 C30.4146834,35.1958645 30.2100082,35.2619903 30,35.262 Z M22.07,27.309 L30,33.029 L37.93,27.309 C39.2273464,26.3707907 39.9969382,24.8680418 40,23.267 L40,10.835 L30,6.458 L20,10.835 L20,23.267 C20.0030618,24.8680418 20.7726536,26.3707907 22.07,27.309 Z" id="Shape" fill="#000000"/><path d="M24,50 L14.317,50 C14.0518052,49.9999434 13.7974927,49.8945494 13.61,49.707 L6.379,42.476 C5.47222588,41.5708311 4.7367119,40.509062 4.208,39.342 L0.289,30.721 C-0.170979487,29.6790349 -0.0401362855,28.4708233 0.632242236,27.5514868 C1.30462076,26.6321504 2.4163843,26.1413582 3.54874229,26.2639868 C4.68110027,26.3866155 5.66202057,27.1040349 6.122,28.146 L8.285,33.2 C9.97209876,32.0843933 12.1899728,32.2016788 13.75,33.489 C15.4318729,35.0350529 17.3688382,36.278094 19.475,37.163 C20.7993346,37.6308906 21.9578989,38.475916 22.808,39.594 C24.2568987,41.4654837 25.0295064,43.7723804 25,46.139 L25,49 C25,49.5522847 24.5522847,50 24,50 Z M14.731,48 L23,48 L23,46.139 C23.0301832,44.2251802 22.412398,42.3573757 21.247,40.839 C20.6352544,40.0239652 19.7996453,39.4044679 18.842,39.056 C16.4918904,38.0996763 14.3313425,36.731555 12.462,35.016 C11.5268309,34.2454194 10.1833362,34.2230209 9.223,34.962 C9.5836624,35.5013381 9.99666328,36.0037722 10.456,36.462 L15.024,41.031 C15.2839566,41.2820745 15.3882126,41.6538779 15.2966972,42.0035073 C15.2051817,42.3531368 14.9321368,42.6261817 14.5825073,42.7176972 C14.2328779,42.8092126 13.8610745,42.7049566 13.61,42.445 L9.042,37.876 C7.97024427,36.8075456 7.11402167,35.5429028 6.52,34.151 L4.283,28.934 C4.09651136,28.4964366 3.66664654,28.2126156 3.191,28.213 C2.78682049,28.2131465 2.41039441,28.4186059 2.19163714,28.7584681 C1.97287988,29.0983304 1.94175327,29.5260467 2.109,29.894 L6.028,38.515 C6.45820511,39.463331 7.05613326,40.3261769 7.793,41.062 L14.731,48 Z" id="Shape" fill="#000000"/><path d="M25,60 L14,60 C12.8954305,60 12,59.1045695 12,58 L12,50 C12,48.8954305 12.8954305,48 14,48 L25,48 C26.1045695,48 27,48.8954305 27,50 L27,58 C27,59.1045695 26.1045695,60 25,60 Z M14,50 L14,58 L25,58 L25,50 L14,50 Z" id="Shape" fill="#000000"/><path d="M22,55 L21,55 C20.4477153,55 20,54.5522847 20,54 C20,53.4477153 20.4477153,53 21,53 L22,53 C22.5522847,53 23,53.4477153 23,54 C23,54.5522847 22.5522847,55 22,55 Z" id="Shape" fill="#000000"/><path d="M45.683,50 L36,50 C35.4477153,50 35,49.5522847 35,49 L35,46.139 C34.9693601,43.7706727 35.7420289,41.4618312 37.192,39.589 C38.0421011,38.470916 39.2006654,37.6258906 40.525,37.158 C42.6311618,36.273094 44.5681271,35.0300529 46.25,33.484 C47.8101972,32.1941509 50.0291245,32.0724769 51.721,33.184 L53.879,28.149 C54.3269714,27.0885465 55.3118616,26.351974 56.4556875,26.2219655 C57.5995134,26.0919571 58.7245846,26.5887091 59.3991191,27.5215774 C60.0736536,28.4544456 60.1928642,29.6785112 59.711,30.724 L55.792,39.345 C55.2632881,40.512062 54.5277741,41.5738311 53.621,42.479 L46.39,49.707 C46.2025073,49.8945494 45.9481948,49.9999434 45.683,50 Z M37,48 L45.269,48 L52.207,41.062 C52.9438667,40.3261769 53.5417949,39.463331 53.972,38.515 L57.891,29.894 C58.0582467,29.5260467 58.0271201,29.0983304 57.8083629,28.7584681 C57.5896056,28.4186059 57.2131795,28.2131465 56.809,28.213 C56.3336729,28.2127095 55.9040073,28.4960055 55.717,28.933 L53.48,34.151 C52.8859783,35.5429028 52.0297557,36.8075456 50.958,37.876 L46.39,42.445 C45.9976211,42.8239722 45.3739152,42.8185524 44.9881814,42.4328186 C44.6024476,42.0470848 44.5970278,41.4233789 44.976,41.031 L49.544,36.462 C50.0062252,36.0011563 50.4212837,35.4953142 50.783,34.952 C49.8194192,34.2124035 48.4721478,34.2385601 47.538,35.015 C45.6684757,36.730809 43.5075524,38.0989535 41.157,39.055 C40.2012635,39.4044671 39.3675264,40.0238642 38.757,40.838 C37.5899578,42.356123 36.9707349,44.2243646 37,46.139 L37,48 Z" id="Shape" fill="#000000"/><path d="M46,60 L35,60 C33.8954305,60 33,59.1045695 33,58 L33,50 C33,48.8954305 33.8954305,48 35,48 L46,48 C47.1045695,48 48,48.8954305 48,50 L48,58 C48,59.1045695 47.1045695,60 46,60 Z M35,50 L35,58 L46,58 L46,50 L35,50 Z" id="Shape" fill="#000000"/><path d="M39,55 L38,55 C37.4477153,55 37,54.5522847 37,54 C37,53.4477153 37.4477153,53 38,53 L39,53 C39.5522847,53 40,53.4477153 40,54 C40,54.5522847 39.5522847,55 39,55 Z" id="Shape" fill="#000000"/><path d="M28,26 C27.7836298,26 27.5730962,25.9298221 27.4,25.8 L23.4,22.8 C22.9581722,22.4686291 22.8686292,21.8418278 23.2,21.4 C23.5313709,20.9581722 24.1581722,20.8686292 24.6,21.2 L27.754,23.566 L35.168,12.445 C35.474518,11.9854991 36.0954991,11.861482 36.555,12.168 C37.0145009,12.474518 37.138518,13.0954991 36.832,13.555 L28.832,25.555 C28.6796036,25.783657 28.4398302,25.9395277 28.169,25.986 C28.1131258,25.9951303 28.056615,25.9998117 28,26 Z" id="Shape" fill="#000000"/></g></g></svg>
