<?xml version="1.0"?>
<svg xmlns="http://www.w3.org/2000/svg" viewBox="0 0 64 64" width="512" height="512"><g id="Consult-Talk"><path d="M56.47,43.65a12.589,12.589,0,0,1-1.07,2.6l2.74,3.65L53.9,54.14,50.25,51.4a12.589,12.589,0,0,1-2.6,1.07L47,57H41l-.65-4.53a12.589,12.589,0,0,1-2.6-1.07L34.1,54.14,29.86,49.9l2.74-3.65a12.589,12.589,0,0,1-1.07-2.6L27,43V37l4.53-.65a12.589,12.589,0,0,1,1.07-2.6L29.86,30.1l4.24-4.24,2.2,1.65,1.45,1.09A13.076,13.076,0,0,1,39,28a12.671,12.671,0,0,1,1.35-.47L41,23h6l.65,4.53A12.671,12.671,0,0,1,49,28a13.076,13.076,0,0,1,1.25.6L53,26.54l.9-.68,4.24,4.24L55.4,33.75a12.589,12.589,0,0,1,1.07,2.6L61,37v6Z" style="fill:#ff9811"/><path d="M49,33.76a8,8,0,0,0-4-1.7A8.262,8.262,0,0,0,44,32a8,8,0,0,0-8,8,8.023,8.023,0,0,0,3.61,6.68A7.962,7.962,0,0,0,44,48a8.239,8.239,0,0,0,2-.25,8,8,0,0,0,3-13.99Z" style="fill:#ffd422"/><path d="M49,28a12.671,12.671,0,0,0-1.35-.47L47,23H45V14.74A6.992,6.992,0,0,1,46,2.68V9l3,1,3-1V2.68a6.992,6.992,0,0,1,1,12.06v11.8L50.25,28.6A13.076,13.076,0,0,0,49,28Z" style="fill:#c6c5ca"/><path d="M49,28v5.76a8,8,0,0,0-4-1.7V23h2l.65,4.53A12.671,12.671,0,0,1,49,28Z" style="fill:#ff9811"/><path d="M35,21H33a2,2,0,0,0-1,.27V27c0,.24-.01.48-.03.71a1.14,1.14,0,0,0,.19.1A1.988,1.988,0,0,0,33,28h2a1.94,1.94,0,0,0,1.3-.49A1.972,1.972,0,0,0,37,26V23A2.006,2.006,0,0,0,35,21Z" style="fill:#ee8700"/><path d="M39.61,46.68a9.936,9.936,0,0,0-4.9-4.19L27,39.4,26,39a4,4,0,0,1-8,0L9.29,42.49A9.982,9.982,0,0,0,3,51.77V61H41V51.77A9.991,9.991,0,0,0,39.61,46.68Z" style="fill:#3d9ae2"/><path d="M26,36.16V39a4,4,0,0,1-8,0V36.16a9.944,9.944,0,0,0,8,0Z" style="fill:#ffc477"/><path d="M12,27c0,.24.01.48.03.71A1.9,1.9,0,0,1,11,28H9a2.006,2.006,0,0,1-2-2V23a2.006,2.006,0,0,1,2-2h2a2,2,0,0,1,1,.27V27Z" style="fill:#ee8700"/><path d="M26,36.16v2a9.944,9.944,0,0,1-8,0v-2a9.944,9.944,0,0,0,8,0Z" style="fill:#ffb655"/><path d="M32,21.27V22H31a4,4,0,0,1-3.2-1.6L26,18l-3.36,2.69A5.976,5.976,0,0,1,18.9,22H12V20a10,10,0,0,1,20,0Z" style="fill:#57565c"/><path d="M31,22a4,4,0,0,1-3.2-1.6L26,18l-3.36,2.69A5.976,5.976,0,0,1,18.9,22H12v5c0,.24.01.48.03.71A9.991,9.991,0,0,0,29.99,33a8.459,8.459,0,0,0,.93-1.49,9.81,9.81,0,0,0,1.03-3.49v-.01c.01-.1.02-.2.02-.3.02-.23.03-.47.03-.71V22Z" style="fill:#ffc477"/><rect x="16" y="25" width="2" height="2"/><rect x="26" y="25" width="2" height="2"/><path d="M61.142,36.01l-3.907-.558a14,14,0,0,0-.657-1.6L58.942,30.7a1,1,0,0,0-.093-1.307l-4.243-4.243A.989.989,0,0,0,54,24.867V15.241A8,8,0,0,0,57,9a7.917,7.917,0,0,0-4.573-7.224A1,1,0,0,0,51,2.68v5.6l-2,.667-2-.667V2.68a1,1,0,0,0-1.427-.9A7.917,7.917,0,0,0,41,9a8,8,0,0,0,3,6.241V22H41a1,1,0,0,0-.99.858l-.647,4.529,1.98.283L41.867,24h4.266l.524,3.67a1,1,0,0,0,.71.818,11.939,11.939,0,0,1,2.4.987,1,1,0,0,0,1.081-.077l2.961-2.22,3.016,3.016L54.6,33.155a1,1,0,0,0-.077,1.081,11.939,11.939,0,0,1,.987,2.4,1,1,0,0,0,.818.71l3.67.524v4.266l-3.67.524a1,1,0,0,0-.818.71,11.939,11.939,0,0,1-.987,2.4,1,1,0,0,0,.077,1.081l2.22,2.961-3.016,3.016L50.845,50.6a1,1,0,0,0-1.081-.077,11.939,11.939,0,0,1-2.4.987,1,1,0,0,0-.71.818L46.133,56H42V51.771a11.1,11.1,0,0,0-.45-3.121,9.11,9.11,0,1,0-6.394-7.062c-.024-.01-.047-.022-.071-.031L27,38.323V36.786A11.089,11.089,0,0,0,30.479,34H33a3,3,0,0,0,3-3V28.816A3,3,0,0,0,38,26V23a3,3,0,0,0-2-2.816V19A14,14,0,0,0,8,19v1.184A3,3,0,0,0,6,23v3a3,3,0,0,0,3,3h2c.064,0,.126-.01.189-.014A11.023,11.023,0,0,0,17,36.786v1.537L8.915,41.557A10.949,10.949,0,0,0,2,51.771V61a1,1,0,0,0,1,1H41a1,1,0,0,0,1-1V58h5a1,1,0,0,0,.99-.858l.558-3.907a14,14,0,0,0,1.6-.657L53.3,54.942a1,1,0,0,0,1.307-.093l4.243-4.243a1,1,0,0,0,.093-1.307l-2.364-3.152a14,14,0,0,0,.657-1.6l3.907-.558A1,1,0,0,0,62,43V37A1,1,0,0,0,61.142,36.01Zm-11-8.588c-.047-.023-.1-.038-.147-.06V15H48v7.93l-.01-.072A1,1,0,0,0,47,22H46V14.74a1,1,0,0,0-.429-.821A6,6,0,0,1,45,4.522V9a1,1,0,0,0,.684.949l3,1a1,1,0,0,0,.632,0l3-1A1,1,0,0,0,53,9V4.522a6,6,0,0,1-.571,9.4A1,1,0,0,0,52,14.74V26.033ZM37,40a7.05,7.05,0,1,1,3.333,5.941,10.916,10.916,0,0,0-2.611-2.877A6.836,6.836,0,0,1,37,40Zm-4-8H31.786a10.9,10.9,0,0,0,1.025-3.014c.063,0,.125.014.189.014h1v2A1,1,0,0,1,33,32ZM31,21a3.015,3.015,0,0,1-2.4-1.2l-1.8-2.4a1,1,0,0,0-.674-.392,1.011,1.011,0,0,0-.751.211L22.019,19.9A5.018,5.018,0,0,1,18.9,21H13V20a9,9,0,0,1,18,0Zm5,5a1,1,0,0,1-1,1H33V22h2a1,1,0,0,1,1,1ZM22,7A12.013,12.013,0,0,1,34,19v1H33a11,11,0,0,0-22,0H10V19A12.013,12.013,0,0,1,22,7ZM9,27a1,1,0,0,1-1-1V23a1,1,0,0,1,1-1h2v5Zm4,0V23h5.9a7.024,7.024,0,0,0,4.372-1.534l2.551-2.041L27,21a5.025,5.025,0,0,0,4,2v4a8.947,8.947,0,0,1-1.522,5H22v2h5.644A8.991,8.991,0,0,1,13,27Zm9,11a10.966,10.966,0,0,0,3-.426V39a3,3,0,0,1-6,0V37.574A10.966,10.966,0,0,0,22,38ZM40,60H34V49H32V60H12V49H10V60H4V51.771a8.958,8.958,0,0,1,5.658-8.357l7.563-3.025a4.968,4.968,0,0,0,9.558,0l7.563,3.025A8.958,8.958,0,0,1,40,51.771Z"/><rect x="43" y="26" width="2" height="2"/><rect x="43" y="52" width="2" height="2"/><rect x="52.192" y="48.192" width="2" height="2" transform="translate(-19.205 52.021) rotate(-45)"/><rect x="56" y="39" width="2" height="2"/><rect x="52.192" y="29.808" width="2" height="2" transform="translate(-6.205 46.636) rotate(-45)"/></g></svg>
