{"asset":{"generator":"Khronos glTF Spline I/O v0.0.1","version":"2.0"},"scenes":[{"nodes":[0]}],"nodes":[{"name":"Untitled","children":[1,2,3,4]},{"name":"Oeil droit","matrix":[1,0,0,0,0,1,0,0,0,0,1,0,12.821102687499973,17.52151685099562,246.3,1],"children":[5,6]},{"name":"Oeil gauche","matrix":[1,0,0,0,0,1,0,0,0,0,1,0,-10.71,17.68,247.21249096729542,1],"children":[7,8]},{"name":"Body","matrix":[0.9999999999999998,1.224646799147353e-16,-1.224646799147353e-16,0,1.2246467991473542e-16,-1.0000000000000009,-1.2246467991473542e-16,0,-1.2246467991473547e-16,1.2246467991473547e-16,-1.000000000000001,0,0,1.5,217.05202764324196,1],"mesh":0},{"name":"Default Camera","camera":0,"translation":[0,6.123233995736766e-14,1000],"rotation":[-3.061616997868383e-17,0,0,1],"children":[9]},{"name":"Pupille","matrix":[1.4995431202643215,-0.01082070716736691,-0.0354025813231158,0,-0.026174622526875718,0.7045034908522564,-1.3240051814523082,0,0.026178609655925267,1.3242196734958225,0.7041000899894133,0,-0.08137165799281831,0.8894846899959248,1.48961847548253,1],"mesh":1},{"name":"Cornée","matrix":[1,1.2246467991473535e-16,1.734723475976807e-18,0,-1.2072995643875851e-16,1.0000000000000002,-2.1244235522607673e-34,0,-1.734723475976807e-18,0,1,0,-3.552713678800501e-15,-1.0658141036401503e-14,-0.5848802546297804,1],"mesh":2},{"name":"Right","matrix":[1.4995431202643215,-0.010820707167366899,-0.0354025813231158,0,-0.026698114977413232,0.7185935606693011,-1.3504852850813538,0,0.026178609655925264,1.3242196734958225,0.7041000899894133,0,0.41000000000000014,0.8200000000000003,1.4475090327045734,1],"mesh":3},{"name":"Sphere","matrix":[1,1.2246467991473532e-16,0,0,-1.2246467991473532e-16,1,0,0,0,0,1,0,0,0,-0.5824909672954277,1],"mesh":4},{"name":"Default Directional Light","translation":[850000,1300000,1000000],"rotation":[-0.45895513091666534,0.1367267597249462,-0.25064115022945466,0.8413352451859125],"extensions":{"KHR_lights_punctual":{"light":0}}}],"cameras":[{"type":"orthographic","orthographic":{"xmag":1065,"ymag":846,"zfar":50000,"znear":-50000}}],"meshes":[{"primitives":[{"attributes":{"POSITION":1,"TEXCOORD_0":2,"NORMAL":3},"indices":0}]},{"primitives":[{"attributes":{"POSITION":5,"NORMAL":6,"TEXCOORD_0":7},"indices":4}]},{"primitives":[{"attributes":{"POSITION":9,"NORMAL":10,"TEXCOORD_0":11},"indices":8}]},{"primitives":[{"attributes":{"POSITION":13,"NORMAL":14,"TEXCOORD_0":15},"indices":12}]},{"primitives":[{"attributes":{"POSITION":17,"NORMAL":18,"TEXCOORD_0":19},"indices":16}]}],"buffers":[{"uri":"data:application/octet-stream;base64,","byteLength":184352},{"uri":"data:application/octet-stream;base64,","byteLength":183584},{"uri":"data:application/octet-stream;base64,","byteLength":183584},{"uri":"data:application/octet-stream;base64,","byteLength":183584},{"uri":"data:application/octet-stream;base64,","byteLength":183584}],"bufferViews":[{"buffer":0,"byteOffset":0,"byteLength":49152,"target":34963},{"buffer":0,"byteOffset":49152,"byteLength":50700,"target":34962},{"buffer":0,"byteOffset":99852,"byteLength":33800,"target":34962},{"buffer":0,"byteOffset":133652,"byteLength":50700,"target":34962},{"buffer":1,"byteOffset":0,"byteLength":48384,"target":34963},{"buffer":1,"byteOffset":48384,"byteLength":50700,"target":34962},{"buffer":1,"byteOffset":99084,"byteLength":50700,"target":34962},{"buffer":1,"byteOffset":149784,"byteLength":33800,"target":34962},{"buffer":2,"byteOffset":0,"byteLength":48384,"target":34963},{"buffer":2,"byteOffset":48384,"byteLength":50700,"target":34962},{"buffer":2,"byteOffset":99084,"byteLength":50700,"target":34962},{"buffer":2,"byteOffset":149784,"byteLength":33800,"target":34962},{"buffer":3,"byteOffset":0,"byteLength":48384,"target":34963},{"buffer":3,"byteOffset":48384,"byteLength":50700,"target":34962},{"buffer":3,"byteOffset":99084,"byteLength":50700,"target":34962},{"buffer":3,"byteOffset":149784,"byteLength":33800,"target":34962},{"buffer":4,"byteOffset":0,"byteLength":48384,"target":34963},{"buffer":4,"byteOffset":48384,"byteLength":50700,"target":34962},{"buffer":4,"byteOffset":99084,"byteLength":50700,"target":34962},{"buffer":4,"byteOffset":149784,"byteLength":33800,"target":34962}],"accessors":[{"bufferView":0,"byteOffset":0,"componentType":5123,"count":24576,"type":"SCALAR","min":[0],"max":[4224]},{"bufferView":1,"byteOffset":0,"componentType":5126,"count":4225,"type":"VEC3","min":[-36.81947708129883,-40,-36.81947708129883],"max":[36.81947708129883,50,36.81947708129883]},{"bufferView":2,"byteOffset":0,"componentType":5126,"count":4225,"type":"VEC2","min":[0,0],"max":[1,1]},{"bufferView":3,"byteOffset":0,"componentType":5126,"count":4225,"type":"VEC3","min":[-0.9998711943626404,-0.9985940456390381,-0.9998711943626404],"max":[0.9998711943626404,0.998010516166687,0.9998711943626404]},{"bufferView":4,"byteOffset":0,"componentType":5123,"count":24192,"type":"SCALAR","min":[0],"max":[4224]},{"bufferView":5,"byteOffset":0,"componentType":5126,"count":4225,"type":"VEC3","min":[-1.5,-1.5,-1.5],"max":[1.5,1.5,1.5]},{"bufferView":6,"byteOffset":0,"componentType":5126,"count":4225,"type":"VEC3","min":[-1,-1,-1],"max":[1,1,1]},{"bufferView":7,"byteOffset":0,"componentType":5126,"count":4225,"type":"VEC2","min":[-0.0078125,0],"max":[1.0078125,1]},{"bufferView":8,"byteOffset":0,"componentType":5123,"count":24192,"type":"SCALAR","min":[0],"max":[4224]},{"bufferView":9,"byteOffset":0,"componentType":5126,"count":4225,"type":"VEC3","min":[-4,-4,-4],"max":[4,4,4]},{"bufferView":10,"byteOffset":0,"componentType":5126,"count":4225,"type":"VEC3","min":[-1,-1,-1],"max":[1,1,1]},{"bufferView":11,"byteOffset":0,"componentType":5126,"count":4225,"type":"VEC2","min":[-0.0078125,0],"max":[1.0078125,1]},{"bufferView":12,"byteOffset":0,"componentType":5123,"count":24192,"type":"SCALAR","min":[0],"max":[4224]},{"bufferView":13,"byteOffset":0,"componentType":5126,"count":4225,"type":"VEC3","min":[-1.5,-1.5,-1.5],"max":[1.5,1.5,1.5]},{"bufferView":14,"byteOffset":0,"componentType":5126,"count":4225,"type":"VEC3","min":[-1,-1,-1],"max":[1,1,1]},{"bufferView":15,"byteOffset":0,"componentType":5126,"count":4225,"type":"VEC2","min":[-0.0078125,0],"max":[1.0078125,1]},{"bufferView":16,"byteOffset":0,"componentType":5123,"count":24192,"type":"SCALAR","min":[0],"max":[4224]},{"bufferView":17,"byteOffset":0,"componentType":5126,"count":4225,"type":"VEC3","min":[-4,-4,-4],"max":[4,4,4]},{"bufferView":18,"byteOffset":0,"componentType":5126,"count":4225,"type":"VEC3","min":[-1,-1,-1],"max":[1,1,1]},{"bufferView":19,"byteOffset":0,"componentType":5126,"count":4225,"type":"VEC2","min":[-0.0078125,0],"max":[1.0078125,1]}],"extensions":{"KHR_lights_punctual":{"lights":[{"type":"directional","name":"Default Directional Light","color":[1,1,1],"intensity":0.75}]}},"extensionsUsed":["KHR_lights_punctual"]}