<svg width="582" height="533" viewBox="0 0 582 533" fill="none" xmlns="http://www.w3.org/2000/svg">
<path fill-rule="evenodd" clip-rule="evenodd" d="M257.962 125.897C298.008 132.658 292.234 41.3938 331.155 29.7931C355.326 22.5888 350.222 83.3195 374.16 91.2633C419.075 106.168 472.186 70.4471 514.921 90.7759C550.589 107.743 581.933 149.512 579.479 188.933C576.855 231.095 536.047 262.504 502.625 288.339C473.744 310.662 410.155 291.456 401.097 326.817C384.708 390.798 477.899 462.141 443.64 518.607C418.98 559.255 354.409 486.651 307.122 481.712C273.244 478.173 240.364 497.811 206.534 493.842C172.05 489.796 128.366 487.661 109.486 458.523C86.915 423.688 126.204 370.094 103.737 335.192C83.5932 303.899 1.2562 328.76 2.00508 291.552C2.92368 245.911 81.0075 242.64 106.364 204.679C118.229 186.915 99.3802 162.41 102.392 141.262C105.802 117.316 113.905 94.4327 125.115 72.9998C138.421 47.5594 147.851 -7.2725 174.524 3.34828C220.831 21.7869 208.814 117.599 257.962 125.897Z" stroke="white" stroke-opacity="0.1" stroke-width="3"/>
</svg>
