<svg width="20" height="20" viewBox="0 0 25 26" fill="none" xmlns="http://www.w3.org/2000/svg">
<path d="M10.8373 5.87713L6.94688 1.38641C6.49839 0.868908 5.67614 0.871208 5.15519 1.39331L1.95591 4.59834C1.00372 5.55168 0.731169 6.96732 1.28202 8.10237C4.57286 14.916 10.068 20.4189 16.8771 23.7193C18.011 24.2701 19.4255 23.9976 20.3777 23.0442L23.6068 19.8093C24.1301 19.2861 24.1312 18.4592 23.6091 18.0107L19.1012 14.141C18.6297 13.7362 17.8971 13.7891 17.4245 14.2629L15.8559 15.8338C15.7756 15.9179 15.6699 15.9734 15.555 15.9917C15.4401 16.01 15.3224 15.9901 15.2199 15.935C12.656 14.4585 10.5291 12.3289 9.05597 9.76296C9.0008 9.66032 8.98083 9.54242 8.99911 9.42734C9.01739 9.31226 9.07292 9.20635 9.15717 9.12586L10.7212 7.56072C11.195 7.08462 11.2467 6.34863 10.8373 5.87598V5.87713Z" stroke="#E21F25" stroke-width="2" stroke-linecap="round" stroke-linejoin="round"/>
</svg>
