<svg width="103" height="87" viewBox="0 0 103 87" fill="none" xmlns="http://www.w3.org/2000/svg">
<circle cx="51.5" cy="43.5" r="37.5" fill="url(#paint0_linear)"/>
<g filter="url(#filter0_d)">
<path d="M51.5 54.9231C59.7783 54.9231 66.9775 50.304 70.6653 43.5C68.7959 40.0442 66.0279 37.1583 62.6543 35.1475C59.2806 33.1367 55.4266 32.0758 51.5 32.0769C47.5734 32.0758 43.7194 33.1367 40.3457 35.1475C36.9721 37.1583 34.2041 40.0442 32.3347 43.5C34.2041 46.9558 36.9721 49.8417 40.3457 51.8525C43.7194 53.8633 47.5734 54.9242 51.5 54.9231ZM51.5 30C55.9897 29.9985 60.3888 31.2645 64.1919 33.6525C67.995 36.0405 71.048 39.4537 73 43.5C71.048 47.5463 67.995 50.9595 64.1919 53.3475C60.3888 55.7355 55.9897 57.0015 51.5 57C47.0103 57.0015 42.6112 55.7355 38.8081 53.3475C35.005 50.9595 31.952 47.5463 30 43.5C31.952 39.4537 35.005 36.0405 38.8081 33.6525C42.6112 31.2645 47.0103 29.9985 51.5 30ZM51.5 34.1538C53.9768 34.1538 56.3522 35.1385 58.1035 36.8913C59.8549 38.644 60.8388 41.0212 60.8388 43.5C60.8388 45.9788 59.8549 48.356 58.1035 50.1087C56.3522 51.8615 53.9768 52.8462 51.5 52.8462C49.0232 52.8462 46.6478 51.8615 44.8965 50.1087C43.1451 48.356 42.1612 45.9788 42.1612 43.5C42.1612 41.0212 43.1451 38.644 44.8965 36.8913C46.6478 35.1385 49.0232 34.1538 51.5 34.1538ZM51.5 36.2308C49.5736 36.2308 47.7261 36.9966 46.3639 38.3599C45.0017 39.7231 44.2365 41.5721 44.2365 43.5C44.2365 45.4279 45.0017 47.2769 46.3639 48.6401C47.7261 50.0034 49.5736 50.7692 51.5 50.7692C53.4264 50.7692 55.2739 50.0034 56.6361 48.6401C57.9983 47.2769 58.7635 45.4279 58.7635 43.5C58.7635 41.5721 57.9983 39.7231 56.6361 38.3599C55.2739 36.9966 53.4264 36.2308 51.5 36.2308Z" fill="white"/>
</g>
<defs>
<filter id="filter0_d" x="0" y="0" width="103" height="87" filterUnits="userSpaceOnUse" color-interpolation-filters="sRGB">
<feFlood flood-opacity="0" result="BackgroundImageFix"/>
<feColorMatrix in="SourceAlpha" type="matrix" values="0 0 0 0 0 0 0 0 0 0 0 0 0 0 0 0 0 0 127 0" result="hardAlpha"/>
<feOffset/>
<feGaussianBlur stdDeviation="15"/>
<feComposite in2="hardAlpha" operator="out"/>
<feColorMatrix type="matrix" values="0 0 0 0 1 0 0 0 0 1 0 0 0 0 1 0 0 0 1 0"/>
<feBlend mode="normal" in2="BackgroundImageFix" result="effect1_dropShadow"/>
<feBlend mode="normal" in="SourceGraphic" in2="effect1_dropShadow" result="shape"/>
</filter>
<linearGradient id="paint0_linear" x1="51.5" y1="6" x2="51.5" y2="81" gradientUnits="userSpaceOnUse">
<stop stop-color="#FA565B"/>
<stop offset="1" stop-color="#E21F25"/>
</linearGradient>
</defs>
</svg>
