<svg width="18" height="18" viewBox="0 0 36 35" fill="none" xmlns="http://www.w3.org/2000/svg">
<path d="M33 31C33 33.2 31.2 35 29 35H7C4.8 35 3 33.2 3 31V14C3 11.8 4.8 10 7 10H29C31.2 10 33 11.8 33 14V31Z" fill="#FDD888"/>
<path d="M36 11C36 13.2 34.2 15 32 15H4C1.8 15 0 13.2 0 11C0 8.8 1.8 7 4 7H32C34.2 7 36 8.8 36 11Z" fill="#FDD888"/>
<path d="M3 15H33V17H3V15Z" fill="#FCAB40"/>
<path d="M19 3H17C15.343 3 14 4.343 14 6V35H22V6C22 4.344 20.657 3 19 3Z" fill="#DA2F47"/>
<path d="M16 7C17.1 7 17.263 6.484 16.361 5.853L9.639 1.147C8.737 0.516 7.554 0.781 7.008 1.736L4.992 5.264C4.446 6.219 4.9 7 6 7H16ZM20 7C18.9 7 18.737 6.484 19.639 5.853L26.362 1.147C27.263 0.516 28.447 0.781 28.993 1.736L31.009 5.263C31.554 6.219 31.1 7 30 7H20Z" fill="#DA2F47"/>
</svg>
