<svg width="27.5" height="27.5" viewBox="0 0 36 36" fill="none" xmlns="http://www.w3.org/2000/svg">
<path d="M4.861 9.147C5.801 8.49 7.218 8.616 8.062 9.313L7.094 7.906C6.315 6.795 6.594 5.593 7.706 4.813C8.818 4.036 11.969 6.125 11.969 6.125C11.183 5.003 11.33 3.581 12.452 2.794C13.574 2.01 15.122 2.281 15.908 3.405L26.328 18.125L25 31L13.917 26.958L4.25 12.625C3.457 11.496 3.731 9.939 4.861 9.147Z" fill="#EF9645"/>
<path d="M2.695 17.336C2.695 17.336 1.563 15.686 3.214 14.555C4.863 13.424 5.994 15.073 5.994 15.073L11.245 22.731C11.426 22.429 11.624 22.131 11.845 21.837L4.557 11.21C4.557 11.21 3.426 9.561 5.076 8.43C6.725 7.299 7.856 8.948 7.856 8.948L14.711 18.945C14.966 18.737 15.227 18.528 15.496 18.323L7.549 6.732C7.549 6.732 6.418 5.083 8.068 3.952C9.717 2.821 10.848 4.47 10.848 4.47L18.795 16.059C19.087 15.88 19.376 15.725 19.666 15.561L12.238 4.729C12.238 4.729 11.107 3.08 12.756 1.949C14.405 0.818 15.536 2.467 15.536 2.467L23.39 13.921L24.584 15.663C19.636 19.057 19.165 25.442 21.992 29.565C22.557 30.39 23.382 29.825 23.382 29.825C19.989 24.876 21.025 19.315 25.974 15.922L24.515 8.62C24.515 8.62 23.97 6.696 25.893 6.15C27.817 5.605 28.363 7.529 28.363 7.529L30.048 12.533C30.716 14.517 31.427 16.494 32.368 18.364C35.025 23.644 33.438 30.206 28.428 33.643C22.963 37.39 15.492 35.997 11.744 30.533L2.695 17.336Z" fill="#FFDC5D"/>
<path d="M12 32.042C8 32.042 3.958 28 3.958 24C3.958 23.447 3.553 23 3 23C2.447 23 1.958 23.447 1.958 24C1.958 30 6 34.042 12 34.042C12.553 34.042 13 33.553 13 33C13 32.447 12.553 32.042 12 32.042Z" fill="#5DADEC"/>
<path d="M7 34C4 34 2 32 2 29C2 28.447 1.553 28 1 28C0.447 28 0 28.447 0 29C0 33 3 36 7 36C7.553 36 8 35.553 8 35C8 34.447 7.553 34 7 34ZM24 2C23.448 2 23 2.448 23 3C23 3.552 23.448 4 24 4C28 4 32 7.589 32 12C32 12.552 32.448 13 33 13C33.552 13 34 12.552 34 12C34 6.486 30 2 24 2Z" fill="#5DADEC"/>
<path d="M29 0.042C28.448 0.042 28 0.448 28 1C28 1.552 28.448 2.042 29 2.042C32 2.042 33.958 4.267 33.958 7C33.958 7.552 34.447 8 35 8C35.553 8 35.958 7.552 35.958 7C35.958 3.163 33 0.042 29 0.042Z" fill="#5DADEC"/>
</svg>
