<?xml version="1.0" encoding="iso-8859-1"?>
<!-- Generator: Adobe Illustrator 19.0.0, SVG Export Plug-In . SVG Version: 6.00 Build 0)  -->
<svg version="1.1" id="Capa_1" xmlns="http://www.w3.org/2000/svg" xmlns:xlink="http://www.w3.org/1999/xlink" x="0px" y="0px"
	 viewBox="0 0 511.977 511.977" style="enable-background:new 0 0 511.977 511.977;" xml:space="preserve">
<g>
	<path style="fill:#64B5F6;" d="M96,181.323H10.667C4.776,181.323,0,176.547,0,170.656s4.776-10.667,10.667-10.667H96
		c5.891,0,10.667,4.776,10.667,10.667S101.891,181.323,96,181.323z"/>
	<path style="fill:#64B5F6;" d="M32,351.99H10.667C4.776,351.99,0,347.214,0,341.323s4.776-10.667,10.667-10.667H32
		c5.891,0,10.667,4.776,10.667,10.667S37.891,351.99,32,351.99z"/>
	<path style="fill:#64B5F6;" d="M53.333,266.656H10.667C4.776,266.656,0,261.881,0,255.99s4.776-10.667,10.667-10.667h42.667
		c5.891,0,10.667,4.776,10.667,10.667S59.224,266.656,53.333,266.656z"/>
</g>
<path style="fill:#2196F3;" d="M507.947,155.083l-181.973,94.933c-2.56,1.067-4.907,2.133-7.467,2.987l111.573,94.293l8.107,6.827
	c3.611-4.263,6.494-9.092,8.533-14.293l62.933-157.227C513.268,173.642,512.641,163.528,507.947,155.083z M160.853,154.87
	c-4.94,4.903-8.792,10.79-11.307,17.28L86.613,329.376c-1.412,3.61-2.205,7.433-2.347,11.307l11.947-6.187l168.747-88.32
	c-1.859-1.085-3.641-2.297-5.333-3.627L160.853,154.87z"/>
<path style="fill:#64B5F6;" d="M507.947,155.083l-181.973,94.933c-2.56,1.067-4.907,2.133-7.467,2.987
	c-17.973,5.831-37.611,3.327-53.547-6.827c-1.859-1.085-3.641-2.297-5.333-3.627l-98.773-87.68
	c9.928-10.469,23.759-16.342,38.187-16.213H480c10.606,0.019,20.514,5.293,26.453,14.08
	C506.88,153.59,507.52,154.23,507.947,155.083z"/>
<path style="fill:#1976D2;" d="M438.187,354.123c-10.093,12.206-25.122,19.251-40.96,19.2h-280.96
	c-17.744-0.068-32.072-14.508-32.004-32.252c0.001-0.129,0.002-0.259,0.004-0.388l11.947-6.187l168.747-88.32
	c15.935,10.154,35.574,12.658,53.547,6.827l111.573,94.293L438.187,354.123z"/>
<g>
</g>
<g>
</g>
<g>
</g>
<g>
</g>
<g>
</g>
<g>
</g>
<g>
</g>
<g>
</g>
<g>
</g>
<g>
</g>
<g>
</g>
<g>
</g>
<g>
</g>
<g>
</g>
<g>
</g>
</svg>
