<svg width="46" height="35" viewBox="0 0 46 35" fill="none" xmlns="http://www.w3.org/2000/svg">
<path d="M0 3.96667C0 1.77707 1.77707 0 3.96667 0H34.5667C36.7563 0 38.5333 1.77707 38.5333 3.96667V23.2333C38.5333 24.2854 38.1154 25.2943 37.3715 26.0382C36.6276 26.7821 35.6187 27.2 34.5667 27.2H3.96667C2.91464 27.2 1.9057 26.7821 1.16181 26.0382C0.417916 25.2943 0 24.2854 0 23.2333V3.96667ZM6.8 2.83333V5.1C6.8 5.55087 6.62089 5.98327 6.30208 6.30208C5.98327 6.62089 5.55087 6.8 5.1 6.8H2.83333V10.2H5.1C5.76974 10.2 6.43292 10.0681 7.05169 9.81178C7.67045 9.55549 8.23267 9.17982 8.70624 8.70624C9.17982 8.23267 9.55549 7.67044 9.81179 7.05168C10.0681 6.43292 10.2 5.76974 10.2 5.1V2.83333H6.8ZM19.2667 19.2667C20.6193 19.2667 21.9165 18.7293 22.8729 17.7729C23.8293 16.8165 24.3667 15.5193 24.3667 14.1667C24.3667 12.8141 23.8293 11.5169 22.8729 10.5604C21.9165 9.60399 20.6193 9.06667 19.2667 9.06667C17.9141 9.06667 16.6169 9.60399 15.6604 10.5604C14.704 11.5169 14.1667 12.8141 14.1667 14.1667C14.1667 15.5193 14.704 16.8165 15.6604 17.7729C16.6169 18.7293 17.9141 19.2667 19.2667 19.2667V19.2667ZM2.83333 20.4H5.1C5.55087 20.4 5.98327 20.5791 6.30208 20.8979C6.62089 21.2167 6.8 21.6491 6.8 22.1V24.3667H10.2V22.1C10.2 20.7474 9.66268 19.4502 8.70624 18.4938C7.74981 17.5373 6.4526 17 5.1 17H2.83333V20.4ZM31.7333 22.1C31.7333 21.6491 31.9124 21.2167 32.2313 20.8979C32.5501 20.5791 32.9825 20.4 33.4333 20.4H35.7V17H33.4333C32.0807 17 30.7835 17.5373 29.8271 18.4938C28.8707 19.4502 28.3333 20.7474 28.3333 22.1V24.3667H31.7333V22.1ZM31.7333 5.1V2.83333H28.3333V5.1C28.3333 5.76974 28.4652 6.43292 28.7215 7.05168C28.9778 7.67044 29.3535 8.23267 29.8271 8.70624C30.7835 9.66268 32.0807 10.2 33.4333 10.2H35.7V6.8H33.4333C32.9825 6.8 32.5501 6.62089 32.2313 6.30208C31.9124 5.98327 31.7333 5.55087 31.7333 5.1Z" fill="white"/>
<path d="M5.44189 30.603C6.03872 31.6372 6.89743 32.496 7.9316 33.0928C8.96577 33.6897 10.1389 34.0036 11.333 34.003H34.5663C35.9802 34.003 37.3802 33.7246 38.6865 33.1835C39.9928 32.6424 41.1797 31.8493 42.1795 30.8496C43.1793 29.8498 43.9723 28.6629 44.5134 27.3566C45.0545 26.0503 45.333 24.6503 45.333 23.2364V11.3364C45.333 8.82038 43.9662 6.62171 41.933 5.44531V23.2364C41.933 25.1901 41.1568 27.0639 39.7753 28.4454C38.3938 29.8269 36.5201 30.603 34.5663 30.603H5.44189Z" fill="white"/>
</svg>
