<svg width="37" height="50" viewBox="0 0 37 50" fill="none" xmlns="http://www.w3.org/2000/svg">
<path d="M36.5476 24.4706L13.0024 49.4703C12.7528 49.7355 12.4227 49.9127 12.0622 49.9751C11.7017 50.0375 11.3305 49.9817 11.0049 49.8162C10.6793 49.6506 10.4171 49.3843 10.258 49.0577C10.099 48.7311 10.0518 48.362 10.1236 48.0064L13.2067 32.7296L1.09149 28.2274C0.832553 28.1312 0.601549 27.9732 0.418928 27.7675C0.236307 27.5617 0.107704 27.3145 0.0445081 27.0477C-0.0186882 26.7809 -0.0145283 26.5028 0.0566191 26.238C0.127766 25.9732 0.263706 25.7298 0.452401 25.5295L23.9976 0.529755C24.2472 0.264553 24.5774 0.0872929 24.9379 0.0248717C25.2984 -0.0375495 25.6697 0.0182759 25.9953 0.183877C26.3209 0.349478 26.5831 0.615815 26.7421 0.942474C26.9011 1.26913 26.9483 1.63828 26.8764 1.99391L23.7933 17.2708L35.9085 21.7729C36.1675 21.8691 36.3985 22.027 36.5811 22.2328C36.7637 22.4386 36.8923 22.6858 36.9555 22.9526C37.0187 23.2194 37.0145 23.4975 36.9434 23.7623C36.8722 24.0271 36.7363 24.2704 36.5476 24.4708V24.4706Z" fill="white"/>
</svg>
