<svg width="60" height="50" viewBox="0 0 63 53" fill="none" xmlns="http://www.w3.org/2000/svg">
<path d="M24.2308 36.1364C24.2308 37.1402 24.073 38.169 23.7575 39.223C23.442 40.277 22.8993 41.2306 22.1295 42.0838C21.3597 42.937 20.4447 43.3636 19.3846 43.3636C18.3245 43.3636 17.4096 42.937 16.6397 42.0838C15.8699 41.2306 15.3272 40.277 15.0117 39.223C14.6962 38.169 14.5385 37.1402 14.5385 36.1364C14.5385 35.1326 14.6962 34.1037 15.0117 33.0497C15.3272 31.9957 15.8699 31.0421 16.6397 30.1889C17.4096 29.3357 18.3245 28.9091 19.3846 28.9091C20.4447 28.9091 21.3597 29.3357 22.1295 30.1889C22.8993 31.0421 23.442 31.9957 23.7575 33.0497C24.073 34.1037 24.2308 35.1326 24.2308 36.1364ZM48.4615 36.1364C48.4615 37.1402 48.3038 38.169 47.9883 39.223C47.6728 40.277 47.1301 41.2306 46.3603 42.0838C45.5904 42.937 44.6755 43.3636 43.6154 43.3636C42.5553 43.3636 41.6403 42.937 40.8705 42.0838C40.1007 41.2306 39.558 40.277 39.2425 39.223C38.927 38.169 38.7692 37.1402 38.7692 36.1364C38.7692 35.1326 38.927 34.1037 39.2425 33.0497C39.558 31.9957 40.1007 31.0421 40.8705 30.1889C41.6403 29.3357 42.5553 28.9091 43.6154 28.9091C44.6755 28.9091 45.5904 29.3357 46.3603 30.1889C47.1301 31.0421 47.6728 31.9957 47.9883 33.0497C48.3038 34.1037 48.4615 35.1326 48.4615 36.1364ZM54.5192 36.1364C54.5192 33.125 53.6484 30.5653 51.9068 28.4574C50.1653 26.3494 47.8053 25.2955 44.8269 25.2955C43.7921 25.2955 41.3311 25.5589 37.4441 26.0859C35.652 26.362 33.6707 26.5 31.5 26.5C29.3293 26.5 27.348 26.362 25.5559 26.0859C21.7194 25.5589 19.2584 25.2955 18.1731 25.2955C15.1947 25.2955 12.8347 26.3494 11.0931 28.4574C9.35156 30.5653 8.48077 33.125 8.48077 36.1364C8.48077 38.3447 8.88462 40.2707 9.69231 41.9144C10.5 43.5581 11.5222 44.8505 12.759 45.7915C13.9958 46.7326 15.5355 47.4854 17.378 48.0501C19.2206 48.6147 20.9874 48.9849 22.6785 49.1605C24.3696 49.3362 26.25 49.424 28.3197 49.424H34.6803C36.75 49.424 38.6304 49.3362 40.3215 49.1605C42.0126 48.9849 43.7794 48.6147 45.622 48.0501C47.4645 47.4854 49.0042 46.7326 50.241 45.7915C51.4778 44.8505 52.5 43.5581 53.3077 41.9144C54.1154 40.2707 54.5192 38.3447 54.5192 36.1364ZM63 29.5114C63 34.706 62.2302 38.8591 60.6905 41.9709C59.7314 43.9032 58.3999 45.572 56.6962 46.9773C54.9925 48.3826 53.213 49.4616 51.3579 50.2145C49.5027 50.9673 47.3573 51.5633 44.9216 52.0025C42.4859 52.4416 40.3215 52.7177 38.4285 52.8306C36.5355 52.9435 34.4279 53 32.1058 53C30.137 53 28.345 52.9624 26.7296 52.8871C25.1142 52.8118 23.2527 52.6549 21.1451 52.4166C19.0376 52.1782 17.113 51.8017 15.3714 51.2873C13.6298 50.7728 11.9008 50.1267 10.1845 49.3487C8.46815 48.5708 6.94111 47.5545 5.60337 46.2997C4.26562 45.045 3.18029 43.602 2.34736 41.9709C0.782452 38.8842 0 34.7311 0 29.5114C0 23.5639 1.71635 18.5952 5.14904 14.6051C4.46755 12.5473 4.1268 10.4143 4.1268 8.20597C4.1268 5.29498 4.77043 2.55966 6.05769 0C8.78365 0 11.1815 0.49562 13.2512 1.48686C15.3209 2.4781 17.7061 4.0277 20.4069 6.13565C24.1172 5.25734 28.0168 4.81818 32.1058 4.81818C35.8413 4.81818 39.375 5.2197 42.7067 6.02273C45.357 3.96496 47.7169 2.44673 49.7867 1.46804C51.8564 0.489347 54.2416 0 56.9423 0C58.2296 2.55966 58.8732 5.29498 58.8732 8.20597C58.8732 10.3892 58.5325 12.4972 57.851 14.5298C61.2837 18.545 63 23.5388 63 29.5114Z" fill="white"/>
</svg>
