<?xml version="1.0" encoding="UTF-8"?>
<svg width="40px" height="40px" viewBox="0 0 40 40" version="1.1" xmlns="http://www.w3.org/2000/svg" xmlns:xlink="http://www.w3.org/1999/xlink">
    <!-- Generator: Sketch 55 (78076) - https://sketchapp.com -->
    <title>logo/short</title>
    <desc>Created with Sketch.</desc>
    <g id="logo/short" stroke="none" stroke-width="1" fill="none" fill-rule="evenodd">
        <g id="logo-new" transform="translate(1.000000, 1.000000)">
            <g id="logo_копия_2">
                <path d="M1.559,15.5555556 L5.058,12.0555556 L12.0555556,19.054 L5.05755556,26.052 L1.55855556,22.553 C-0.37339567,20.6204965 -0.373196696,17.4878136 1.559,15.5555556 L1.559,15.5555556 Z" id="Прямоугольник_скругл._углы_8_копия_20" fill="#FF2941"></path>
                <polygon id="Прямоугольник_скругл._углы_8_копия_20-2" fill="#FF6F43" points="5.058 26.052 12.0555556 19.054 19.0535556 26.052 12.0555556 33.0501111"></polygon>
                <polygon id="Прямоугольник_скругл._углы_8_копия_20-3" fill="#D0154C" points="5.058 12.0555556 8.64322222 8.47022222 12.0555556 5.058 19.054 12.0555556 12.0555556 19.054"></polygon>
                <path d="M12.0555556,33.0501111 L19.0535556,26.052 L26.0515556,33.0501111 L22.5525556,36.549 C21.6245919,37.4770469 20.3659532,37.9984253 19.0535556,37.9984253 C17.7411579,37.9984253 16.4825192,37.4770469 15.5545556,36.549 L12.0555556,33.0501111 Z" id="Прямоугольник_скругл._углы_8_копия_20-4" fill="#FFB144"></path>
                <polygon id="Прямоугольник_скругл._углы_8_копия_20-5" fill="#FF6F43" points="19.054 26.052 26.052 19.054 33.0501111 26.052 26.052 33.0501111"></polygon>
                <path d="M12.0555556,5.058 L15.5555556,1.559 C16.4835336,0.630980295 17.742167,0.109620752 19.0545556,0.109620752 C20.3669442,0.109620752 21.6255775,0.630980295 22.5535556,1.559 L26.0525556,5.058 L19.054,12.0555556 L12.0555556,5.058 Z" id="Прямоугольник_скругл._углы_8_копия_20-6" fill="#9E0054"></path>
                <polygon id="Прямоугольник_скругл._углы_8_копия_20-7" fill="#D0154C" points="19.054 12.0555556 26.052 5.05755556 33.0501111 12.0555556 26.052 19.0535556"></polygon>
                <polygon id="Прямоугольник_скругл._углы_8_копия_22" fill="#FFFFFF" points="23.0812222 16.0832222 26.052 19.054 19.054 26.052 19.054 26.052 15.2228889 29.8831111 15.2254444 22.2234444 12.0555556 19.054 19.0321111 12.0777778 23.0785556 7.974"></polygon>
                <path d="M26.052,19.054 L33.0501111,12.0555556 L36.5491111,15.5555556 C38.4815554,17.4879999 38.4815554,20.6211112 36.5491111,22.5535556 L33.0501111,26.0525556 L26.052,19.054 Z" id="Прямоугольник_скругл._углы_8_копия_20-8" fill="#FF2941"></path>
            </g>
        </g>
    </g>
</svg>