<svg width="181" height="45" viewBox="0 0 181 45" fill="none" xmlns="http://www.w3.org/2000/svg">
<g filter="url(#filter0_d)">
<path d="M14.3767 36C13.8567 36.0933 13.3367 36.1533 12.8167 36.18C12.2967 36.2067 11.8167 36.22 11.3767 36.22C10.9501 36.22 10.4501 36.2067 9.87672 36.18C9.31672 36.1533 8.77672 36.0933 8.25672 36V8.92L8.53672 8.68H25.4567C25.5501 9.01333 25.6167 9.4 25.6567 9.84C25.7101 10.28 25.7367 10.6733 25.7367 11.02C25.7367 12.02 25.4634 12.7467 24.9167 13.2C24.3834 13.64 23.5634 13.86 22.4567 13.86H17.3367C16.8034 13.86 16.2901 13.86 15.7967 13.86C15.3034 13.8467 14.8234 13.84 14.3567 13.84C14.3567 14.4133 14.3567 14.9867 14.3567 15.56C14.3701 16.12 14.3767 16.6733 14.3767 17.22V19.88C14.6967 19.88 14.9967 19.88 15.2767 19.88H23.0767C23.1834 20.2267 23.2634 20.6467 23.3167 21.14C23.3701 21.62 23.3967 22.0267 23.3967 22.36C23.3967 22.7067 23.3701 23.12 23.3167 23.6C23.2634 24.08 23.1834 24.5067 23.0767 24.88H15.2767C14.9967 24.88 14.6967 24.88 14.3767 24.88V36ZM31.0867 14.28C31.5134 14.1067 32.0401 13.9667 32.6667 13.86C33.3067 13.7533 33.8934 13.7 34.4267 13.7C35.4667 13.7 36.1934 13.9533 36.6067 14.46C37.0334 14.9533 37.3667 15.8267 37.6067 17.08L39.0867 25.26C39.2334 26.0467 39.3801 26.94 39.5267 27.94C39.6734 28.9267 39.8067 29.8467 39.9267 30.7C39.9401 30.9133 39.9667 31.0467 40.0067 31.1C40.0467 31.14 40.1334 31.16 40.2667 31.16L43.1867 14.3C43.7467 14.2067 44.3601 14.14 45.0267 14.1C45.6934 14.06 46.3201 14.04 46.9067 14.04C47.5067 14.04 48.1267 14.06 48.7667 14.1C49.4201 14.14 50.0334 14.2067 50.6067 14.3L53.2867 30.7C53.3401 31.0067 53.4667 31.16 53.6667 31.16C53.7734 30.24 53.9001 29.2333 54.0467 28.14C54.2067 27.0467 54.3667 26.06 54.5267 25.18L56.6267 14.02C57.0934 13.9133 57.5401 13.8533 57.9667 13.84C58.4067 13.8133 58.8267 13.8 59.2267 13.8C59.7201 13.8 60.2267 13.8333 60.7467 13.9C61.2667 13.9667 61.7334 14.0733 62.1467 14.22L62.4467 14.56L57.7467 36C57.1734 36.1067 56.3867 36.1867 55.3867 36.24C54.4001 36.2933 53.5134 36.32 52.7267 36.32C51.8734 36.32 51.1067 36.1667 50.4267 35.86C49.7467 35.54 49.3134 34.8133 49.1267 33.68L47.9867 27.2C47.7734 25.88 47.5734 24.5 47.3867 23.06C47.2001 21.62 47.0601 20.4733 46.9667 19.62H46.6867C46.5801 20.4733 46.4267 21.6133 46.2267 23.04C46.0267 24.4667 45.8067 25.8533 45.5667 27.2L43.9867 36C43.3734 36.0933 42.5867 36.16 41.6267 36.2C40.6801 36.24 39.7867 36.26 38.9467 36.26C38.0134 36.26 37.2134 36.1133 36.5467 35.82C35.8934 35.5267 35.4467 34.8067 35.2067 33.66L31.0867 14.28ZM70.2392 13.98C70.7192 13.8867 71.2592 13.8267 71.8592 13.8C72.4726 13.7733 72.9592 13.76 73.3192 13.76C73.7059 13.76 74.1659 13.7733 74.6992 13.8C75.2459 13.8267 75.7726 13.8867 76.2792 13.98V36C75.7726 36.0933 75.2459 36.1533 74.6992 36.18C74.1659 36.2067 73.7059 36.22 73.3192 36.22C72.9592 36.22 72.4726 36.2067 71.8592 36.18C71.2592 36.1533 70.7192 36.0933 70.2392 36V13.98ZM84.3086 14.92C85.0819 14.4133 85.8486 14.08 86.6086 13.92C87.3819 13.76 87.9953 13.68 88.4486 13.68C89.2753 13.68 89.9619 13.8733 90.5086 14.26C91.0553 14.6333 91.6153 15.2267 92.1886 16.04L94.6886 19.72L98.4286 13.98C98.8686 13.8733 99.2953 13.8133 99.7086 13.8C100.122 13.7733 100.582 13.76 101.089 13.76C101.489 13.76 101.975 13.7933 102.549 13.86C103.122 13.9133 103.655 14.0133 104.149 14.16L104.189 14.46L97.7486 24.2L105.149 35.04C104.375 35.5733 103.589 35.9133 102.789 36.06C102.002 36.22 101.395 36.3 100.969 36.3C100.142 36.3 99.4419 36.1067 98.8686 35.72C98.2953 35.3333 97.7286 34.74 97.1686 33.94L93.8686 29.06L89.4486 36C89.0753 36.08 88.6486 36.1333 88.1686 36.16C87.6886 36.2 87.2286 36.22 86.7886 36.22C85.6019 36.22 84.5686 36.0867 83.6886 35.82L83.5086 35.52L90.7686 24.48L84.3086 14.92ZM123.48 14.02C123.933 13.9133 124.387 13.8467 124.84 13.82C125.307 13.78 125.733 13.76 126.12 13.76C126.64 13.76 127.14 13.7933 127.62 13.86C128.113 13.9133 128.547 14 128.92 14.12L129.18 14.42L122.38 29.74V36C121.9 36.0933 121.4 36.1533 120.88 36.18C120.36 36.2067 119.9 36.22 119.5 36.22C119.14 36.22 118.667 36.2067 118.08 36.18C117.493 36.1533 116.96 36.0933 116.48 36V29.58L109.72 14.52C110.28 14.2533 110.887 14.04 111.54 13.88C112.193 13.72 112.787 13.64 113.32 13.64C114.147 13.64 114.82 13.8133 115.34 14.16C115.86 14.4933 116.28 15.08 116.6 15.92L118.12 19.8C118.467 20.7333 118.747 21.5267 118.96 22.18C119.173 22.82 119.36 23.54 119.52 24.34H119.76C120.267 22.5 120.82 20.8 121.42 19.24L123.48 14.02ZM136.614 13.98C137.094 13.8867 137.634 13.8267 138.234 13.8C138.848 13.7733 139.334 13.76 139.694 13.76C140.081 13.76 140.541 13.7733 141.074 13.8C141.621 13.8267 142.148 13.8867 142.654 13.98V36C142.148 36.0933 141.621 36.1533 141.074 36.18C140.541 36.2067 140.081 36.22 139.694 36.22C139.334 36.22 138.848 36.2067 138.234 36.18C137.634 36.1533 137.094 36.0933 136.614 36V13.98ZM150.984 25.02C150.984 21.4733 151.897 18.6533 153.724 16.56C155.564 14.4533 158.237 13.4 161.744 13.4C165.317 13.4 168.01 14.4467 169.824 16.54C171.65 18.6333 172.564 21.46 172.564 25.02C172.564 28.6067 171.65 31.4333 169.824 33.5C167.997 35.5533 165.304 36.58 161.744 36.58C158.184 36.58 155.497 35.54 153.684 33.46C151.884 31.38 150.984 28.5667 150.984 25.02ZM157.164 25.02C157.164 25.8067 157.217 26.6133 157.324 27.44C157.43 28.2667 157.644 29.04 157.964 29.76C158.284 30.4667 158.75 31.04 159.364 31.48C159.977 31.92 160.784 32.14 161.784 32.14C162.784 32.14 163.59 31.92 164.204 31.48C164.817 31.04 165.277 30.4667 165.584 29.76C165.904 29.04 166.117 28.2667 166.224 27.44C166.33 26.6133 166.384 25.8067 166.384 25.02C166.384 24.2333 166.33 23.42 166.224 22.58C166.117 21.74 165.904 20.9667 165.584 20.26C165.277 19.54 164.817 18.96 164.204 18.52C163.59 18.0667 162.784 17.84 161.784 17.84C160.784 17.84 159.977 18.0667 159.364 18.52C158.75 18.96 158.284 19.54 157.964 20.26C157.644 20.9667 157.43 21.74 157.324 22.58C157.217 23.42 157.164 24.2333 157.164 25.02Z" fill="white"/>
</g>
<defs>
<filter id="filter0_d" x="0.256714" y="0.679993" width="180.307" height="43.9" filterUnits="userSpaceOnUse" color-interpolation-filters="sRGB">
<feFlood flood-opacity="0" result="BackgroundImageFix"/>
<feColorMatrix in="SourceAlpha" type="matrix" values="0 0 0 0 0 0 0 0 0 0 0 0 0 0 0 0 0 0 127 0" result="hardAlpha"/>
<feOffset/>
<feGaussianBlur stdDeviation="4"/>
<feComposite in2="hardAlpha" operator="out"/>
<feColorMatrix type="matrix" values="0 0 0 0 1 0 0 0 0 1 0 0 0 0 1 0 0 0 0.5 0"/>
<feBlend mode="normal" in2="BackgroundImageFix" result="effect1_dropShadow"/>
<feBlend mode="normal" in="SourceGraphic" in2="effect1_dropShadow" result="shape"/>
</filter>
</defs>
</svg>
