<svg width="45" height="45" viewBox="0 0 22 21" fill="none" xmlns="http://www.w3.org/2000/svg">
<path d="M11 11L13.5 13M11 11V20V11ZM11 11L8.5 13L11 11Z" stroke="white" stroke-width="2" stroke-linecap="round" stroke-linejoin="round"/>
<path d="M4.034 8.117C3.08821 8.35499 2.26188 8.93016 1.71025 9.73444C1.15863 10.5387 0.919682 11.5168 1.03831 12.4848C1.15693 13.4528 1.62496 14.3442 2.35447 14.9915C3.08397 15.6388 4.02473 15.9974 5 16H6" stroke="white" stroke-width="2" stroke-linecap="round" stroke-linejoin="round"/>
<path d="M14.83 6.138C14.4882 4.78457 13.6446 3.61174 12.4701 2.85726C11.2957 2.10277 9.87827 1.82309 8.50526 2.0749C7.13224 2.32672 5.90634 3.09118 5.07606 4.21334C4.24579 5.33549 3.87326 6.73137 4.034 8.118C4.034 8.118 4.187 9 4.5 9.5" stroke="white" stroke-width="2" stroke-linecap="round" stroke-linejoin="round"/>
<path d="M16 16C16.706 15.9995 17.404 15.8495 18.0479 15.5599C18.6917 15.2702 19.267 14.8475 19.7357 14.3195C20.2045 13.7915 20.5561 13.1702 20.7674 12.4965C20.9787 11.8229 21.045 11.1121 20.9618 10.4109C20.8786 9.70982 20.6479 9.03427 20.2848 8.42874C19.9217 7.82321 19.4345 7.30145 18.8552 6.89779C18.276 6.49412 17.6178 6.21772 16.924 6.08676C16.2302 5.9558 15.5166 5.97327 14.83 6.138L13.5 6.5" stroke="white" stroke-width="2" stroke-linecap="round" stroke-linejoin="round"/>
</svg>
