<svg width="26" height="25" viewBox="0 0 26 25" fill="none" xmlns="http://www.w3.org/2000/svg">
<path d="M24.5104 8.71255L17.0735 7.55631L13.8111 0.77379C13.722 0.588091 13.5739 0.43701 13.39 0.344245C12.9288 0.110852 12.3638 0.295931 12.1274 0.757093L8.73121 7.47358L1.27285 8.4821C1.06723 8.5094 0.878543 8.60434 0.733357 8.74958C0.557823 8.92645 0.459688 9.16578 0.460518 9.41497C0.461347 9.66416 0.561072 9.90283 0.737779 10.0785L6.07413 15.3855L4.72752 22.7912C4.69595 22.9634 4.71329 23.1411 4.77756 23.304C4.84183 23.4669 4.95046 23.6086 5.09114 23.7129C5.23182 23.8172 5.39892 23.88 5.57348 23.8942C5.74804 23.9084 5.92308 23.8734 6.07876 23.7932L12.775 20.3569L19.4018 23.9253C19.5827 24.0239 19.7935 24.0583 19.9963 24.0251C20.5076 23.9421 20.8556 23.4615 20.7726 22.9503L19.5731 15.5194L25.0137 10.3193C25.1618 10.177 25.2604 9.99023 25.2918 9.78519C25.3761 9.27265 25.0229 8.79391 24.5104 8.71255V8.71255Z" fill="#FFD800"/>
</svg>
