<svg width="21" height="23" viewBox="0 0 21 23" fill="none" xmlns="http://www.w3.org/2000/svg">
<path d="M1.83105 5.31281H3.83105H19.8311" stroke="black" stroke-width="2" stroke-linecap="round" stroke-linejoin="round"/>
<path d="M6.83105 5.31281V3.31281C6.83105 2.78237 7.04177 2.27366 7.41684 1.89859C7.79191 1.52352 8.30062 1.31281 8.83105 1.31281H12.8311C13.3615 1.31281 13.8702 1.52352 14.2453 1.89859C14.6203 2.27366 14.8311 2.78237 14.8311 3.31281V5.31281M17.8311 5.31281V19.3128C17.8311 19.8432 17.6203 20.3519 17.2453 20.727C16.8702 21.1021 16.3615 21.3128 15.8311 21.3128H5.83105C5.30062 21.3128 4.79191 21.1021 4.41684 20.727C4.04177 20.3519 3.83105 19.8432 3.83105 19.3128V5.31281H17.8311Z" stroke="black" stroke-width="2" stroke-linecap="round" stroke-linejoin="round"/>
</svg>
