<svg viewBox="0 0 307 307" fill="none" xmlns="http://www.w3.org/2000/svg">
<g filter="url(#filter0_d)">
<path d="M117.125 87.5833C118.667 87.5833 119.917 86.3335 119.917 84.7917C119.917 83.2499 118.667 82 117.125 82C115.583 82 114.333 83.2499 114.333 84.7917C114.333 86.3335 115.583 87.5833 117.125 87.5833Z" stroke="#4456B5" stroke-width="10" stroke-miterlimit="10" stroke-linecap="round"/>
<path d="M117.125 121.083C137.168 121.083 153.417 104.835 153.417 84.7917C153.417 64.7483 137.168 48.5 117.125 48.5C97.0816 48.5 80.8333 64.7483 80.8333 84.7917C80.8333 104.835 97.0816 121.083 117.125 121.083Z" stroke="#4456B5" stroke-width="10" stroke-miterlimit="10" stroke-linecap="round"/>
<path d="M279.042 79.2083C280.583 79.2083 281.833 77.9585 281.833 76.4167C281.833 74.8749 280.583 73.625 279.042 73.625C277.5 73.625 276.25 74.8749 276.25 76.4167C276.25 77.9585 277.5 79.2083 279.042 79.2083Z" stroke="#4456B5" stroke-width="10" stroke-miterlimit="10" stroke-linecap="round" stroke-linejoin="round"/>
<path d="M253.917 266.25C255.458 266.25 256.708 265 256.708 263.458C256.708 261.917 255.458 260.667 253.917 260.667C252.375 260.667 251.125 261.917 251.125 263.458C251.125 265 252.375 266.25 253.917 266.25Z" stroke="#4456B5" stroke-width="10" stroke-miterlimit="10" stroke-linecap="round" stroke-linejoin="round"/>
<path d="M259.5 42.9167C267.209 42.9167 273.458 36.6673 273.458 28.9583C273.458 21.2494 267.209 15 259.5 15C251.791 15 245.542 21.2494 245.542 28.9583C245.542 36.6673 251.791 42.9167 259.5 42.9167Z" stroke="#4456B5" stroke-width="10" stroke-miterlimit="10" stroke-linecap="round" stroke-linejoin="round"/>
<path d="M25 143.417H281.833" stroke="#4456B5" stroke-width="10" stroke-miterlimit="10" stroke-linecap="round"/>
<path d="M189.708 34.5417H226" stroke="#4456B5" stroke-width="10" stroke-miterlimit="10" stroke-linecap="round"/>
<path d="M217.625 76.4167H259.5" stroke="#4456B5" stroke-width="10" stroke-miterlimit="10" stroke-linecap="round"/>
<path d="M209.25 93.1667H253.917" stroke="#4456B5" stroke-width="10" stroke-miterlimit="10" stroke-linecap="round"/>
<path d="M209.25 54.0833H237.167" stroke="#4456B5" stroke-width="10" stroke-miterlimit="10" stroke-linecap="round"/>
<path d="M217.625 271.833H153.417" stroke="#4456B5" stroke-width="10" stroke-miterlimit="10" stroke-linecap="round"/>
<path d="M270.667 218.792H228.792" stroke="#4456B5" stroke-width="10" stroke-miterlimit="10" stroke-linecap="round"/>
<path d="M262.292 202.042H203.667" stroke="#4456B5" stroke-width="10" stroke-miterlimit="10" stroke-linecap="round"/>
<path d="M248.333 238.333H220.417" stroke="#4456B5" stroke-width="10" stroke-miterlimit="10" stroke-linecap="round"/>
<path d="M251.125 126.667H280.781" stroke="#4456B5" stroke-width="10" stroke-miterlimit="10" stroke-linecap="round"/>
<path d="M259.5 174.125H277.959" stroke="#4456B5" stroke-width="10" stroke-miterlimit="10" stroke-linecap="round"/>
<path d="M267.875 160.167H280.678" stroke="#4456B5" stroke-width="10" stroke-miterlimit="10" stroke-linecap="round"/>
<path d="M164.592 243.303C162.894 243.49 161.183 243.635 159.463 243.738" stroke="#4456B5" stroke-width="10" stroke-miterlimit="10" stroke-linecap="round"/>
<path d="M139.459 243.917C111.799 239.752 86.6989 223.189 71.2554 201.307" stroke="#4456B5" stroke-width="10" stroke-miterlimit="10" stroke-linecap="round"/>
<path d="M251.125 160.167H245.542" stroke="#4456B5" stroke-width="10" stroke-miterlimit="10" stroke-linecap="round"/>
<path d="M237.167 174.125H231.583" stroke="#4456B5" stroke-width="10" stroke-miterlimit="10" stroke-linecap="round"/>
<path d="M186.917 202.042H181.333" stroke="#4456B5" stroke-width="10" stroke-miterlimit="10" stroke-linecap="round"/>
<path d="M198.083 76.4167H192.5" stroke="#4456B5" stroke-width="10" stroke-miterlimit="10" stroke-linecap="round"/>
<path d="M212.53 257.52C212.53 257.52 236.237 247.289 246.474 194.49C246.474 194.49 246.764 187.383 273.495 188.081H273.503C278.885 174.125 281.833 159.008 281.833 142.95C281.833 131.51 280.337 120.885 277.531 110.327L277.286 109.423C251.591 111.544 240.888 104.333 240.888 104.333C229.721 44.7787 201.361 24.2516 201.361 24.2516L201.232 24.1985C186.456 18.2663 170.317 15 153.417 15C82.4944 15 25 72.4944 25 143.417C25 214.339 82.4944 271.833 153.417 271.833C174.759 271.833 194.82 266.736 212.53 257.52Z" stroke="#4456B5" stroke-width="10" stroke-miterlimit="10" stroke-linecap="round" stroke-linejoin="round"/>
</g>
<defs>
<filter id="filter0_d" x="0" y="0" width="306.833" height="306.833" filterUnits="userSpaceOnUse" color-interpolation-filters="sRGB">
<feFlood flood-opacity="0" result="BackgroundImageFix"/>
<feColorMatrix in="SourceAlpha" type="matrix" values="0 0 0 0 0 0 0 0 0 0 0 0 0 0 0 0 0 0 127 0" result="hardAlpha"/>
<feOffset dy="10"/>
<feGaussianBlur stdDeviation="10"/>
<feColorMatrix type="matrix" values="0 0 0 0 0.266667 0 0 0 0 0.337255 0 0 0 0 0.709804 0 0 0 0.5 0"/>
<feBlend mode="normal" in2="BackgroundImageFix" result="effect1_dropShadow"/>
<feBlend mode="normal" in="SourceGraphic" in2="effect1_dropShadow" result="shape"/>
</filter>
</defs>
</svg>
