<svg width="33" height="30" viewBox="0 0 33 30" fill="none" xmlns="http://www.w3.org/2000/svg">
<path d="M7.27495 0.225007C6.99962 0.225144 6.72937 0.293805 6.49245 0.423818C6.25553 0.553831 6.06063 0.740425 5.9281 0.964106L0.290602 10.4641C0.142029 10.7147 0.0782194 11.0009 0.107467 11.2855C0.136715 11.5701 0.257667 11.84 0.454602 12.0601L15.3171 28.6851C15.4614 28.8465 15.6423 28.9764 15.8469 29.0655C16.0515 29.1547 16.2749 29.2009 16.501 29.2009C16.7271 29.2009 16.9504 29.1547 17.1551 29.0655C17.3597 28.9764 17.5406 28.8465 17.6848 28.6851L32.5473 12.0601C32.7443 11.84 32.8652 11.5701 32.8945 11.2855C32.9237 11.0009 32.8599 10.7147 32.7113 10.4641L27.0738 0.964106C26.9412 0.740142 26.7459 0.553365 26.5086 0.423334C26.2713 0.293304 26.0006 0.224803 25.7249 0.225007H7.27495ZM4.51975 9.25001L8.1831 3.07501H11.2581L8.9252 9.25001H4.51975ZM8.59515 12.1L12.5496 21.1212L4.48285 12.1H8.59515ZM16.4774 22.5139L11.9141 12.1H20.9054L16.4774 22.5139ZM12.1847 9.25001L14.5155 3.07501H18.5028L20.9566 9.25001H12.1827H12.1847ZM24.2346 9.25001L21.7807 3.07501H24.8147L28.4801 9.25001H24.2346ZM24.21 12.1H28.515L20.3047 21.2846L24.21 12.1Z" fill="#699BF7"/>
</svg>
