<svg width="754" height="518" viewBox="0 0 754 518" fill="none" xmlns="http://www.w3.org/2000/svg">
<path d="M426.947 238.026C426.947 238.026 439.26 229.053 437.894 218.784C437.881 218.61 437.812 218.444 437.699 218.312C437.573 218.194 437.411 218.123 437.24 218.109C427.303 216.698 418.622 229.422 418.622 229.422C411.09 228.511 411.638 230.027 408.201 238.363C407.544 239.952 408.609 240.5 409.778 240.052L413.525 238.624L418.043 243.288L416.659 247.161C416.227 248.37 416.755 249.471 418.295 248.793C426.361 245.241 427.83 245.809 426.947 238.026ZM428.707 227.605C428.205 227.082 427.925 226.382 427.925 225.653C427.925 224.924 428.205 224.224 428.707 223.7C428.952 223.445 429.246 223.242 429.571 223.103C429.895 222.965 430.244 222.893 430.596 222.893C430.948 222.893 431.297 222.965 431.622 223.103C431.946 223.242 432.24 223.445 432.485 223.7C432.987 224.224 433.268 224.924 433.268 225.653C433.268 226.382 432.987 227.082 432.485 227.605C432.24 227.861 431.946 228.064 431.622 228.202C431.297 228.341 430.948 228.413 430.596 228.413C430.244 228.413 429.895 228.341 429.571 228.202C429.246 228.064 428.952 227.861 428.707 227.605Z" fill="#2D2C3E"/>
<path d="M119.407 120.331L120 119.367L119.802 118.693C119.802 118.436 119.522 117.842 118.962 116.91C118.402 115.979 117.068 114.71 114.959 113.104C112.851 111.498 110.182 110.214 106.953 109.25C106.426 106.616 104.977 104.416 102.605 102.65C100.233 100.883 97.531 100 94.5 100C91.469 100 88.7674 100.883 86.3953 102.65C84.0233 104.416 82.5736 106.616 82.0465 109.25C75.2597 111.306 71.0097 114.421 69.2965 118.596L69.1977 118.693L69 119.56L69.3953 120.331L69.593 120.523H69.1977C69.1977 124.249 70.5484 127.557 73.25 130.448C77.5988 134.816 84.6822 137 94.5 137C104.318 137 111.401 134.752 115.75 130.255C118.452 127.493 119.802 124.185 119.802 120.331H119.407ZM94.5 104.143C96.6744 104.143 98.5688 104.77 100.183 106.022C101.797 107.275 102.703 108.832 102.901 110.695L102.506 112.333H102.703C102.11 115.095 99.376 116.477 94.5 116.477C89.624 116.477 86.8895 115.095 86.2965 112.333H86.4942L86.0988 110.695C86.2965 108.832 87.2025 107.275 88.8169 106.022C90.4312 104.77 92.3256 104.143 94.5 104.143ZM82.0465 113.586C82.1783 114.357 82.6066 115.256 83.3314 116.284L80.3663 119.078C79.4438 120.106 79.4438 121.069 80.3663 121.969C80.7616 122.418 81.2558 122.643 81.8488 122.643C82.4419 122.643 82.936 122.418 83.3314 121.969L86.4942 118.885C88.2733 119.785 90.1841 120.331 92.2267 120.523V124.667C92.2267 126.016 92.9186 126.69 94.3023 126.69C95.686 126.69 96.3779 126.016 96.3779 124.667V120.331C98.6182 120.138 100.529 119.592 102.11 118.693L105.273 121.776C105.734 122.226 106.229 122.451 106.756 122.451C107.151 122.451 107.645 122.226 108.238 121.776C109.161 120.877 109.161 119.913 108.238 118.885L105.273 115.995C105.8 115.288 106.229 114.421 106.558 113.393C110.578 114.806 113.378 116.637 114.959 118.885C113.839 120.684 111.599 122.434 108.238 124.137C104.878 125.839 100.298 126.69 94.5 126.69C90.4806 126.69 86.8731 126.16 83.6773 125.1C80.4816 124.04 78.2413 123.029 76.9564 122.065C75.6715 121.102 74.6337 120.106 73.843 119.078C75.4244 116.766 78.1589 114.935 82.0465 113.586ZM94.5 132.857C85.8682 132.857 79.8391 131.09 76.4128 127.557C75.9516 127.108 75.4574 126.497 74.9302 125.727C80.531 129.131 87.0543 130.833 94.5 130.833C101.946 130.833 108.469 129.131 114.07 125.727C113.543 126.497 113.048 127.108 112.587 127.557C109.161 131.09 103.132 132.857 94.5 132.857Z" fill="#2D2C3E"/>
<path d="M743.477 392.311C750.716 385.834 756.325 377.325 753.036 373.593C751.993 372.41 750.536 371.861 748.972 372.03C747.659 372.175 746.31 372.828 744.95 373.925C742.811 372.809 740.424 372.264 738.017 372.343C735.61 372.421 733.263 373.12 731.201 374.374C729.598 375.33 728.199 376.598 727.086 378.103C725.972 379.609 725.167 381.322 724.716 383.144C724.013 385.95 724.182 388.905 725.199 391.611C723.518 393.524 721.958 397.459 723.9 399.663C724.716 400.587 725.884 401 727.289 401C731.561 401 738.033 397.185 743.477 392.311ZM749.315 375.19C749.88 375.135 750.312 375.291 750.674 375.703C751.038 376.118 750.94 377.208 750.276 378.771C749.562 377.676 748.704 376.685 747.724 375.824C748.404 375.407 748.949 375.231 749.315 375.19ZM726.856 394.754C727.558 395.779 728.39 396.708 729.331 397.516C727.713 397.998 726.626 397.966 726.261 397.549C725.919 397.163 726.264 395.849 726.856 394.754ZM752.596 385.421C750.678 388.278 748.01 391.258 745.055 393.901C742.003 396.635 738.639 399.003 735.508 400.583C736.479 400.799 737.47 400.912 738.465 400.92C741.032 400.918 743.549 400.213 745.75 398.882C748.036 397.518 749.892 395.53 751.103 393.148C752.315 390.766 752.832 388.087 752.596 385.421Z" fill="#2D2C3E"/>
<path d="M82.1253 388.586L93 387.5L82.1253 386.412L89.0463 377.954L80.5872 384.875L79.5 374L78.4123 384.875L69.9537 377.954L76.8747 386.412L66 387.5L76.8747 388.586L69.9537 397.046L78.4123 390.125L79.5 401L80.5872 390.125L89.0463 397.046L82.1253 388.586Z" fill="#2D2C3E"/>
<path d="M198.125 308.586L209 307.5L198.125 306.412L205.046 297.954L196.587 304.875L195.5 294L194.412 304.875L185.954 297.954L192.875 306.412L182 307.5L192.875 308.586L185.954 317.046L194.412 310.125L195.5 321L196.587 310.125L205.046 317.046L198.125 308.586Z" fill="#2D2C3E"/>
<path d="M291.125 191.586L302 190.5L291.125 189.412L298.046 180.954L289.587 187.875L288.5 177L287.412 187.875L278.954 180.954L285.875 189.412L275 190.5L285.875 191.586L278.954 200.046L287.412 193.125L288.5 204L289.587 193.125L298.046 200.046L291.125 191.586Z" fill="#2D2C3E"/>
<path d="M509.125 443.586L520 442.5L509.125 441.412L516.046 432.954L507.587 439.875L506.5 429L505.412 439.875L496.954 432.954L503.875 441.412L493 442.5L503.875 443.586L496.954 452.046L505.412 445.125L506.5 456L507.587 445.125L516.046 452.046L509.125 443.586Z" fill="#2D2C3E"/>
<path d="M397.125 366.586L408 365.5L397.125 364.412L404.046 355.954L395.587 362.875L394.5 352L393.412 362.875L384.954 355.954L391.875 364.412L381 365.5L391.875 366.586L384.954 375.046L393.412 368.125L394.5 379L395.587 368.125L404.046 375.046L397.125 366.586Z" fill="#2D2C3E"/>
<path d="M318.125 505.586L329 504.5L318.125 503.412L325.046 494.954L316.587 501.875L315.5 491L314.412 501.875L305.954 494.954L312.875 503.412L302 504.5L312.875 505.586L305.954 514.046L314.412 507.125L315.5 518L316.587 507.125L325.046 514.046L318.125 505.586Z" fill="#2D2C3E"/>
<path d="M554.125 366.586L565 365.5L554.125 364.412L561.046 355.954L552.587 362.875L551.5 352L550.412 362.875L541.954 355.954L548.875 364.412L538 365.5L548.875 366.586L541.954 375.046L550.412 368.125L551.5 379L552.587 368.125L561.046 375.046L554.125 366.586Z" fill="#2D2C3E"/>
<path d="M712.125 160.586L723 159.5L712.125 158.412L719.046 149.954L710.587 156.875L709.5 146L708.412 156.875L699.954 149.954L706.875 158.412L696 159.5L706.875 160.586L699.954 169.046L708.412 162.125L709.5 173L710.587 162.125L719.046 169.046L712.125 160.586Z" fill="#2D2C3E"/>
<path d="M540.125 249.586L551 248.5L540.125 247.412L547.046 238.954L538.587 245.875L537.5 235L536.412 245.875L527.954 238.954L534.875 247.412L524 248.5L534.875 249.586L527.954 258.046L536.412 251.125L537.5 262L538.587 251.125L547.046 258.046L540.125 249.586Z" fill="#2D2C3E"/>
<path d="M581.125 77.5863L592 76.5L581.125 75.4123L588.046 66.9537L579.587 73.8751L578.5 63L577.412 73.8751L568.954 66.9537L575.875 75.4123L565 76.5L575.875 77.5863L568.954 86.0458L577.412 79.1253L578.5 90L579.587 79.1253L588.046 86.0458L581.125 77.5863Z" fill="#2D2C3E"/>
<path d="M439.125 133.586L450 132.5L439.125 131.412L446.046 122.954L437.587 129.875L436.5 119L435.412 129.875L426.954 122.954L433.875 131.412L423 132.5L433.875 133.586L426.954 142.046L435.412 135.125L436.5 146L437.587 135.125L446.046 142.046L439.125 133.586Z" fill="#2D2C3E"/>
<path d="M198.125 133.586L209 132.5L198.125 131.412L205.046 122.954L196.587 129.875L195.5 119L194.412 129.875L185.954 122.954L192.875 131.412L182 132.5L192.875 133.586L185.954 142.046L194.412 135.125L195.5 146L196.587 135.125L205.046 142.046L198.125 133.586Z" fill="#2D2C3E"/>
<path d="M123.125 14.5863L134 13.5L123.125 12.4123L130.046 3.9537L121.587 10.8751L120.5 0L119.412 10.8751L110.954 3.9537L117.875 12.4123L107 13.5L117.875 14.5863L110.954 23.0459L119.412 16.1253L120.5 27L121.587 16.1253L130.046 23.0459L123.125 14.5863Z" fill="#2D2C3E"/>
<path d="M16.1253 281.586L27 280.5L16.1253 279.412L23.0463 270.954L14.5872 277.875L13.5 267L12.4123 277.875L3.9537 270.954L10.8747 279.412L0 280.5L10.8747 281.586L3.9537 290.046L12.4123 283.125L13.5 294L14.5872 283.125L23.0463 290.046L16.1253 281.586Z" fill="#2D2C3E"/>
</svg>
