<svg width="60" height="40" viewBox="0 0 70 50" fill="none" xmlns="http://www.w3.org/2000/svg">
<g filter="url(#filter0_d)">
<path d="M13.7591 15.764H12.8545C12.8183 15.764 12.7828 15.7532 12.7513 15.7328C12.7199 15.7123 12.6936 15.6829 12.6751 15.6473C12.6565 15.6118 12.6464 15.5714 12.6456 15.53C12.6448 15.4886 12.6533 15.4477 12.6705 15.4112L13.0678 14.5666C13.0322 14.5636 12.9978 14.5503 12.968 14.5278C12.9381 14.5053 12.9138 14.4745 12.8974 14.4382C12.8809 14.4019 12.8728 14.3614 12.8739 14.3205C12.875 14.2797 12.8853 14.2398 12.9037 14.2047L13.789 12.516C13.8076 12.4806 13.8339 12.4513 13.8653 12.431C13.8967 12.4107 13.9322 12.4 13.9683 12.4C14.0043 12.4 14.0398 12.4107 14.0712 12.431C14.1026 12.4513 14.1289 12.4806 14.1475 12.516L15.0329 14.2047C15.0512 14.2398 15.0615 14.2797 15.0626 14.3205C15.0637 14.3614 15.0556 14.4019 15.0392 14.4382C15.0227 14.4745 14.9984 14.5053 14.9685 14.5278C14.9387 14.5503 14.9043 14.5636 14.8687 14.5666L15.266 15.4112C15.2832 15.4477 15.2918 15.4886 15.291 15.53C15.2902 15.5714 15.28 15.6118 15.2614 15.6473C15.2429 15.6829 15.2166 15.7123 15.1852 15.7328C15.1537 15.7532 15.1182 15.764 15.082 15.764H14.1774V17.2H13.7591V15.764Z" fill="#F5CB5C"/>
<path d="M12.1719 13.364H11.2672C11.2311 13.364 11.1955 13.3532 11.1641 13.3328C11.1326 13.3123 11.1063 13.2829 11.0878 13.2473C11.0693 13.2118 11.0591 13.1714 11.0583 13.13C11.0575 13.0886 11.0661 13.0477 11.0832 13.0112L11.4805 12.1666C11.4449 12.1637 11.4105 12.1503 11.3807 12.1278C11.3508 12.1053 11.3265 12.0745 11.3101 12.0382C11.2936 12.0019 11.2856 11.9614 11.2867 11.9205C11.2878 11.8797 11.298 11.8398 11.3164 11.8047L12.2018 10.116C12.2204 10.0806 12.2466 10.0513 12.278 10.031C12.3094 10.0107 12.3449 10 12.381 10C12.4171 10 12.4525 10.0107 12.4839 10.031C12.5153 10.0513 12.5416 10.0806 12.5602 10.116L13.4456 11.8047C13.464 11.8398 13.4742 11.8797 13.4753 11.9205C13.4764 11.9614 13.4683 12.0019 13.4519 12.0382C13.4354 12.0745 13.4111 12.1053 13.3813 12.1278C13.3514 12.1503 13.3171 12.1637 13.2814 12.1666L13.6787 13.0112C13.6959 13.0477 13.7045 13.0886 13.7037 13.13C13.7029 13.1714 13.6927 13.2118 13.6742 13.2473C13.6556 13.2829 13.6293 13.3123 13.5979 13.3328C13.5664 13.3532 13.5309 13.364 13.4947 13.364H12.5901V14.8H12.1719V13.364Z" fill="#F5CB5C"/>
<path d="M15.3465 15.764H14.4419C14.4057 15.764 14.3702 15.7532 14.3387 15.7328C14.3073 15.7123 14.281 15.6829 14.2625 15.6473C14.2439 15.6118 14.2338 15.5714 14.233 15.53C14.2322 15.4886 14.2407 15.4477 14.2579 15.4112L14.6552 14.5666C14.6196 14.5636 14.5852 14.5503 14.5554 14.5278C14.5255 14.5053 14.5012 14.4745 14.4848 14.4382C14.4683 14.4019 14.4602 14.3614 14.4613 14.3205C14.4624 14.2797 14.4727 14.2398 14.4911 14.2047L15.3764 12.516C15.395 12.4806 15.4213 12.4513 15.4527 12.431C15.4841 12.4107 15.5196 12.4 15.5557 12.4C15.5917 12.4 15.6272 12.4107 15.6586 12.431C15.69 12.4513 15.7163 12.4806 15.7349 12.516L16.6203 14.2047C16.6386 14.2398 16.6489 14.2797 16.65 14.3205C16.6511 14.3614 16.643 14.4019 16.6266 14.4382C16.6101 14.4745 16.5858 14.5053 16.556 14.5278C16.5261 14.5503 16.4917 14.5636 16.4561 14.5666L16.8534 15.4112C16.8706 15.4477 16.8792 15.4886 16.8784 15.53C16.8776 15.5714 16.8674 15.6118 16.8488 15.6473C16.8303 15.6829 16.804 15.7123 16.7726 15.7328C16.7411 15.7532 16.7056 15.764 16.6694 15.764H15.7648V17.2H15.3465V15.764Z" fill="#F5CB5C"/>
<path d="M22.2247 20.564H21.3201C21.2839 20.564 21.2484 20.5532 21.2169 20.5328C21.1855 20.5123 21.1592 20.4829 21.1406 20.4473C21.1221 20.4118 21.1119 20.3713 21.1111 20.33C21.1103 20.2886 21.1189 20.2477 21.1361 20.2112L21.5334 19.3666C21.4978 19.3636 21.4634 19.3503 21.4335 19.3278C21.4037 19.3053 21.3794 19.2745 21.3629 19.2382C21.3465 19.2019 21.3384 19.1614 21.3395 19.1205C21.3406 19.0796 21.3508 19.0398 21.3692 19.0047L22.2546 17.316C22.2732 17.2806 22.2995 17.2513 22.3309 17.231C22.3623 17.2107 22.3978 17.2 22.4338 17.2C22.4699 17.2 22.5054 17.2107 22.5368 17.231C22.5682 17.2513 22.5945 17.2806 22.613 17.316L23.4984 19.0047C23.5168 19.0398 23.5271 19.0796 23.5282 19.1205C23.5293 19.1614 23.5212 19.2019 23.5047 19.2382C23.4883 19.2745 23.464 19.3053 23.4341 19.3278C23.4043 19.3503 23.3699 19.3636 23.3343 19.3666L23.7316 20.2112C23.7487 20.2477 23.7573 20.2886 23.7565 20.33C23.7557 20.3713 23.7456 20.4118 23.727 20.4473C23.7085 20.4829 23.6822 20.5123 23.6507 20.5328C23.6193 20.5532 23.5838 20.564 23.5476 20.564H22.643V22H22.2247V20.564Z" fill="#F5CB5C"/>
<path d="M23.8121 19.364H22.9075C22.8713 19.364 22.8358 19.3532 22.8043 19.3328C22.7729 19.3123 22.7466 19.2829 22.7281 19.2473C22.7095 19.2118 22.6993 19.1714 22.6985 19.13C22.6977 19.0886 22.7063 19.0477 22.7235 19.0112L23.1208 18.1666C23.0852 18.1637 23.0508 18.1503 23.0209 18.1278C22.9911 18.1053 22.9668 18.0745 22.9503 18.0382C22.9339 18.0019 22.9258 17.9614 22.9269 17.9205C22.928 17.8797 22.9382 17.8398 22.9566 17.8047L23.842 16.116C23.8606 16.0806 23.8869 16.0513 23.9183 16.031C23.9497 16.0107 23.9852 16 24.0212 16C24.0573 16 24.0928 16.0107 24.1242 16.031C24.1556 16.0513 24.1819 16.0806 24.2004 16.116L25.0858 17.8047C25.1042 17.8398 25.1145 17.8797 25.1156 17.9205C25.1167 17.9614 25.1086 18.0019 25.0921 18.0382C25.0757 18.0745 25.0514 18.1053 25.0215 18.1278C24.9917 18.1503 24.9573 18.1637 24.9217 18.1666L25.319 19.0112C25.3361 19.0477 25.3447 19.0886 25.3439 19.13C25.3431 19.1714 25.333 19.2118 25.3144 19.2473C25.2959 19.2829 25.2696 19.3123 25.2382 19.3328C25.2067 19.3532 25.1712 19.364 25.135 19.364H24.2304V20.8H23.8121V19.364Z" fill="#F5CB5C"/>
<path d="M19.5792 19.364H18.6746C18.6384 19.364 18.6029 19.3532 18.5714 19.3328C18.54 19.3123 18.5137 19.2829 18.4951 19.2473C18.4766 19.2118 18.4664 19.1714 18.4656 19.13C18.4648 19.0886 18.4734 19.0477 18.4906 19.0112L18.8879 18.1666C18.8522 18.1637 18.8179 18.1503 18.788 18.1278C18.7582 18.1053 18.7339 18.0745 18.7174 18.0382C18.701 18.0019 18.6929 17.9614 18.694 17.9205C18.6951 17.8797 18.7053 17.8398 18.7237 17.8047L19.6091 16.116C19.6277 16.0806 19.654 16.0513 19.6854 16.031C19.7168 16.0107 19.7523 16 19.7883 16C19.8244 16 19.8599 16.0107 19.8913 16.031C19.9227 16.0513 19.9489 16.0806 19.9675 16.116L20.8529 17.8047C20.8713 17.8398 20.8815 17.8797 20.8826 17.9205C20.8838 17.9614 20.8757 18.0019 20.8592 18.0382C20.8428 18.0745 20.8185 18.1053 20.7886 18.1278C20.7588 18.1503 20.7244 18.1637 20.6888 18.1666L21.0861 19.0112C21.1032 19.0477 21.1118 19.0886 21.111 19.13C21.1102 19.1714 21.1001 19.2118 21.0815 19.2473C21.063 19.2829 21.0367 19.3123 21.0052 19.3328C20.9738 19.3532 20.9382 19.364 20.9021 19.364H19.9974V20.8H19.5792V19.364Z" fill="#F5CB5C"/>
<path d="M26.4576 18.164H25.553C25.5168 18.164 25.4813 18.1532 25.4498 18.1328C25.4184 18.1123 25.3921 18.0829 25.3736 18.0474C25.355 18.0118 25.3448 17.9714 25.344 17.93C25.3432 17.8886 25.3518 17.8477 25.369 17.8112L25.7663 16.9666C25.7307 16.9637 25.6963 16.9503 25.6665 16.9278C25.6366 16.9053 25.6123 16.8745 25.5958 16.8382C25.5794 16.8019 25.5713 16.7614 25.5724 16.7205C25.5735 16.6797 25.5838 16.6398 25.6021 16.6048L26.4875 14.916C26.5061 14.8806 26.5324 14.8514 26.5638 14.831C26.5952 14.8107 26.6307 14.8 26.6667 14.8C26.7028 14.8 26.7383 14.8107 26.7697 14.831C26.8011 14.8514 26.8274 14.8806 26.846 14.916L27.7313 16.6048C27.7497 16.6398 27.76 16.6797 27.7611 16.7205C27.7622 16.7614 27.7541 16.8019 27.7376 16.8382C27.7212 16.8745 27.6969 16.9053 27.667 16.9278C27.6372 16.9503 27.6028 16.9637 27.5672 16.9666L27.9645 17.8112C27.9817 17.8477 27.9902 17.8886 27.9894 17.93C27.9886 17.9714 27.9785 18.0118 27.9599 18.0474C27.9414 18.0829 27.9151 18.1123 27.8837 18.1328C27.8522 18.1532 27.8167 18.164 27.7805 18.164H26.8759V19.6H26.4576V18.164Z" fill="#F5CB5C"/>
<path d="M39.156 15.764H38.2514C38.2152 15.764 38.1796 15.7532 38.1482 15.7328C38.1167 15.7123 38.0905 15.6829 38.0719 15.6473C38.0534 15.6118 38.0432 15.5714 38.0424 15.53C38.0416 15.4886 38.0502 15.4477 38.0673 15.4112L38.4647 14.5666C38.429 14.5636 38.3947 14.5503 38.3648 14.5278C38.335 14.5053 38.3107 14.4745 38.2942 14.4382C38.2778 14.4019 38.2697 14.3614 38.2708 14.3205C38.2719 14.2797 38.2821 14.2398 38.3005 14.2047L39.1859 12.516C39.2045 12.4806 39.2308 12.4513 39.2622 12.431C39.2936 12.4107 39.329 12.4 39.3651 12.4C39.4012 12.4 39.4367 12.4107 39.4681 12.431C39.4995 12.4513 39.5257 12.4806 39.5443 12.516L40.4297 14.2047C40.4481 14.2398 40.4583 14.2797 40.4594 14.3205C40.4605 14.3614 40.4525 14.4019 40.436 14.4382C40.4195 14.4745 40.3952 14.5053 40.3654 14.5278C40.3356 14.5503 40.3012 14.5636 40.2656 14.5666L40.6629 15.4112C40.68 15.4477 40.6886 15.4886 40.6878 15.53C40.687 15.5714 40.6768 15.6118 40.6583 15.6473C40.6398 15.6829 40.6135 15.7123 40.582 15.7328C40.5506 15.7532 40.515 15.764 40.4789 15.764H39.5742V17.2H39.156V15.764Z" fill="#F5CB5C"/>
<path d="M31.7485 14.564H30.8439C30.8077 14.564 30.7722 14.5532 30.7407 14.5328C30.7093 14.5123 30.683 14.4829 30.6645 14.4473C30.6459 14.4118 30.6357 14.3713 30.6349 14.33C30.6341 14.2886 30.6427 14.2477 30.6599 14.2112L31.0572 13.3666C31.0216 13.3636 30.9872 13.3503 30.9573 13.3278C30.9275 13.3053 30.9032 13.2745 30.8867 13.2382C30.8703 13.2019 30.8622 13.1614 30.8633 13.1205C30.8644 13.0796 30.8747 13.0398 30.893 13.0047L31.7784 11.316C31.797 11.2806 31.8233 11.2513 31.8547 11.231C31.8861 11.2107 31.9216 11.2 31.9576 11.2C31.9937 11.2 32.0292 11.2107 32.0606 11.231C32.092 11.2513 32.1183 11.2806 32.1369 11.316L33.0222 13.0047C33.0406 13.0398 33.0509 13.0796 33.052 13.1205C33.0531 13.1614 33.045 13.2019 33.0285 13.2382C33.0121 13.2745 32.9878 13.3053 32.9579 13.3278C32.9281 13.3503 32.8937 13.3636 32.8581 13.3666L33.2554 14.2112C33.2726 14.2477 33.2811 14.2886 33.2803 14.33C33.2795 14.3713 33.2694 14.4118 33.2508 14.4473C33.2323 14.4829 33.206 14.5123 33.1746 14.5328C33.1431 14.5532 33.1076 14.564 33.0714 14.564H32.1668V16H31.7485V14.564Z" fill="#F5CB5C"/>
<path d="M37.5686 13.364H36.664C36.6278 13.364 36.5922 13.3532 36.5608 13.3328C36.5293 13.3123 36.5031 13.2829 36.4845 13.2473C36.466 13.2118 36.4558 13.1714 36.455 13.13C36.4542 13.0886 36.4628 13.0477 36.4799 13.0112L36.8773 12.1666C36.8416 12.1637 36.8073 12.1503 36.7774 12.1278C36.7476 12.1053 36.7233 12.0745 36.7068 12.0382C36.6903 12.0019 36.6823 11.9614 36.6834 11.9205C36.6845 11.8797 36.6947 11.8398 36.7131 11.8047L37.5985 10.116C37.6171 10.0806 37.6434 10.0513 37.6748 10.031C37.7062 10.0107 37.7416 10 37.7777 10C37.8138 10 37.8492 10.0107 37.8807 10.031C37.9121 10.0513 37.9383 10.0806 37.9569 10.116L38.8423 11.8047C38.8607 11.8398 38.8709 11.8797 38.872 11.9205C38.8731 11.9614 38.8651 12.0019 38.8486 12.0382C38.8321 12.0745 38.8078 12.1053 38.778 12.1278C38.7482 12.1503 38.7138 12.1637 38.6782 12.1666L39.0755 13.0112C39.0926 13.0477 39.1012 13.0886 39.1004 13.13C39.0996 13.1714 39.0894 13.2118 39.0709 13.2473C39.0524 13.2829 39.0261 13.3123 38.9946 13.3328C38.9632 13.3532 38.9276 13.364 38.8915 13.364H37.9868V14.8H37.5686V13.364Z" fill="#F5CB5C"/>
<path d="M29.6322 15.764H28.7276C28.6914 15.764 28.6558 15.7532 28.6244 15.7328C28.5929 15.7123 28.5667 15.6829 28.5481 15.6473C28.5296 15.6118 28.5194 15.5714 28.5186 15.53C28.5178 15.4886 28.5264 15.4477 28.5435 15.4112L28.9409 14.5666C28.9052 14.5636 28.8709 14.5503 28.841 14.5278C28.8112 14.5053 28.7869 14.4745 28.7704 14.4382C28.7539 14.4019 28.7459 14.3614 28.747 14.3205C28.7481 14.2797 28.7583 14.2398 28.7767 14.2047L29.6621 12.516C29.6807 12.4806 29.707 12.4513 29.7384 12.431C29.7698 12.4107 29.8052 12.4 29.8413 12.4C29.8774 12.4 29.9128 12.4107 29.9442 12.431C29.9757 12.4513 30.0019 12.4806 30.0205 12.516L30.9059 14.2047C30.9243 14.2398 30.9345 14.2797 30.9356 14.3205C30.9367 14.3614 30.9287 14.4019 30.9122 14.4382C30.8957 14.4745 30.8714 14.5053 30.8416 14.5278C30.8118 14.5503 30.7774 14.5636 30.7418 14.5666L31.1391 15.4112C31.1562 15.4477 31.1648 15.4886 31.164 15.53C31.1632 15.5714 31.153 15.6118 31.1345 15.6473C31.116 15.6829 31.0897 15.7123 31.0582 15.7328C31.0268 15.7532 30.9912 15.764 30.9551 15.764H30.0504V17.2H29.6322V15.764Z" fill="#F5CB5C"/>
<path d="M46.0343 19.364H45.1297C45.0935 19.364 45.0579 19.3532 45.0265 19.3328C44.995 19.3123 44.9688 19.2829 44.9502 19.2473C44.9317 19.2118 44.9215 19.1714 44.9207 19.13C44.9199 19.0886 44.9285 19.0477 44.9456 19.0112L45.343 18.1666C45.3073 18.1637 45.273 18.1503 45.2431 18.1278C45.2133 18.1053 45.189 18.0745 45.1725 18.0382C45.156 18.0019 45.148 17.9614 45.1491 17.9205C45.1502 17.8797 45.1604 17.8398 45.1788 17.8047L46.0642 16.116C46.0828 16.0806 46.1091 16.0513 46.1405 16.031C46.1719 16.0107 46.2073 16 46.2434 16C46.2795 16 46.3149 16.0107 46.3463 16.031C46.3778 16.0513 46.404 16.0806 46.4226 16.116L47.308 17.8047C47.3264 17.8398 47.3366 17.8797 47.3377 17.9205C47.3388 17.9614 47.3308 18.0019 47.3143 18.0382C47.2978 18.0745 47.2735 18.1053 47.2437 18.1278C47.2139 18.1503 47.1795 18.1637 47.1439 18.1666L47.5412 19.0112C47.5583 19.0477 47.5669 19.0886 47.5661 19.13C47.5653 19.1714 47.5551 19.2118 47.5366 19.2473C47.5181 19.2829 47.4918 19.3123 47.4603 19.3328C47.4289 19.3532 47.3933 19.364 47.3572 19.364H46.4525V20.8H46.0343V19.364Z" fill="#F5CB5C"/>
<path d="M47.6216 20.564H46.7169C46.6808 20.564 46.6452 20.5532 46.6138 20.5328C46.5823 20.5123 46.556 20.4829 46.5375 20.4473C46.519 20.4118 46.5088 20.3713 46.508 20.33C46.5072 20.2886 46.5158 20.2477 46.5329 20.2112L46.9302 19.3666C46.8946 19.3636 46.8602 19.3503 46.8304 19.3278C46.8006 19.3053 46.7762 19.2745 46.7598 19.2382C46.7433 19.2019 46.7353 19.1614 46.7364 19.1205C46.7375 19.0796 46.7477 19.0398 46.7661 19.0047L47.6515 17.316C47.6701 17.2806 47.6963 17.2513 47.7277 17.231C47.7591 17.2107 47.7946 17.2 47.8307 17.2C47.8668 17.2 47.9022 17.2107 47.9336 17.231C47.965 17.2513 47.9913 17.2806 48.0099 17.316L48.8953 19.0047C48.9137 19.0398 48.9239 19.0796 48.925 19.1205C48.9261 19.1614 48.918 19.2019 48.9016 19.2382C48.8851 19.2745 48.8608 19.3053 48.831 19.3278C48.8011 19.3503 48.7668 19.3636 48.7311 19.3666L49.1285 20.2112C49.1456 20.2477 49.1542 20.2886 49.1534 20.33C49.1526 20.3713 49.1424 20.4118 49.1239 20.4473C49.1053 20.4829 49.0791 20.5123 49.0476 20.5328C49.0161 20.5532 48.9806 20.564 48.9444 20.564H48.0398V22H47.6216V20.564Z" fill="#F5CB5C"/>
<path d="M50.2672 19.364H49.3626C49.3264 19.364 49.2909 19.3532 49.2594 19.3328C49.2279 19.3123 49.2017 19.2829 49.1831 19.2473C49.1646 19.2118 49.1544 19.1714 49.1536 19.13C49.1528 19.0886 49.1614 19.0477 49.1785 19.0112L49.5759 18.1666C49.5402 18.1637 49.5059 18.1503 49.476 18.1278C49.4462 18.1053 49.4219 18.0745 49.4054 18.0382C49.389 18.0019 49.3809 17.9614 49.382 17.9205C49.3831 17.8797 49.3933 17.8398 49.4117 17.8047L50.2971 16.116C50.3157 16.0806 50.342 16.0513 50.3734 16.031C50.4048 16.0107 50.4402 16 50.4763 16C50.5124 16 50.5479 16.0107 50.5793 16.031C50.6107 16.0513 50.6369 16.0806 50.6555 16.116L51.5409 17.8047C51.5593 17.8398 51.5695 17.8797 51.5706 17.9205C51.5717 17.9614 51.5637 18.0019 51.5472 18.0382C51.5308 18.0745 51.5064 18.1053 51.4766 18.1278C51.4468 18.1503 51.4124 18.1637 51.3768 18.1666L51.7741 19.0112C51.7912 19.0477 51.7998 19.0886 51.799 19.13C51.7982 19.1714 51.788 19.2118 51.7695 19.2473C51.751 19.2829 51.7247 19.3123 51.6932 19.3328C51.6618 19.3532 51.6262 19.364 51.5901 19.364H50.6854V20.8H50.2672V19.364Z" fill="#F5CB5C"/>
<path d="M49.209 18.164H48.3043C48.2682 18.164 48.2326 18.1532 48.2012 18.1328C48.1697 18.1123 48.1434 18.0829 48.1249 18.0474C48.1064 18.0118 48.0962 17.9714 48.0954 17.93C48.0946 17.8886 48.1032 17.8477 48.1203 17.8112L48.5176 16.9666C48.482 16.9637 48.4476 16.9503 48.4178 16.9278C48.388 16.9053 48.3637 16.8745 48.3472 16.8382C48.3307 16.8019 48.3227 16.7614 48.3238 16.7205C48.3249 16.6797 48.3351 16.6398 48.3535 16.6048L49.2389 14.916C49.2575 14.8806 49.2837 14.8514 49.3151 14.831C49.3465 14.8107 49.382 14.8 49.4181 14.8C49.4542 14.8 49.4896 14.8107 49.521 14.831C49.5524 14.8514 49.5787 14.8806 49.5973 14.916L50.4827 16.6048C50.5011 16.6398 50.5113 16.6797 50.5124 16.7205C50.5135 16.7614 50.5054 16.8019 50.489 16.8382C50.4725 16.8745 50.4482 16.9053 50.4184 16.9278C50.3885 16.9503 50.3542 16.9637 50.3185 16.9666L50.7159 17.8112C50.733 17.8477 50.7416 17.8886 50.7408 17.93C50.74 17.9714 50.7298 18.0118 50.7113 18.0474C50.6927 18.0829 50.6665 18.1123 50.635 18.1328C50.6036 18.1532 50.568 18.164 50.5318 18.164H49.6272V19.6H49.209V18.164Z" fill="#F5CB5C"/>
<path d="M52.9126 16.964H52.008C51.9718 16.964 51.9362 16.9532 51.9048 16.9328C51.8733 16.9123 51.8471 16.8829 51.8285 16.8474C51.81 16.8118 51.7998 16.7714 51.799 16.73C51.7982 16.6886 51.8068 16.6477 51.8239 16.6112L52.2213 15.7666C52.1856 15.7637 52.1512 15.7503 52.1214 15.7278C52.0916 15.7053 52.0673 15.6745 52.0508 15.6382C52.0343 15.6019 52.0263 15.5614 52.0274 15.5205C52.0285 15.4797 52.0387 15.4398 52.0571 15.4047L52.9425 13.716C52.9611 13.6806 52.9874 13.6513 53.0188 13.631C53.0502 13.6107 53.0856 13.6 53.1217 13.6C53.1578 13.6 53.1932 13.6107 53.2246 13.631C53.256 13.6513 53.2823 13.6806 53.3009 13.716L54.1863 15.4047C54.2047 15.4398 54.2149 15.4797 54.216 15.5205C54.2171 15.5614 54.2091 15.6019 54.1926 15.6382C54.1761 15.6745 54.1518 15.7053 54.122 15.7278C54.0922 15.7503 54.0578 15.7637 54.0222 15.7666L54.4195 16.6112C54.4366 16.6477 54.4452 16.6886 54.4444 16.73C54.4436 16.7714 54.4334 16.8118 54.4149 16.8474C54.3963 16.8829 54.3701 16.9123 54.3386 16.9328C54.3072 16.9532 54.2716 16.964 54.2354 16.964H53.3308V18.4H52.9126V16.964Z" fill="#F5CB5C"/>
<path d="M56.6163 14.564H55.7117C55.6755 14.564 55.64 14.5532 55.6085 14.5328C55.5771 14.5123 55.5508 14.4829 55.5322 14.4473C55.5137 14.4118 55.5035 14.3713 55.5027 14.33C55.5019 14.2886 55.5105 14.2477 55.5277 14.2112L55.925 13.3666C55.8894 13.3636 55.855 13.3503 55.8251 13.3278C55.7953 13.3053 55.771 13.2745 55.7545 13.2382C55.7381 13.2019 55.73 13.1614 55.7311 13.1205C55.7322 13.0796 55.7424 13.0398 55.7608 13.0047L56.6462 11.316C56.6648 11.2806 56.6911 11.2513 56.7225 11.231C56.7539 11.2107 56.7894 11.2 56.8254 11.2C56.8615 11.2 56.897 11.2107 56.9284 11.231C56.9598 11.2513 56.9861 11.2806 57.0046 11.316L57.89 13.0047C57.9084 13.0398 57.9187 13.0796 57.9198 13.1205C57.9209 13.1614 57.9128 13.2019 57.8963 13.2382C57.8799 13.2745 57.8556 13.3053 57.8257 13.3278C57.7959 13.3503 57.7615 13.3636 57.7259 13.3666L58.1232 14.2112C58.1403 14.2477 58.1489 14.2886 58.1481 14.33C58.1473 14.3713 58.1372 14.4118 58.1186 14.4473C58.1001 14.4829 58.0738 14.5123 58.0424 14.5328C58.0109 14.5532 57.9754 14.564 57.9392 14.564H57.0346V16H56.6163V14.564Z" fill="#F5CB5C"/>
<path d="M22.1693 10.9003L21.8619 10.7806C21.8357 10.6588 21.7702 10.5889 21.7702 10.5889C21.731 10.5476 21.6844 10.5149 21.6331 10.4925C21.5818 10.4702 21.5269 10.4587 21.4714 10.4587C21.4158 10.4587 21.3609 10.4702 21.3096 10.4925C21.2583 10.5149 21.2117 10.5476 21.1725 10.5889L21.0234 10.7457L20.3552 10C20.2544 10.4237 20.3552 10.8474 20.6021 11.1884L20.0529 11.7477C20.0529 11.7477 20.9488 11.9595 21.4708 11.5306C21.749 11.3018 21.8115 11.1683 21.8508 11.0274L22.1693 10.9003ZM21.6361 10.9236C21.5968 10.9649 21.5323 10.9649 21.493 10.9236C21.4837 10.9138 21.4763 10.9022 21.4712 10.8894C21.4661 10.8766 21.4635 10.8628 21.4635 10.849C21.4635 10.8351 21.4661 10.8213 21.4712 10.8085C21.4763 10.7957 21.4837 10.7841 21.493 10.7743C21.5323 10.733 21.5968 10.733 21.6361 10.7743C21.6754 10.8156 21.6754 10.8823 21.6361 10.9236Z" fill="#F5CB5C"/>
<path d="M48.0953 10.9003L48.4026 10.7806C48.4289 10.6588 48.4944 10.5889 48.4944 10.5889C48.5336 10.5476 48.5802 10.5149 48.6314 10.4925C48.6827 10.4702 48.7377 10.4587 48.7932 10.4587C48.8487 10.4587 48.9037 10.4702 48.9549 10.4925C49.0062 10.5149 49.0528 10.5476 49.092 10.5889L49.2411 10.7457L49.9093 10C50.0101 10.4237 49.9093 10.8474 49.6624 11.1884L50.2117 11.7477C50.2117 11.7477 49.3157 11.9595 48.7937 11.5306C48.5155 11.3018 48.453 11.1683 48.4137 11.0274L48.0953 10.9003ZM48.6284 10.9236C48.6677 10.9649 48.7322 10.9649 48.7715 10.9236C48.7809 10.9138 48.7883 10.9022 48.7933 10.8894C48.7984 10.8766 48.801 10.8628 48.801 10.849C48.801 10.8351 48.7984 10.8213 48.7933 10.8085C48.7883 10.7957 48.7809 10.7841 48.7715 10.7743C48.7322 10.733 48.6677 10.733 48.6284 10.7743C48.5891 10.8156 48.5891 10.8823 48.6284 10.9236Z" fill="#F5CB5C"/>
<path d="M22.1693 21.1L11.5816 13.5307C10.9197 13.0575 10 13.5306 10 14.3442V31.3643C10 31.6989 10.1674 32.0114 10.4459 32.1968L22.1693 40V21.1Z" fill="url(#paint0_linear)"/>
<path d="M22.1693 21.1V40L34.8677 31.9V12.4L22.1693 21.1Z" fill="url(#paint1_linear)"/>
<path d="M47.5661 21.1V40L59.5458 32.1959C59.8291 32.0113 60 31.6961 60 31.358V14.3202C60 13.5112 59.0895 13.0371 58.4267 13.5008L47.5661 21.1Z" fill="url(#paint2_linear)"/>
<path d="M34.8677 12.4V31.9L47.5661 40V21.1L34.8677 12.4Z" fill="url(#paint3_linear)"/>
</g>
<defs>
<filter id="filter0_d" x="0" y="0" width="70" height="50" filterUnits="userSpaceOnUse" color-interpolation-filters="sRGB">
<feFlood flood-opacity="0" result="BackgroundImageFix"/>
<feColorMatrix in="SourceAlpha" type="matrix" values="0 0 0 0 0 0 0 0 0 0 0 0 0 0 0 0 0 0 127 0" result="hardAlpha"/>
<feOffset/>
<feGaussianBlur stdDeviation="5"/>
<feColorMatrix type="matrix" values="0 0 0 0 0.960784 0 0 0 0 0.796078 0 0 0 0 0.360784 0 0 0 0.5 0"/>
<feBlend mode="normal" in2="BackgroundImageFix" result="effect1_dropShadow"/>
<feBlend mode="normal" in="SourceGraphic" in2="effect1_dropShadow" result="shape"/>
</filter>
<linearGradient id="paint0_linear" x1="35" y1="12.4" x2="35" y2="40" gradientUnits="userSpaceOnUse">
<stop stop-color="#F5CB5C"/>
<stop offset="1" stop-color="#E8A904"/>
</linearGradient>
<linearGradient id="paint1_linear" x1="35" y1="12.4" x2="35" y2="40" gradientUnits="userSpaceOnUse">
<stop stop-color="#F5CB5C"/>
<stop offset="1" stop-color="#E8A904"/>
</linearGradient>
<linearGradient id="paint2_linear" x1="35" y1="12.4" x2="35" y2="40" gradientUnits="userSpaceOnUse">
<stop stop-color="#F5CB5C"/>
<stop offset="1" stop-color="#E8A904"/>
</linearGradient>
<linearGradient id="paint3_linear" x1="35" y1="12.4" x2="35" y2="40" gradientUnits="userSpaceOnUse">
<stop stop-color="#F5CB5C"/>
<stop offset="1" stop-color="#E8A904"/>
</linearGradient>
</defs>
</svg>
