<svg width="18" height="18" viewBox="0 0 13 12" fill="none" xmlns="http://www.w3.org/2000/svg">
<path d="M6.02048 7.33333C5.6758 7.94356 5.49468 8.6325 5.49468 9.33333C5.49468 10.0342 5.6758 10.7231 6.02048 11.3333H0.153809V10C0.153809 8.2 3.68714 7.33333 5.48714 7.33333H6.02048ZM5.48714 6C4.02048 6 2.82048 4.8 2.82048 3.33333C2.82048 1.86667 4.02048 0.666666 5.48714 0.666666C6.95381 0.666666 8.15381 1.86667 8.15381 3.33333C8.15381 4.8 6.95381 6 5.48714 6ZM9.48714 6.66667C10.9538 6.66667 12.1538 7.86667 12.1538 9.33333C12.1538 10.8 10.9538 12 9.48714 12C8.02048 12 6.82048 10.8 6.82048 9.33333C6.82048 7.86667 8.02048 6.66667 9.48714 6.66667ZM8.82048 10.8L10.8205 9.33333L8.82048 7.86667V10.8V10.8Z" fill="white" />
</svg>
