<svg id="Layer_5" enable-background="new 0 0 64 64" height="512" viewBox="0 0 64 64" width="512" xmlns="http://www.w3.org/2000/svg"><g><g><circle cx="14" cy="14" fill="#f0bc5e" r="9"/></g><g><g><path d="m32 41c-1.654 0-3-1.346-3-3s1.346-3 3-3 3 1.346 3 3-1.346 3-3 3z" fill="#f0bc5e"/></g></g><g><path d="m60 17c1.654 0 3-1.346 3-3v-10c0-1.654-1.346-3-3-3h-16c-1.654 0-3 1.346-3 3v2.539c-2.881-1.02-5.901-1.539-9-1.539-2.618 0-5.192.394-7.677 1.13-2.378-3.111-6.114-5.13-10.323-5.13-7.168 0-13 5.832-13 13 0 4.207 2.018 7.943 5.127 10.321-.736 2.486-1.127 5.062-1.127 7.679 0 3.79.805 7.56 2.338 11h-3.338c-1.654 0-3 1.346-3 3v10c0 1.654 1.346 3 3 3h3v2h-2v2h14v-2h-2v-2h3c1.17 0 2.176-.68 2.67-1.66 2.98 1.099 6.113 1.66 9.33 1.66s6.35-.561 9.33-1.66c.494.98 1.5 1.66 2.67 1.66h3v2h-2v2h14v-2h-2v-2h3c1.654 0 3-1.346 3-3v-10c0-1.654-1.346-3-3-3h-3.337c1.532-3.439 2.337-7.209 2.337-11 0-3.79-.804-7.56-2.337-11h2.337v-2h-2v-2zm0-2h-16c-.552 0-1-.448-1-1v-1h18v1c0 .552-.448 1-1 1zm-16-12h16c.552 0 1 .448 1 1v7h-18v-7c0-.552.448-1 1-1zm-30 0c1.075 0 2.22 1.527 3.009 4h-6.019c.79-2.473 1.935-4 3.01-4zm3.519 6c.244 1.209.408 2.553.46 4h-7.958c.052-1.447.217-2.791.46-4zm.46 6c-.052 1.447-.217 2.791-.46 4h-7.038c-.244-1.209-.408-2.553-.46-4zm-9.957-2h-4.971c.13-1.43.537-2.779 1.164-4h4.216c-.225 1.237-.364 2.581-.409 4zm0 2c.046 1.419.184 2.763.409 4h-4.217c-.626-1.221-1.034-2.57-1.164-4zm.873 6c.368 1.295.837 2.422 1.391 3.341-1.874-.676-3.518-1.834-4.765-3.341zm2.096 0h6.019c-.789 2.473-1.935 4-3.009 4s-2.221-1.527-3.01-4zm8.114 0h3.373c-1.246 1.507-2.891 2.665-4.764 3.341.554-.919 1.023-2.046 1.391-3.341zm4.681-2h-4.216c.225-1.237.363-2.581.409-4h4.971c-.13 1.43-.538 2.779-1.164 4zm-3.808-6c-.046-1.419-.184-2.763-.409-4h4.216c.626 1.221 1.034 2.57 1.164 4zm2.501-6h-3.373c-.368-1.295-.837-2.422-1.391-3.341 1.873.676 3.517 1.834 4.764 3.341zm-12.193-3.341c-.554.919-1.023 2.046-1.391 3.341h-3.374c1.247-1.507 2.891-2.665 4.765-3.341zm-6.286 41.341h16c.552 0 1 .448 1 1v7h-18v-7c0-.552.448-1 1-1zm11 16h-6v-2h6zm5-4h-16c-.552 0-1-.448-1-1v-1h18v1c0 .552-.448 1-1 1zm35 4h-6v-2h6zm5-4h-16c-.552 0-1-.448-1-1v-1h18v1c0 .552-.448 1-1 1zm1-11v7h-18v-7c0-.552.448-1 1-1h16c.552 0 1 .448 1 1zm-4-14c0 3.815-.888 7.601-2.556 11h-10.444c-1.654 0-3 1.346-3 3v9.323c-5.745 2.215-12.255 2.215-18 0v-9.323c0-1.654-1.346-3-3-3h-10.444c-1.667-3.401-2.556-7.187-2.556-11 0-2.222.308-4.412.882-6.536 1.825.978 3.907 1.536 6.118 1.536 7.168 0 13-5.832 13-13 0-2.212-.558-4.295-1.537-6.12 2.123-.574 4.313-.88 6.537-.88 3.111 0 6.134.569 9 1.677v5.323c0 1.654 1.346 3 3 3h3v2h-2v2h9.445c1.689 3.435 2.555 7.13 2.555 11zm-2-13h-6v-2h6z"/><path d="m27.051 33.051 1.414 1.414c.944-.944 2.2-1.465 3.535-1.465s2.591.521 3.535 1.465l1.414-1.414c-1.321-1.322-3.079-2.051-4.949-2.051s-3.628.729-4.949 2.051z"/><path d="m24.222 30.222 1.414 1.414c3.51-3.51 9.219-3.51 12.729 0l1.414-1.414c-4.29-4.289-11.268-4.289-15.557 0z"/><path d="m21.394 27.394 1.414 1.414c2.455-2.455 5.719-3.808 9.192-3.808s6.737 1.353 9.192 3.808l1.414-1.414c-2.833-2.833-6.599-4.394-10.606-4.394s-7.773 1.561-10.606 4.394z"/></g></g></svg>