<svg width="52" height="46" viewBox="0 0 52 46" fill="none" xmlns="http://www.w3.org/2000/svg">
<path d="M45.4999 34.6713H43.2726C43.1404 34.1318 42.7504 33.6812 42.2044 33.5078C38.0401 32.1797 33.4619 32.1797 29.2976 33.5078C28.7516 33.6812 28.3616 34.1318 28.2294 34.6713H23.7726C23.6404 34.1318 23.2504 33.6812 22.7044 33.5078C18.5401 32.1797 13.9619 32.1797 9.79759 33.5078C9.24942 33.6812 8.86159 34.1318 8.72942 34.6713H6.49992C5.30175 34.6713 4.33325 35.642 4.33325 36.838C4.33325 38.034 5.30175 39.0047 6.49992 39.0047H8.66659V39.4402C8.66659 42.1117 10.6383 44.3628 13.3553 44.7983L17.3268 45.431C17.6323 45.4808 17.9378 45.5047 18.2433 45.5047C19.5931 45.5047 20.9018 45.0302 21.9331 44.1505C23.1421 43.1192 23.8333 41.635 23.8333 40.075V39.0047H28.1666V40.075C28.1666 41.635 28.8578 43.1192 30.0668 44.1505C31.1003 45.0302 32.4068 45.5047 33.7566 45.5047C34.0621 45.5047 34.3676 45.4808 34.6731 45.431L38.6446 44.7983C41.3616 44.365 43.3333 42.1117 43.3333 39.4402V39.0047H45.4999C46.6981 39.0047 47.6666 38.034 47.6666 36.838C47.6666 35.642 46.6981 34.6713 45.4999 34.6713Z" fill="white"/>
<path d="M36.8333 11.6285V8.52583C36.8333 6.461 35.7933 4.57383 34.0492 3.47317C32.3028 2.3725 30.1557 2.249 28.2967 3.14383L27.625 3.33667C27.625 1.49717 26.13 0 24.2927 0H21.125C17.8382 0 15.1667 2.678 15.1667 5.96917V11.6285C6.22267 13 0 16.003 0 19.5C0 24.2862 11.6415 28.1667 26 28.1667C40.3585 28.1667 52 24.2862 52 19.5C52 16.003 45.7773 13 36.8333 11.6285Z" fill="white"/>
</svg>
