<svg id="Capa_1" enable-background="new 0 0 512 512" height="512" viewBox="0 0 512 512" width="512" xmlns="http://www.w3.org/2000/svg"><g><path d="m511.841 247.817c.11 2.932-72.953 12.109-72.953 15.061 0 37.274-8 72.704-22.363 104.632-15.072 33.514-37.165 63.198-64.405 87.157-12.458 10.952 47.119 14.493 32.686 22.881-37.664 21.904-81.441 34.452-128.152 34.452-141.018 0-255.345-114.327-255.345-255.346s114.327-255.345 255.345-255.345c44.935 0 87.167 11.61 123.843 31.998 17.465 9.705 30.385 24.317 45.028 37.702 5.985 5.456 11.7 11.201 17.136 17.216 13.246 14.623 28.124 27.86 37.72 45.275 18.822 34.102 30.053 72.963 31.46 114.317z" fill="#708a9f"/><g><path d="m484.072 159.862c-2.813-3.661-5.745-7.221-8.758-10.683-2.374-2.733-2.952-6.563-1.566-9.905.02-.04.04-.08.05-.11 1.177-2.873 3.631-4.967 6.583-5.665-23.191-42.062-57.902-76.873-99.884-100.193-.638 3.062-2.773 5.626-5.725 6.832-.03.01-.07.03-.11.05-3.342 1.386-7.172.808-9.905-1.566-3.461-3.012-7.022-5.945-10.683-8.757-2.892-2.234-6.822-2.643-10.064-.968-9.496 4.898-16.687 12.089-21.585 21.585-1.676 3.242-1.267 7.172.967 10.064 2.823 3.661 5.745 7.221 8.758 10.683 2.374 2.733 2.953 6.563 1.566 9.905-.02.04-.04.07-.05.11-1.376 3.351-4.498 5.656-8.109 5.905-4.578.309-9.167.768-13.745 1.356-3.621.469-6.693 2.953-7.8 6.434-3.252 10.174-3.252 20.358 0 30.532 1.107 3.471 4.179 5.965 7.8 6.433 4.578.589 9.166 1.047 13.745 1.357 3.611.249 6.733 2.553 8.109 5.905.01.03.03.07.05.11 1.386 3.341.808 7.172-1.566 9.905-3.012 3.461-5.935 7.022-8.758 10.683-2.234 2.893-2.643 6.823-.967 10.064 4.897 9.496 12.089 16.687 21.585 21.585 3.242 1.676 7.172 1.267 10.064-.967 3.661-2.823 7.221-5.745 10.683-8.758 2.733-2.374 6.563-2.952 9.905-1.566.04.02.08.03.11.05 3.352 1.377 5.656 4.498 5.905 8.109.309 4.578.768 9.166 1.356 13.745.469 3.621 2.962 6.693 6.434 7.8 10.174 3.252 20.358 3.252 30.532 0 3.481-1.107 5.965-4.179 6.433-7.8.589-4.578 1.047-9.166 1.357-13.745.249-3.611 2.553-6.733 5.905-8.109.03-.02.07-.03.11-.05 3.341-1.386 7.172-.808 9.905 1.566 3.461 3.012 7.022 5.935 10.683 8.758 2.893 2.234 6.823 2.643 10.064.967 9.496-4.897 16.687-12.089 21.585-21.585 1.674-3.243 1.265-7.173-.969-10.066zm-80.335-8.109c-22.951 0-41.553-18.602-41.553-41.554 0-22.941 18.602-41.543 41.553-41.543 22.941 0 41.544 18.602 41.544 41.543 0 22.952-18.602 41.554-41.544 41.554z" fill="#59728b"/><g fill="#3e5669"><path d="m333.733 172.439c-1.673-3.383-1.266-7.478.966-10.492 2.82-3.815 5.743-7.527 8.757-11.133 2.38-2.845 2.952-6.837 1.566-10.319-.016-.041-.033-.078-.045-.119-1.381-3.486-4.502-5.883-8.111-6.146-4.58-.325-9.164-.802-13.748-1.418-3.622-.489-6.689-3.079-7.803-6.705-3.248-10.603-3.248-21.209 0-31.812 1.114-3.626 4.181-6.216 7.803-6.705 4.584-.617 9.168-1.094 13.748-1.418 3.61-.263 6.73-2.66 8.111-6.146.012-.041.029-.078.045-.119 1.385-3.482.814-7.474-1.566-10.319-3.013-3.605-5.936-7.318-8.757-11.133-2.232-3.013-2.639-7.108-.966-10.492 4.082-8.247 9.764-14.833 17.04-19.75-2.224-.617-4.641-.411-6.767.682-9.493 4.896-16.683 12.087-21.579 21.579-1.673 3.248-1.266 7.178.966 10.068 2.82 3.663 5.743 7.223 8.753 10.685 2.38 2.73 2.952 6.561 1.566 9.904-.016.037-.033.074-.045.111-1.381 3.346-4.498 5.649-8.107 5.899-4.58.312-9.164.769-13.748 1.361-3.622.469-6.689 2.956-7.803 6.434-3.248 10.175-3.248 20.354 0 30.529 1.114 3.478 4.181 5.965 7.803 6.434 4.584.592 9.168 1.048 13.748 1.361 3.61.251 6.726 2.553 8.107 5.899.012.037.029.074.045.111 1.385 3.342.814 7.174-1.566 9.904-3.009 3.462-5.932 7.022-8.753 10.685-2.232 2.89-2.639 6.82-.966 10.068 4.896 9.493 12.087 16.683 21.579 21.579 2.125 1.094 4.543 1.299 6.767.682-7.276-4.916-12.957-11.502-17.04-19.749zm59.607 33.555c-.592-4.777-1.048-9.554-1.361-14.327-.251-3.762-2.553-7.014-5.899-8.452-.037-.012-.074-.029-.111-.045-2.393-1.036-5.036-1.024-7.347-.025 1.18 1.468 1.916 3.277 2.051 5.229.312 4.58.769 9.164 1.361 13.748.469 3.622 2.956 6.689 6.434 7.803 2.524.806 5.053 1.414 7.577 1.821-1.459-1.522-2.429-3.536-2.705-5.752z"/><path d="m445.959 85.303c-5.436-6.015-11.151-11.76-17.136-17.216-7.341-4.389-15.929-6.912-25.086-6.912-27.041 0-49.034 21.994-49.034 49.024 0 27.041 21.994 49.034 49.034 49.034 27.031 0 49.024-21.994 49.024-49.034.001-9.076-2.483-17.594-6.802-24.896zm-42.222 58.969c-18.792 0-34.073-15.281-34.073-34.073 0-18.782 15.281-34.063 34.073-34.063 18.782 0 34.063 15.281 34.063 34.063 0 18.792-15.281 34.073-34.063 34.073z"/></g></g><g><path d="m327.887 205.781c-1.114-3.478-4.181-5.965-7.803-6.434-4.584-.592-9.168-1.048-13.747-1.361-3.609-.251-6.73-2.553-8.111-5.899-.012-.037-.029-.074-.045-.111-1.385-3.342-.814-7.174 1.566-9.903 3.013-3.461 5.936-7.022 8.756-10.684 2.232-2.89 2.639-6.82.966-10.068-4.896-9.492-12.09-16.686-21.583-21.583-3.248-1.673-7.178-1.266-10.068.966-3.663 2.82-7.223 5.743-10.684 8.756-2.73 2.38-6.561 2.952-9.903 1.566-.037-.016-.074-.033-.111-.045-3.346-1.381-5.648-4.502-5.899-8.111-.312-4.58-.769-9.163-1.361-13.747-.469-3.622-2.956-6.689-6.434-7.803-10.175-3.248-20.353-3.248-30.528 0-3.478 1.114-5.965 4.181-6.434 7.803-.592 4.584-1.048 9.168-1.361 13.747-.251 3.609-2.553 6.73-5.899 8.111-.037.012-.074.029-.111.045-3.342 1.385-7.174.814-9.903-1.566-3.461-3.013-7.022-5.936-10.684-8.756-2.89-2.232-6.82-2.639-10.068-.966-9.492 4.896-16.686 12.09-21.583 21.583-1.673 3.248-1.266 7.178.966 10.068 2.82 3.663 5.743 7.223 8.756 10.684 2.38 2.73 2.952 6.561 1.566 9.903-.016.037-.033.074-.045.111-1.381 3.346-4.502 5.648-8.111 5.899-4.58.312-9.163.769-13.747 1.361-3.622.469-6.689 2.956-7.803 6.434-3.248 10.175-3.248 20.353 0 30.528 1.114 3.478 4.181 5.965 7.803 6.434 4.584.592 9.167 1.048 13.747 1.361 3.609.251 6.73 2.553 8.111 5.899.012.037.029.074.045.111 1.385 3.342.814 7.174-1.566 9.903-3.013 3.461-5.936 7.022-8.756 10.684-2.232 2.89-2.639 6.82-.966 10.068 4.896 9.492 12.09 16.686 21.583 21.583 3.248 1.673 7.178 1.266 10.068-.966 3.663-2.82 7.223-5.743 10.684-8.756 2.73-2.38 6.561-2.952 9.903-1.566.037.016.074.033.111.045 3.346 1.381 5.648 4.502 5.899 8.111.312 4.58.769 9.163 1.361 13.747.469 3.622 2.956 6.689 6.434 7.803 10.175 3.248 20.353 3.248 30.528 0 3.478-1.114 5.965-4.181 6.434-7.803.592-4.584 1.048-9.167 1.361-13.747.251-3.609 2.553-6.73 5.899-8.111.037-.012.074-.029.111-.045 3.342-1.385 7.174-.814 9.903 1.566 3.461 3.013 7.022 5.936 10.684 8.756 2.89 2.232 6.82 2.639 10.068.966 9.492-4.896 16.686-12.09 21.583-21.583 1.673-3.248 1.266-7.178-.966-10.068-2.82-3.663-5.743-7.223-8.756-10.684-2.38-2.73-2.952-6.561-1.566-9.903.016-.037.033-.074.045-.111 1.381-3.346 4.502-5.648 8.111-5.899 4.58-.312 9.163-.769 13.747-1.361 3.622-.469 6.689-2.956 7.803-6.434 3.248-10.175 3.248-20.354 0-30.528zm-99.724 56.809c-22.945 0-41.546-18.6-41.546-41.546 0-22.945 18.6-41.546 41.546-41.546s41.546 18.6 41.546 41.546c-.001 22.946-18.601 41.546-41.546 41.546z" fill="#59728b"/><g fill="#3e5669"><path d="m158.163 283.28c-1.673-3.383-1.266-7.478.966-10.492 2.82-3.815 5.743-7.527 8.757-11.133 2.38-2.845 2.952-6.837 1.566-10.319-.016-.041-.033-.078-.045-.119-1.381-3.486-4.502-5.883-8.111-6.146-4.58-.325-9.164-.802-13.748-1.418-3.622-.489-6.689-3.079-7.803-6.705-3.248-10.603-3.248-21.209 0-31.812 1.114-3.626 4.181-6.216 7.803-6.705 4.584-.617 9.168-1.094 13.748-1.418 3.61-.263 6.73-2.66 8.111-6.146.012-.041.029-.078.045-.119 1.385-3.482.814-7.474-1.566-10.319-3.013-3.605-5.936-7.318-8.757-11.133-2.232-3.013-2.639-7.108-.966-10.492 4.082-8.247 9.764-14.833 17.041-19.75-2.224-.617-4.641-.411-6.767.682-9.493 4.896-16.683 12.087-21.579 21.579-1.673 3.248-1.266 7.178.966 10.068 2.82 3.663 5.743 7.223 8.753 10.685 2.38 2.73 2.952 6.561 1.566 9.904-.016.037-.033.074-.045.111-1.381 3.346-4.498 5.649-8.107 5.899-4.58.312-9.164.769-13.748 1.361-3.622.469-6.689 2.956-7.803 6.434-3.248 10.175-3.248 20.354 0 30.529 1.114 3.478 4.181 5.965 7.803 6.434 4.584.592 9.168 1.048 13.748 1.361 3.61.251 6.726 2.553 8.107 5.899.012.037.029.074.045.111 1.385 3.342.814 7.174-1.566 9.904-3.009 3.462-5.932 7.022-8.753 10.685-2.232 2.89-2.639 6.82-.966 10.068 4.896 9.493 12.087 16.683 21.579 21.579 2.125 1.094 4.543 1.299 6.767.682-7.277-4.916-12.959-11.502-17.041-19.749zm59.607 33.555c-.592-4.777-1.048-9.554-1.361-14.327-.251-3.762-2.553-7.014-5.899-8.452-.037-.012-.074-.029-.111-.045-2.393-1.036-5.036-1.024-7.347-.025 1.18 1.468 1.916 3.277 2.051 5.229.312 4.58.769 9.164 1.361 13.748.469 3.622 2.956 6.689 6.434 7.803 2.524.806 5.053 1.414 7.577 1.821-1.459-1.522-2.43-3.536-2.705-5.752zm-4.872-195.516c-3.478 1.114-5.965 4.181-6.434 7.803-.592 4.584-1.048 9.168-1.361 13.748-.136 1.953-.872 3.762-2.051 5.229 2.31.999 4.954 1.011 7.347-.025.037-.016.074-.033.111-.045 3.346-1.439 5.649-4.691 5.899-8.452.312-4.773.769-9.55 1.361-14.327.275-2.216 1.246-4.23 2.705-5.751-2.524.406-5.052 1.015-7.577 1.82z"/><path d="m228.162 270.071c-27.033 0-49.026-21.993-49.026-49.026s21.992-49.026 49.026-49.026 49.027 21.993 49.027 49.026-21.993 49.026-49.027 49.026zm0-83.091c-18.783 0-34.064 15.281-34.064 34.065s15.281 34.065 34.064 34.065c18.784 0 34.065-15.281 34.065-34.065s-15.281-34.065-34.065-34.065z"/></g></g><g><path d="m512 256.654c0 76.414-33.574 144.998-86.768 191.789h-270.646c-3.591 0-7.102 28.776-10.513 28.148-26.542-4.937-46.641-28.218-46.641-56.186v-115.445c0-31.559 25.584-57.144 57.153-57.144h357.255c.11 2.933.16 5.886.16 8.838z" fill="#e4f2ff"/><path d="m208.284 446.984c3.412.628 6.919.963 10.51.963l-61.16 8.351c-3.59 0-10.146 20.919-13.558 20.291-26.546-4.93-46.644-28.211-46.644-56.18v-115.45c0-31.56 25.583-57.143 57.154-57.143h129.496c-31.571 0-57.154 25.583-57.154 57.143v115.449c0 27.97-45.19 21.645-18.644 26.576z" fill="#c2dafd"/><path d="m489.637 361.286c-4.628 10.294-9.925 20.228-15.82 29.744-1.802 2.908-18.294 5.774-20.21 8.6-1.626 2.399 11.341 4.769 9.637 7.11-3.232 4.449-6.603 8.788-10.114 12.997-2.359 2.845-15.615 5.635-18.097 8.371-2.261 2.492 6.262 4.938 3.904 7.339-4.399 4.498-8.977 8.837-13.705 12.997-2.861 2.517-15.973 4.969-18.946 7.355-3.588 2.88 2.938 5.665-.804 8.355-6.663 4.788-13.555 9.266-20.677 13.396h-230.22c-3.591 0-7.102-.329-10.513-.958v-63.826c0-28.427 23.051-51.478 51.478-51.478h294.087z" fill="#a1b7d8"/><g fill="#e4f2ff"><path d="m473.818 391.03c-3.331 5.376-6.862 10.613-10.573 15.71h-297.757c-4.339 0-7.85-3.521-7.85-7.86 0-4.329 3.511-7.85 7.85-7.85z"/><path d="m453.131 419.736c-4.508 5.436-9.246 10.673-14.194 15.71h-273.449c-4.339 0-7.85-3.521-7.85-7.86 0-4.329 3.511-7.85 7.85-7.85z"/><path d="m425.232 448.443c-6.314 5.556-12.907 10.792-19.749 15.71h-239.995c-4.339 0-7.85-3.521-7.85-7.86 0-4.329 3.511-7.85 7.85-7.85z"/></g><path d="m233.054 406.739h-67.569c-4.334 0-7.851-3.517-7.851-7.851 0-4.344 3.517-7.851 7.851-7.851h67.569c-4.344 0-7.851 3.507-7.851 7.851 0 4.334 3.507 7.851 7.851 7.851z" fill="#c2dafd"/><path d="m233.054 435.442h-67.569c-4.334 0-7.851-3.517-7.851-7.851s3.517-7.851 7.851-7.851h67.569c-4.344 0-7.851 3.517-7.851 7.851 0 4.333 3.507 7.851 7.851 7.851z" fill="#c2dafd"/><path d="m233.054 464.144h-67.569c-4.334 0-7.851-3.507-7.851-7.851 0-4.334 3.517-7.851 7.851-7.851h67.569c-4.344 0-7.851 3.517-7.851 7.851 0 4.344 3.507 7.851 7.851 7.851z" fill="#c2dafd"/><g><circle cx="467.842" cy="313.8" fill="#df6379" r="22.452"/><path d="m476.375 334.557c-2.627 1.089-5.517 1.685-8.531 1.685-12.404 0-22.453-10.049-22.453-22.443 0-12.404 10.049-22.453 22.453-22.453 3.015 0 5.904.597 8.531 1.675-8.175 3.35-13.933 11.389-13.933 20.778 0 9.38 5.757 17.419 13.933 20.758z" fill="#c63c50"/></g><path d="m238.062 326.331h-86.328c-6.921 0-12.531-5.611-12.531-12.531 0-6.921 5.611-12.531 12.531-12.531h86.328c6.921 0 12.531 5.611 12.531 12.531 0 6.92-5.61 12.531-12.531 12.531z" fill="#595f63"/></g><g><path d="m71.511 6.781 66.815 66.815c9.047 9.047 9.039 23.706-.007 32.753l-31.975 31.975c-9.039 9.039-23.699 9.047-32.745 0l-66.816-66.815c-9.047-9.047-9.039-23.706 0-32.745l31.975-31.975c9.047-9.047 23.706-9.055 32.753-.008z" fill="#df6379"/><path d="m132.869 111.801-26.52 26.52c-9.047 9.047-23.706 9.054-32.753.007l-66.815-66.816c-9.047-9.047-9.039-23.706.007-32.753l26.52-26.52c-9.047 9.047-9.047 23.699 0 32.745l66.815 66.815c9.048 9.049 23.7 9.048 32.746.002z" fill="#c63c50"/><path d="m278.283 266.001-12.283 12.282c-4.75 4.75-11.975 5.996-18.042 3.112l-35.294-16.781c-5.087-2.418-8.511-7.351-8.999-12.962l-1.825-20.986c-.324-3.721-1.949-7.209-4.59-9.85l-94.924-94.924 23.566-23.566 94.924 94.924c2.641 2.641 6.129 4.266 9.85 4.59l20.986 1.825c5.611.488 10.543 3.912 12.962 8.999l16.781 35.294c2.884 6.067 1.638 13.293-3.112 18.043z" fill="#d6f4f3"/><path d="m205.932 212.134-94.924-94.924-8.685 8.685 94.924 94.924c2.642 2.642 4.27 6.125 4.592 9.85l1.826 20.984c.49 5.61 3.913 10.545 8.999 12.959l35.296 16.782c6.065 2.887 13.29 1.641 18.041-3.11l2.638-2.637c-2.706 2.706-8.114 2.135-13.496-1.435l-31.318-20.76c-4.51-2.99-8.26-7.599-9.85-12.109-.002 0-5.402-26.568-8.043-29.209z" fill="#94dfda"/><path d="m135.895 71.165 2.432 2.432c9.047 9.047 9.039 23.706-.007 32.753l-31.975 31.975c-9.039 9.039-23.699 9.047-32.745 0l-2.432-2.432z" fill="#c63c50"/><path d="m173.94 100.292-73.649 73.649c-5.838 5.838-15.303 5.838-21.141 0-5.838-5.838-5.838-15.303 0-21.141l73.65-73.649c5.838-5.838 15.303-5.838 21.141 0 5.837 5.838 5.837 15.303-.001 21.141z" fill="#df6379"/><path d="m103.147 135c-.005-3.832 1.455-7.653 4.375-10.573l-28.373 28.373c-2.915 2.915-4.38 6.742-4.375 10.573-.005 3.821 1.46 7.648 4.38 10.568 5.835 5.835 15.301 5.835 21.136 0l28.373-28.373c-5.835 5.835-15.301 5.835-21.136 0-2.92-2.92-4.38-6.752-4.38-10.568z" fill="#c63c50"/></g></g></svg>