<svg width="20" height="20" viewBox="0 0 25 26" fill="none" xmlns="http://www.w3.org/2000/svg">
<path d="M10.1355 8.53887e-09C12.0249 -7.90628e-05 13.8766 0.549003 15.4818 1.58528C17.087 2.62156 18.3818 4.10379 19.2199 5.86469C20.0581 7.62559 20.4064 9.59507 20.2254 11.5509C20.0444 13.5067 19.3414 15.371 18.1957 16.9333L24.6058 23.6024C24.8482 23.8553 24.9889 24.1947 24.9994 24.5516C25.0098 24.9085 24.8893 25.2562 24.6622 25.5241C24.4351 25.7919 24.1185 25.9598 23.7767 25.9937C23.4349 26.0275 23.0935 25.9248 22.8218 25.7064L22.6948 25.5897L16.282 18.9235C15.0022 19.9384 13.5084 20.6217 11.9241 20.917C10.3399 21.2123 8.71085 21.111 7.17175 20.6215C5.63265 20.132 4.22776 19.2683 3.07333 18.1021C1.91891 16.9358 1.04814 15.5004 0.533066 13.9146C0.0179973 12.3288 -0.126558 10.6383 0.111361 8.98291C0.349281 7.32751 0.962835 5.75483 1.90125 4.395C2.83967 3.03517 4.07598 1.92729 5.50787 1.16302C6.93976 0.398759 8.52607 8.8342e-05 10.1355 8.53887e-09V8.53887e-09ZM10.1355 2.81098C8.16415 2.81098 6.27351 3.62541 4.87953 5.0751C3.48555 6.52479 2.70242 8.49099 2.70242 10.5412C2.70242 12.5913 3.48555 14.5575 4.87953 16.0072C6.27351 17.4569 8.16415 18.2714 10.1355 18.2714C12.1069 18.2714 13.9976 17.4569 15.3915 16.0072C16.7855 14.5575 17.5686 12.5913 17.5686 10.5412C17.5686 8.49099 16.7855 6.52479 15.3915 5.0751C13.9976 3.62541 12.1069 2.81098 10.1355 2.81098Z" fill="#242423"/>
</svg>
