<svg width="20" height="20" viewBox="0 0 25 26" fill="none" xmlns="http://www.w3.org/2000/svg">
<path d="M14.846 26H10.1561C9.86224 26 9.5772 25.8987 9.34825 25.7129C9.11929 25.5271 8.96018 25.2678 8.89729 24.9782L8.3729 22.529C7.67336 22.2197 7.01004 21.833 6.39516 21.3759L4.02831 22.1364C3.74816 22.2265 3.44587 22.2173 3.17166 22.1102C2.89744 22.003 2.66779 21.8045 2.52084 21.5475L0.170744 17.4512C0.0253388 17.194 -0.0292428 16.8946 0.0159294 16.602C0.0611017 16.3094 0.203353 16.0409 0.419412 15.8405L2.25543 14.1505C2.17193 13.3849 2.17193 12.6125 2.25543 11.8469L0.419412 10.1608C0.203047 9.9603 0.0606022 9.6916 0.0154226 9.39872C-0.0297571 9.10584 0.0250089 8.80616 0.170744 8.5488L2.51569 4.4499C2.66264 4.19291 2.89229 3.99437 3.1665 3.88724C3.44072 3.78012 3.743 3.77086 4.02316 3.861L6.39001 4.6215C6.70438 4.3875 7.03164 4.1691 7.36921 3.9715C7.69519 3.7869 8.03018 3.6192 8.3729 3.4697L8.89858 1.0231C8.96116 0.733457 9.11998 0.474094 9.34869 0.288013C9.57741 0.101933 9.86228 0.000311956 10.1561 0H14.846C15.1398 0.000311956 15.4247 0.101933 15.6534 0.288013C15.8821 0.474094 16.0409 0.733457 16.1035 1.0231L16.6343 3.471C17.3335 3.78027 17.9964 4.16701 18.6108 4.6241L20.9789 3.8636C21.2589 3.77379 21.5609 3.78322 21.8348 3.89033C22.1088 3.99744 22.3382 4.19579 22.4851 4.4525L24.83 8.5514C25.129 9.0805 25.0259 9.75 24.5814 10.1621L22.7454 11.8521C22.8289 12.6177 22.8289 13.3901 22.7454 14.1557L24.5814 15.8457C25.0259 16.2591 25.129 16.9273 24.83 17.4564L22.4851 21.5553C22.3382 21.8123 22.1085 22.0108 21.8343 22.118C21.5601 22.2251 21.2578 22.2343 20.9776 22.1442L18.6108 21.3837C17.9964 21.8405 17.3335 22.2268 16.6343 22.5355L16.1035 24.9782C16.0407 25.2676 15.8817 25.5267 15.653 25.7125C15.4244 25.8983 15.1396 25.9998 14.846 26ZM6.85771 18.4977L7.91422 19.2777C8.15258 19.4545 8.39996 19.617 8.65765 19.7652C8.89987 19.9069 9.14725 20.0343 9.40365 20.15L10.6058 20.6817L11.1946 23.4H13.8101L14.3989 20.6804L15.601 20.1487C16.1254 19.9147 16.624 19.6248 17.0866 19.2829L18.1431 18.5029L20.7741 19.3479L22.0818 17.0625L20.0422 15.1866L20.1865 13.871C20.251 13.2951 20.251 12.714 20.1865 12.1394L20.0422 10.8238L22.0831 8.944L20.7741 6.6573L18.1444 7.5023L17.0866 6.7223C16.6238 6.3787 16.1257 6.08625 15.601 5.85L14.3989 5.3183L13.8101 2.6H11.1946L10.6019 5.3196L9.40365 5.85C8.87821 6.08219 8.37996 6.37257 7.91809 6.7158L6.86028 7.4958L4.23188 6.6508L2.92155 8.944L4.96113 10.8173L4.81683 12.1342C4.75241 12.7101 4.75241 13.2912 4.81683 13.8658L4.96113 15.1814L2.92155 17.0573L4.22931 19.3427L6.85771 18.4977ZM12.4959 18.2C11.129 18.2 9.81816 17.6521 8.85165 16.677C7.88514 15.7018 7.34216 14.3791 7.34216 13C7.34216 11.6209 7.88514 10.2982 8.85165 9.32304C9.81816 8.34785 11.129 7.8 12.4959 7.8C13.8627 7.8 15.1736 8.34785 16.1401 9.32304C17.1066 10.2982 17.6496 11.6209 17.6496 13C17.6496 14.3791 17.1066 15.7018 16.1401 16.677C15.1736 17.6521 13.8627 18.2 12.4959 18.2ZM12.4959 10.4C11.9913 10.4005 11.4979 10.5505 11.077 10.8314C10.6562 11.1122 10.3262 11.5116 10.1283 11.9799C9.93028 12.4482 9.87292 12.9648 9.96331 13.4657C10.0537 13.9666 10.2879 14.4297 10.6367 14.7976C10.9856 15.1654 11.4338 15.4218 11.9258 15.535C12.4178 15.6481 12.9319 15.613 13.4043 15.4341C13.8767 15.2551 14.2866 14.9401 14.5832 14.5282C14.8798 14.1163 15.05 13.6256 15.0728 13.117V13.637V13C15.0728 12.3104 14.8013 11.6491 14.318 11.1615C13.8347 10.6739 13.1793 10.4 12.4959 10.4Z" fill="#242423"/>
</svg>
