<svg width="17" height="26" viewBox="0 0 17 26" fill="none" xmlns="http://www.w3.org/2000/svg">
<path d="M8.49869 5.39447C9.36575 5.39447 10.1973 5.74985 10.8104 6.38242C11.4235 7.01499 11.7679 7.87295 11.7679 8.76754C11.7679 9.66213 11.4235 10.5201 10.8104 11.1527C10.1973 11.7852 9.36575 12.1406 8.49869 12.1406C7.63164 12.1406 6.8001 11.7852 6.187 11.1527C5.5739 10.5201 5.22946 9.66213 5.22946 8.76754C5.22946 7.87295 5.5739 7.01499 6.187 6.38242C6.8001 5.74985 7.63164 5.39447 8.49869 5.39447V5.39447ZM8.49869 6.7437C7.97846 6.7437 7.47953 6.95692 7.11167 7.33647C6.74381 7.71601 6.53715 8.23078 6.53715 8.76754C6.53715 9.30429 6.74381 9.81907 7.11167 10.1986C7.47953 10.5782 7.97846 10.7914 8.49869 10.7914C9.01892 10.7914 9.51785 10.5782 9.88571 10.1986C10.2536 9.81907 10.4602 9.30429 10.4602 8.76754C10.4602 8.23078 10.2536 7.71601 9.88571 7.33647C9.51785 6.95692 9.01892 6.7437 8.49869 6.7437V6.7437ZM2.35254 12.6223L8.49869 23.0518L14.6448 12.6223C15.3077 11.497 15.6684 10.2101 15.69 8.89346C15.7115 7.57686 15.3932 6.27806 14.7675 5.13035C14.1419 3.98264 13.2315 3.02736 12.1299 2.36256C11.0282 1.69776 9.77494 1.34738 8.49869 1.34738C7.22244 1.34738 5.96918 1.69776 4.86752 2.36256C3.76587 3.02736 2.85551 3.98264 2.22987 5.13035C1.60423 6.27806 1.28585 7.57686 1.30741 8.89346C1.32897 10.2101 1.68968 11.497 2.35254 12.6223V12.6223ZM15.7616 13.3239L8.49869 25.649L1.23577 13.3239C0.45262 11.994 0.0265213 10.4731 0.00119849 8.91722C-0.0241243 7.36134 0.352241 5.82652 1.09167 4.47027C1.8311 3.11403 2.90697 1.98519 4.20887 1.19961C5.51076 0.414034 6.9918 0 8.5 0C10.0082 0 11.4892 0.414034 12.7911 1.19961C14.093 1.98519 15.1689 3.11403 15.9083 4.47027C16.6478 5.82652 17.0241 7.36134 16.9988 8.91722C16.9735 10.4731 16.5474 11.994 15.7642 13.3239H15.7616V13.3239Z" fill="#E21F25"/>
</svg>
