<svg width="13" height="17" viewBox="0 0 12 15" fill="none" xmlns="http://www.w3.org/2000/svg">
    <path d="M10.8841 6.37279H10.0615C9.95599 6.37279 9.85058 6.28847 9.85058 6.16187V4.22129C9.85058 1.98536 8.12093 0.0868132 5.88506 0.0027406C3.54361 -0.0816927 1.60306 1.79563 1.60306 4.13694V6.18303C1.60306 6.28854 1.51873 6.39395 1.39213 6.39395H0.569524C0.253086 6.39395 0 6.64703 0 6.96347V14.4305C0 14.7469 0.253086 15 0.569524 15H10.863C11.1794 15 11.4325 14.7469 11.4325 14.4305V6.94232C11.4536 6.62588 11.2005 6.37279 10.8841 6.37279H10.8841ZM2.88962 4.13687C2.88962 2.51261 4.23958 1.20491 5.88504 1.28925C7.42485 1.37358 8.60601 2.68138 8.60601 4.22121V6.18287C8.60601 6.28838 8.52169 6.39379 8.39509 6.39379L3.07953 6.3939C2.97402 6.3939 2.86861 6.30957 2.86861 6.18298V4.13689L2.88962 4.13687Z" fill="#EBEBEB" />

</svg>