<svg width="13" height="15" viewBox="0 0 18 22" fill="none" xmlns="http://www.w3.org/2000/svg">
    <path d="M9 11C11.8406 11 14.1429 8.53789 14.1429 5.5C14.1429 2.46211 11.8406 0 9 0C6.15938 0 3.85714 2.46211 3.85714 5.5C3.85714 8.53789 6.15938 11 9 11ZM12.6 12.375H11.929C11.0371 12.8133 10.0446 13.0625 9 13.0625C7.95536 13.0625 6.96696 12.8133 6.07098 12.375H5.4C2.41875 12.375 0 14.9617 0 18.15V19.9375C0 21.0762 0.863839 22 1.92857 22H16.0714C17.1362 22 18 21.0762 18 19.9375V18.15C18 14.9617 15.5812 12.375 12.6 12.375Z" fill="white" />
</svg>