<svg width="20" height="20" viewBox="0 0 31 24" fill="none" xmlns="http://www.w3.org/2000/svg">
    <path d="M10.85 12C12.0762 12 13.2749 11.6481 14.2945 10.9888C15.3141 10.3295 16.1088 9.39246 16.5781 8.2961C17.0473 7.19975 17.1701 5.99335 16.9309 4.82946C16.6916 3.66557 16.1011 2.59648 15.2341 1.75736C14.367 0.918247 13.2622 0.346802 12.0596 0.115291C10.8569 -0.11622 9.61026 0.00259969 8.47736 0.456725C7.34446 0.910851 6.37615 1.67989 5.69489 2.66658C5.01362 3.65328 4.65 4.81331 4.65 6C4.65 7.5913 5.30321 9.11742 6.46594 10.2426C7.62866 11.3679 9.20566 12 10.85 12ZM15.5 15C15.5035 14.499 15.6385 14.007 15.8923 13.5703C15.6598 13.5469 15.4322 13.5 15.19 13.5H14.3811C13.2739 13.9941 12.0692 14.25 10.85 14.25C9.63078 14.25 8.42607 13.9941 7.31891 13.5H6.51C4.78356 13.5004 3.12794 14.1642 1.90716 15.3456C0.686382 16.527 0.000385237 18.1293 0 19.8L0 21.75C0 22.3467 0.244955 22.919 0.680977 23.341C1.117 23.7629 1.70837 24 2.325 24H15.9311C15.6525 23.5458 15.5037 23.0281 15.5 22.5V15ZM29.45 13.5H27.9V9.75C27.9 8.75544 27.4917 7.80161 26.765 7.09835C26.0383 6.39509 25.0527 6 24.025 6C22.9973 6 22.0117 6.39509 21.285 7.09835C20.5583 7.80161 20.15 8.75544 20.15 9.75V13.5H18.6C18.1889 13.5 17.7947 13.658 17.504 13.9393C17.2133 14.2206 17.05 14.6022 17.05 15V22.5C17.05 22.8978 17.2133 23.2794 17.504 23.5607C17.7947 23.842 18.1889 24 18.6 24H29.45C29.8611 24 30.2553 23.842 30.546 23.5607C30.8367 23.2794 31 22.8978 31 22.5V15C31 14.6022 30.8367 14.2206 30.546 13.9393C30.2553 13.658 29.8611 13.5 29.45 13.5ZM24.025 20.25C23.7184 20.25 23.4188 20.162 23.1639 19.9972C22.909 19.8324 22.7103 19.5981 22.593 19.324C22.4757 19.0499 22.445 18.7483 22.5048 18.4574C22.5646 18.1664 22.7122 17.8991 22.929 17.6893C23.1458 17.4796 23.4219 17.3367 23.7226 17.2788C24.0233 17.2209 24.3349 17.2507 24.6182 17.3642C24.9014 17.4777 25.1435 17.67 25.3138 17.9166C25.4841 18.1633 25.575 18.4533 25.575 18.75C25.575 19.1478 25.4117 19.5294 25.121 19.8107C24.8303 20.092 24.4361 20.25 24.025 20.25ZM25.575 13.5H22.475V9.75C22.475 9.35218 22.6383 8.97065 22.929 8.68934C23.2197 8.40804 23.6139 8.25 24.025 8.25C24.4361 8.25 24.8303 8.40804 25.121 8.68934C25.4117 8.97065 25.575 9.35218 25.575 9.75V13.5Z" fill="#CE4242" />
</svg>